<?xml version="1.0" standalone="no"?>
<!DOCTYPE svg PUBLIC "-//W3C//DTD SVG 20010904//EN"
 "http://www.w3.org/TR/2001/REC-SVG-20010904/DTD/svg10.dtd">
<svg version="1.0" xmlns="http://www.w3.org/2000/svg"
 width="5133.000000pt" height="4602.000000pt" viewBox="0 0 5133.000000 4602.000000"
 preserveAspectRatio="xMidYMid meet">

<g transform="translate(0.000000,4602.000000) scale(0.100000,-0.100000)"
fill="#000000" stroke="none">
<path d="M25560 45319 c-1437 -89 -2904 -661 -3831 -1495 -235 -211 -482 -509
-701 -844 -206 -315 -329 -567 -433 -885 -103 -311 -139 -531 -139 -845 -1
-243 15 -371 65 -541 16 -57 30 -108 30 -114 1 -5 -40 -95 -89 -200 -49 -104
-89 -191 -87 -193 7 -7 75 11 75 20 0 5 37 86 83 181 l83 172 110 56 c60 31
125 59 144 62 19 3 85 17 147 30 l111 24 -25 -66 c-56 -145 -131 -356 -128
-359 2 -2 104 12 227 32 901 142 2200 286 3683 406 431 35 465 34 584 -26 204
-102 291 -336 231 -624 -51 -249 -202 -413 -562 -610 -221 -121 -262 -198
-233 -439 38 -307 53 -374 112 -499 161 -343 266 -600 368 -907 112 -337 181
-618 221 -910 22 -161 30 -540 15 -689 -35 -335 -143 -645 -310 -891 -74 -109
-81 -117 -156 -179 -33 -27 -94 -82 -135 -122 -60 -58 -84 -75 -120 -83 -155
-36 -304 20 -437 162 -32 35 -110 130 -174 212 -64 83 -142 175 -173 205 -57
55 -57 55 -114 53 -94 -4 -147 13 -188 61 -20 22 -44 60 -53 83 l-17 43 111
113 c85 88 134 129 217 181 170 106 152 110 -46 9 -90 -46 -124 -70 -181 -128
-82 -84 -109 -100 -205 -120 -90 -19 -124 -19 -160 0 -39 20 -53 49 -84 183
-31 135 -50 175 -106 225 l-42 37 -118 0 c-130 0 -229 -15 -404 -60 -127 -33
-199 -37 -260 -15 -32 11 -45 11 -70 1 l-31 -12 44 -30 c68 -44 171 -40 401
15 175 42 336 71 398 71 28 0 37 -7 63 -47 16 -27 39 -79 50 -118 12 -38 39
-125 61 -193 44 -136 47 -139 135 -129 26 3 76 9 111 13 l62 6 0 -33 c0 -85
50 -167 120 -197 19 -8 74 -18 121 -22 141 -12 144 -15 378 -298 148 -181 230
-255 340 -310 69 -34 83 -37 169 -39 52 -1 100 -7 108 -14 42 -34 329 80 558
223 184 115 386 286 477 404 l43 57 69 -6 c41 -4 90 -16 124 -32 50 -23 58
-24 71 -11 12 12 13 18 3 29 -18 23 -107 57 -162 64 -27 3 -49 8 -49 10 0 2
18 27 41 55 78 99 159 296 189 458 7 36 38 130 70 210 75 189 122 335 156 492
l28 127 128 64 c105 53 130 62 139 51 18 -22 27 -17 61 31 27 38 63 67 190
149 l27 17 122 -241 c118 -235 261 -486 298 -524 18 -18 21 -16 115 39 96 56
97 57 91 88 -15 72 -14 79 3 32 10 -27 22 -49 26 -48 3 1 70 34 149 72 78 38
192 89 252 113 101 39 112 46 128 80 34 71 142 212 266 347 153 169 260 301
330 410 38 60 56 80 62 70 7 -12 15 -10 46 6 56 30 190 162 262 258 l64 84 71
6 c147 12 250 68 396 216 398 404 758 1044 930 1652 241 853 182 1729 -172
2569 -347 821 -1026 1680 -1718 2170 -871 617 -2022 915 -3250 839z m-1635
-503 c-844 -410 -1574 -980 -2038 -1593 -231 -305 -391 -604 -502 -938 -77
-232 -115 -420 -140 -696 -5 -55 -10 -68 -28 -76 -107 -48 -628 -265 -631
-262 -5 6 13 167 30 269 38 223 131 537 229 764 501 1173 1540 2045 3030 2545
99 33 185 60 190 60 6 0 -57 -33 -140 -73z m2449 -5452 c127 -20 148 -29 218
-93 116 -106 193 -268 240 -505 18 -90 23 -145 23 -291 0 -207 -10 -266 -81
-484 -77 -240 -174 -353 -354 -413 l-55 -18 65 2 c54 3 65 0 68 -14 2 -12 -18
-31 -67 -63 -71 -46 -207 -115 -226 -115 -6 0 -24 53 -39 118 -25 98 -143 507
-163 557 -5 14 0 14 37 -1 41 -17 43 -17 56 1 18 24 14 38 -52 168 -91 181
-131 353 -141 607 -6 169 3 232 52 338 33 73 115 156 189 192 71 34 93 36 230
14z m503 -1206 c-3 -8 -6 -5 -6 6 -1 11 2 17 5 13 3 -3 4 -12 1 -19z m-287
-553 c0 -7 -43 -45 -52 -45 -18 0 -6 20 20 34 31 17 32 18 32 11z m-110 -870
c0 -3 -12 -60 -26 -127 -26 -123 -78 -307 -111 -391 l-18 -45 -1 226 c0 125
-3 239 -7 253 -6 25 -3 28 71 57 79 32 92 35 92 27z"/>
<path d="M26396 39019 c-65 -51 -97 -170 -103 -384 -4 -137 -2 -175 17 -264
33 -163 116 -346 198 -441 51 -58 49 -15 -8 118 l-50 121 40 38 c51 49 106
141 130 222 30 97 27 323 -4 273 -2 -4 -10 -48 -16 -98 -6 -49 -18 -113 -26
-143 -18 -65 -85 -173 -124 -201 l-28 -20 -11 28 c-65 163 -88 375 -56 518 37
165 108 213 199 134 18 -17 36 -30 40 -30 15 0 3 39 -24 74 -58 76 -122 96
-174 55z"/>
<path d="M24885 40680 c-187 -16 -362 -29 -390 -30 -49 -2 -216 -17 -285 -25
-19 -2 -132 -13 -250 -25 -357 -34 -895 -89 -1060 -109 l-155 -19 192 -1 c215
-1 202 3 252 -83 101 -177 118 -408 45 -620 -108 -318 -420 -427 -1109 -388
-250 13 -540 16 -633 5 l-63 -7 -60 -102 c-109 -183 -216 -419 -290 -635 -16
-47 -28 -85 -26 -86 26 -23 251 -105 286 -105 9 0 33 -16 52 -36 116 -122 330
-223 510 -242 158 -16 159 29 4 238 -85 115 -157 244 -205 367 -39 100 -93
283 -86 291 2 2 72 6 155 9 l152 6 32 -30 c126 -116 316 -208 519 -249 94 -19
190 -15 308 14 l75 18 -75 23 c-116 36 -272 122 -324 179 -18 21 -18 21 20 15
22 -3 102 -16 179 -30 267 -46 311 -52 440 -62 72 -6 159 -18 195 -26 186 -43
425 -41 614 4 71 17 87 18 160 6 249 -40 459 -25 712 50 17 5 24 -1 39 -35 10
-22 21 -43 25 -45 4 -2 0 39 -8 93 -9 53 -15 135 -15 182 -1 72 4 95 28 148
38 85 120 160 266 242 173 98 257 156 334 234 93 94 139 171 170 287 81 301
-40 552 -290 598 -32 6 -68 10 -79 10 -12 -1 -174 -14 -361 -29z m294 -366
c35 -45 24 -96 -26 -122 -34 -18 -52 -14 -84 17 -36 36 -37 73 -4 106 34 35
86 34 114 -1z"/>
<path d="M20361 40111 c-13 -3 -28 -13 -33 -21 -14 -23 -137 -345 -133 -348 8
-9 65 11 65 21 0 7 31 90 69 185 38 94 66 172 62 171 -3 -1 -17 -4 -30 -8z"/>
<path d="M23020 38455 c-159 -26 -394 -107 -430 -149 -8 -10 -20 -14 -32 -10
-13 4 -28 -2 -43 -16 -15 -14 -25 -18 -30 -11 -12 21 -44 11 -62 -19 -12 -20
-23 -28 -34 -25 -23 8 -59 -32 -59 -64 l-1 -26 -15 28 c-8 15 -18 27 -23 27
-14 0 -32 -27 -34 -49 -1 -13 -8 -21 -19 -21 -23 0 -18 -28 20 -113 28 -65 53
-87 97 -87 33 0 47 8 157 91 216 165 507 283 863 351 88 17 167 33 175 35 8 3
-25 20 -75 38 -87 33 -95 34 -230 33 -77 0 -178 -6 -225 -13z"/>
<path d="M22761 37876 c-118 -125 87 -567 291 -628 112 -33 155 94 93 277 -82
247 -297 443 -384 351z m137 -62 c28 -19 52 -65 52 -99 0 -21 -5 -25 -29 -25
-47 0 -118 95 -96 129 9 16 47 13 73 -5z m132 -185 c16 -30 12 -61 -7 -57 -22
4 -48 50 -40 71 8 20 33 12 47 -14z"/>
<path d="M43212 36118 c-7 -7 -12 -43 -12 -90 l0 -78 -2760 0 -2760 0 0 -1069
c0 -965 2 -1069 16 -1075 9 -3 51 -6 95 -6 l79 0 0 -5052 c0 -2779 4 -5059 8
-5065 6 -9 63 -13 207 -15 l200 -3 -205 -84 c-442 -181 -797 -343 -1260 -577
-1074 -541 -2054 -1173 -2850 -1839 -263 -220 -436 -348 -630 -467 -162 -100
-163 -99 -39 28 63 66 140 153 171 194 202 275 324 593 360 940 10 102 15 119
39 147 48 56 53 87 45 315 l-6 207 47 21 c133 59 203 212 182 399 -77 689
-679 3222 -1285 5411 -682 2458 -1291 4253 -1760 5180 -288 571 -803 1358
-1152 1760 -254 293 -499 486 -661 521 -44 9 -65 7 -175 -20 -319 -77 -670
-220 -951 -386 -134 -79 -332 -229 -452 -342 -16 -14 -53 -44 -83 -67 -30 -22
-66 -51 -80 -62 -198 -167 -270 -232 -408 -368 -320 -314 -559 -609 -778 -956
-128 -204 -191 -337 -219 -465 -61 -276 -80 -610 -72 -1270 9 -724 53 -1494
153 -2628 14 -164 24 -303 21 -311 -6 -16 -310 -105 -512 -150 l-149 -33 -116
108 c-63 60 -160 143 -215 185 -97 74 -101 77 -122 142 -13 36 -23 72 -23 79
0 19 98 80 150 93 50 13 130 56 130 70 0 5 -16 2 -36 -6 l-36 -15 6 33 c11 63
105 914 120 1093 9 99 22 299 31 445 53 908 52 904 170 1490 31 151 71 366 90
478 42 242 73 369 124 506 43 113 120 271 182 372 32 54 39 71 31 88 -8 19
-12 16 -37 -34 -15 -30 -49 -92 -76 -137 -77 -128 -166 -320 -193 -418 -14
-49 -39 -169 -56 -265 -17 -96 -57 -290 -90 -430 -128 -558 -157 -785 -210
-1630 -31 -501 -48 -720 -80 -1040 -16 -162 -33 -347 -39 -410 -5 -63 -13
-123 -16 -132 -4 -10 -38 -27 -84 -43 -93 -31 -125 -60 -126 -113 0 -20 3 -49
7 -64 l8 -26 -47 14 c-25 8 -63 14 -83 14 -65 0 -92 -60 -48 -107 28 -30 19
-37 -32 -23 -53 14 -214 15 -303 0 -89 -14 -255 -50 -507 -110 -323 -76 -426
-96 -725 -139 -493 -71 -868 -115 -1310 -151 -137 -11 -338 -34 -445 -51 -338
-52 -418 -56 -626 -32 -210 25 -372 24 -428 -2 -50 -24 -73 -60 -117 -186 -42
-120 -69 -167 -102 -173 -12 -3 -33 -7 -47 -10 -201 -38 -252 -57 -293 -105
-22 -27 -29 -29 -55 -21 -132 37 -628 38 -876 0 -171 -26 -403 -84 -556 -140
-312 -114 -708 -355 -793 -485 -44 -65 -77 -130 -77 -150 0 -8 -2 -15 -5 -15
-2 0 -53 48 -112 108 -164 163 -282 221 -468 230 -184 8 -327 -48 -460 -182
-89 -90 -132 -157 -181 -279 l-33 -82 -93 -18 c-488 -92 -865 -200 -997 -284
-241 -154 -442 -534 -591 -1116 -18 -70 -34 -126 -35 -125 -2 2 -69 120 -150
263 -82 143 -149 262 -151 263 -2 3 -2090 -776 -2102 -783 -1 -1 64 -175 144
-386 80 -211 159 -419 175 -461 l28 -77 -52 20 c-183 74 -473 158 -698 203
-209 42 -603 95 -615 83 -3 -3 -1 -139 5 -304 31 -840 40 -1334 57 -3024 l7
-626 -119 -12 c-306 -30 -527 -43 -868 -48 l-369 -6 8 -521 c4 -307 11 -525
16 -531 7 -6 187 -10 502 -10 396 0 527 4 672 18 360 36 651 85 930 157 155
40 442 132 455 147 5 4 1 62 -8 128 -20 158 -23 792 -4 975 25 234 84 595 100
612 14 14 327 29 458 22 l130 -7 12 -266 c6 -146 10 -275 10 -286 -1 -11 2
-284 6 -606 l8 -586 -53 -6 c-30 -3 -166 -12 -303 -18 l-249 -13 7 -225 c4
-160 10 -228 19 -234 23 -16 521 0 664 22 380 58 623 158 872 358 l35 28 -41
-75 c-23 -41 -138 -255 -256 -475 -309 -576 -348 -645 -354 -645 -4 0 -75 36
-159 79 -166 87 -156 87 -193 13 -12 -23 -23 -42 -25 -42 -2 0 -34 14 -72 31
-125 57 -445 180 -638 245 -730 247 -1414 386 -2220 451 -389 31 -1061 23
-1476 -18 -1621 -159 -3153 -752 -4438 -1718 -177 -134 -435 -343 -550 -447
l-44 -39 -33 -185 c-49 -266 -98 -502 -161 -764 -60 -257 -63 -282 -34 -291
24 -8 14 -13 180 111 288 216 583 409 915 599 2144 1230 4754 1473 7129 665
186 -64 601 -222 613 -234 3 -2 -213 -424 -222 -434 -2 -2 -69 22 -150 53
-957 368 -2020 552 -3080 532 -1276 -25 -2444 -313 -3574 -882 -1815 -914
-3230 -2464 -3978 -4359 -525 -1330 -693 -2783 -487 -4221 211 -1476 831
-2880 1789 -4050 340 -416 786 -858 1209 -1200 1191 -961 2633 -1574 4151
-1764 381 -48 508 -55 1020 -56 499 0 611 5 967 45 3169 359 5876 2551 6893
5585 209 623 336 1233 401 1925 22 234 30 922 15 1187 -111 1899 -861 3681
-2141 5088 -308 338 -730 727 -1075 990 -49 38 -94 72 -98 75 -9 8 192 400
205 400 4 0 74 -53 155 -119 493 -395 980 -882 1364 -1362 920 -1152 1544
-2519 1793 -3928 14 -79 30 -149 34 -155 184 -240 350 -433 581 -674 257 -268
246 -268 275 13 31 306 39 528 33 962 -5 416 -15 582 -52 903 -152 1307 -603
2573 -1315 3695 -351 552 -739 1035 -1215 1510 -269 270 -629 590 -809 721
l-29 21 58 108 c49 93 56 110 43 119 -8 6 -101 56 -207 111 -105 55 -191 102
-191 105 0 3 49 98 108 210 60 113 115 217 123 232 l15 28 154 -88 c620 -354
1186 -805 1825 -1454 628 -637 1204 -1355 1770 -2206 105 -157 132 -192 151
-192 13 0 105 45 205 100 101 55 186 100 189 100 6 0 1219 -1937 2028 -3240
361 -582 449 -716 574 -878 480 -621 1056 -1083 1650 -1322 l107 -44 -49 -55
c-26 -31 -96 -110 -154 -176 -77 -88 -105 -127 -106 -147 0 -15 3 -29 8 -31 4
-3 79 -11 167 -17 88 -7 161 -14 163 -15 1 -1 -5 -44 -15 -96 -16 -85 -18
-168 -18 -854 l0 -760 28 -90 c63 -202 175 -368 325 -482 46 -35 87 -63 92
-63 5 0 21 22 35 50 14 27 38 65 55 83 l30 34 -40 28 c-49 34 -146 136 -190
200 -48 70 -107 202 -132 296 -21 82 -22 100 -25 734 -2 358 0 688 4 735 l8
85 51 5 52 5 6 -60 c3 -33 13 -145 21 -250 45 -556 71 -733 142 -950 78 -242
217 -406 465 -548 l47 -27 49 34 c60 43 159 91 224 108 37 9 53 19 59 36 28
74 122 142 171 123 24 -9 61 -48 71 -74 5 -12 164 142 260 252 35 40 51 51 59
43 12 -12 -48 -98 -182 -257 l-77 -92 76 -12 c263 -44 477 -171 517 -307 19
-68 15 -146 -11 -174 -51 -57 -199 -32 -508 84 -82 31 -91 32 -78 7 29 -54 93
-275 101 -348 9 -89 6 -115 -21 -154 -40 -57 -157 -78 -236 -42 -43 20 -143
84 -166 107 -8 9 -53 38 -99 66 -67 41 -84 47 -87 34 -4 -20 18 -112 64 -276
72 -253 53 -318 -92 -318 -78 0 -168 44 -291 143 -82 65 -259 167 -291 167
-12 0 -10 -28 15 -230 19 -154 18 -302 -1 -340 -44 -85 -144 -54 -191 59 -31
73 -67 319 -68 458 l-1 133 -41 0 c-24 0 -68 -12 -105 -29 -35 -16 -81 -36
-102 -45 l-38 -15 42 -38 c103 -93 234 -346 391 -753 72 -189 185 -527 224
-672 17 -65 34 -108 42 -108 52 0 628 144 873 219 457 139 714 240 1339 526
647 296 797 354 1295 500 479 140 612 182 980 305 365 122 571 215 700 312 68
52 70 55 68 95 -1 22 -15 85 -32 139 -16 55 -37 133 -46 174 -34 149 -107 354
-220 611 l-29 65 -171 3 c-93 1 -189 6 -212 12 -75 16 -330 125 -409 175 -139
86 -286 243 -405 434 l-59 92 114 53 c203 93 356 196 507 342 99 95 84 97 163
-21 47 -69 166 -306 363 -721 218 -457 288 -631 369 -916 52 -185 82 -269 94
-269 5 0 519 36 1141 80 623 44 1133 79 1134 78 1 -2 10 -32 19 -68 73 -266
218 -675 350 -983 514 -1200 1311 -2268 2316 -3107 1210 -1009 2696 -1655
4255 -1850 328 -40 508 -52 912 -57 424 -6 635 2 979 37 2271 231 4362 1411
5743 3240 999 1323 1565 2862 1662 4524 13 226 7 917 -10 1111 -129 1462 -569
2734 -1358 3928 -1125 1700 -2880 2945 -4858 3445 -1066 270 -2192 323 -3294
157 -431 -66 -920 -182 -1299 -309 -109 -37 -133 -42 -127 -28 12 28 18 99 11
126 -10 39 -61 91 -113 116 l-46 21 -158 -32 c-88 -18 -161 -30 -162 -28 -13
16 -76 163 -72 167 8 8 236 69 490 132 787 193 1697 330 2625 394 422 30 643
38 1245 46 617 9 664 12 806 50 24 7 69 12 101 11 108 -3 325 102 581 283 15
10 198 -74 651 -301 2287 -1144 3962 -2467 4991 -3941 114 -164 130 -183 153
-180 22 3 50 43 198 293 95 160 173 299 173 309 1 21 -36 93 -207 396 -656
1165 -1473 2398 -2212 3336 -187 237 -433 534 -442 534 -4 0 -8 -12 -9 -27 0
-16 -11 -64 -24 -108 l-24 -80 6 233 6 232 -64 0 c-78 1 -355 16 -463 26 l-78
7 6 631 c3 347 12 740 18 872 l12 242 135 7 c77 4 204 2 293 -4 l156 -11 1609
1203 c1376 1030 2102 1571 2888 2156 261 194 365 319 365 439 0 87 -39 136
-142 181 -86 37 -139 40 -363 25 -115 -7 -227 -14 -247 -14 l-38 0 0 4625 0
4625 83 0 c45 0 89 5 97 10 13 8 15 137 18 1042 1 568 0 1048 -3 1066 l-6 32
-2979 0 -2980 0 0 71 c0 119 37 109 -393 109 -277 0 -376 -3 -385 -12z
m-13865 -377 c69 -33 154 -88 223 -146 52 -43 226 -212 296 -288 64 -70 251
-306 351 -442 101 -139 365 -533 409 -610 6 -11 57 -96 114 -190 221 -366 336
-584 479 -910 46 -104 90 -203 97 -220 68 -156 280 -713 399 -1050 301 -854
710 -2173 1020 -3290 26 -93 57 -206 70 -250 147 -507 568 -2135 794 -3070
224 -926 438 -1933 482 -2259 24 -188 -5 -317 -89 -386 -81 -66 -181 -66 -382
3 -540 185 -1521 202 -3140 57 -483 -44 -919 -92 -1868 -205 -298 -36 -598
-68 -666 -72 -224 -11 -435 26 -596 105 -113 56 -234 179 -288 292 -48 101
-68 182 -77 305 -4 50 -40 340 -80 645 -133 1002 -309 2429 -301 2437 2 3 85
9 183 14 1106 56 1869 174 2230 345 170 81 332 224 428 379 48 77 115 222 153
330 11 33 43 109 71 168 29 59 72 158 97 220 24 61 48 119 53 127 34 63 143
508 230 947 189 944 227 1289 291 2608 11 231 25 499 30 595 40 754 11 1208
-106 1635 -172 625 -599 1108 -1029 1164 -239 30 -284 33 -368 22 -227 -30
-457 -160 -664 -375 -141 -145 -212 -251 -323 -482 -172 -355 -196 -432 -230
-726 -12 -101 -37 -275 -55 -388 -102 -616 -105 -652 -115 -1680 -5 -476 -14
-971 -20 -1100 -5 -129 -10 -289 -10 -355 0 -178 -3 -190 -54 -205 -130 -39
-178 -100 -146 -186 6 -15 9 -28 7 -30 -2 -2 -28 0 -57 6 -61 11 -124 -1 -134
-26 -11 -29 -6 -43 25 -79 l32 -36 -44 8 c-24 4 -87 7 -139 7 -105 -2 -210
-24 -469 -100 -107 -31 -156 -41 -161 -34 -4 7 -10 46 -13 88 -4 42 -22 264
-41 492 -133 1575 -170 2740 -106 3325 30 270 64 385 166 565 201 356 448 680
759 999 195 199 315 309 533 486 92 75 203 167 247 206 276 242 733 473 1170
592 215 59 242 60 332 18z m-121 -1051 c172 -44 344 -150 504 -310 41 -41 84
-86 95 -100 166 -204 287 -447 375 -755 131 -451 154 -930 90 -1810 -11 -148
-34 -486 -50 -750 -66 -1062 -121 -1524 -255 -2167 -73 -352 -164 -757 -191
-853 -29 -103 -110 -322 -155 -422 -17 -37 -37 -81 -44 -98 -7 -16 -24 -55
-38 -85 -91 -198 -107 -234 -107 -249 0 -19 -53 -108 -104 -175 -252 -331
-651 -459 -1761 -565 -394 -38 -861 -67 -1540 -97 -311 -13 -466 -15 -850 -8
-671 13 -1155 11 -1315 -4 -74 -8 -238 -31 -365 -52 -469 -79 -533 -68 -590
99 -36 107 -45 199 -43 471 1 190 -2 267 -15 342 -22 126 -57 234 -92 284 -15
21 -25 32 -22 23 72 -216 82 -300 79 -644 -2 -346 6 -433 47 -522 17 -34 27
-64 23 -67 -25 -15 -124 -36 -170 -36 -106 0 -145 37 -206 195 -61 160 -116
386 -185 765 -23 124 -59 298 -81 387 -22 88 -40 180 -40 202 0 55 20 101 58
133 29 24 210 90 260 95 39 3 86 37 109 79 12 22 29 80 38 129 23 132 39 149
172 176 51 11 89 10 220 -2 293 -26 355 -20 723 71 196 49 348 76 845 150 473
71 608 96 1015 187 349 77 489 114 705 183 300 97 378 113 530 114 128 1 132
0 197 -32 89 -44 166 -128 247 -274 218 -387 358 -573 435 -578 4 0 -14 24
-40 53 -128 140 -213 275 -355 562 -96 197 -116 228 -174 290 -112 118 -120
158 -28 136 118 -29 288 -143 677 -455 504 -404 838 -618 1045 -672 74 -18
133 -8 151 26 12 23 12 23 -28 9 -44 -15 -121 9 -252 78 -224 118 -745 482
-1043 730 -89 73 -214 169 -279 211 -104 69 -118 82 -138 127 -13 27 -25 65
-27 85 -5 33 -2 37 44 67 27 17 75 41 106 53 54 20 123 67 113 77 -2 2 -18 -3
-36 -12 -18 -9 -33 -15 -35 -13 -2 2 0 35 6 73 23 172 42 798 49 1610 8 937 3
854 85 1440 19 138 43 340 55 450 31 302 69 466 156 679 98 240 246 477 374
600 168 160 391 280 634 341 190 48 280 53 392 25z m-4171 -5585 c40 -19 117
-69 171 -112 132 -103 285 -235 279 -241 -9 -9 -330 -70 -336 -64 -4 4 -19 41
-34 82 -40 109 -71 166 -114 213 -51 56 -91 118 -91 139 0 28 44 22 125 -17z
m-254 -119 c115 -26 213 -112 283 -245 20 -39 35 -71 33 -71 -2 0 -65 -11
-138 -25 -207 -39 -461 -81 -728 -120 -134 -20 -338 -56 -453 -80 -335 -72
-358 -74 -683 -72 -319 2 -345 -2 -403 -56 -32 -30 -46 -68 -88 -219 -8 -31
-25 -71 -37 -89 -23 -34 -27 -36 -196 -81 -126 -33 -159 -56 -202 -138 -19
-37 -23 -61 -23 -127 0 -69 -3 -83 -15 -83 -9 0 -79 7 -156 15 -396 40 -1020
75 -1386 75 -270 1 -312 -4 -517 -61 -41 -11 -75 -19 -77 -17 -2 2 -18 83 -35
180 -35 191 -35 239 0 295 10 18 32 38 47 46 33 18 215 68 259 72 81 8 123 57
154 181 36 143 46 155 145 173 96 18 203 10 406 -30 100 -20 307 -6 519 34
279 53 234 48 1065 122 351 32 513 52 885 111 353 55 444 73 690 134 184 46
317 74 385 83 71 9 214 6 266 -7z m-5025 -907 c62 -7 117 -15 123 -18 8 -5 8
-24 0 -66 -8 -49 -6 -86 11 -200 11 -77 23 -160 26 -185 l6 -46 -88 -33 c-193
-72 -490 -237 -623 -346 -141 -115 -271 -272 -386 -467 -34 -56 -47 -69 -88
-86 -43 -19 -47 -19 -43 -4 38 133 -18 314 -131 424 -89 86 -146 108 -533 202
-124 30 -264 62 -313 72 -101 19 -101 19 -38 114 84 127 414 338 720 460 207
82 460 145 701 174 143 17 506 20 656 5z m969 -464 c99 -8 258 -15 353 -15
337 0 857 -46 1069 -95 26 -6 34 -41 129 -515 68 -345 105 -493 160 -651 19
-54 34 -102 34 -107 0 -14 -140 -43 -260 -53 -103 -8 -332 -19 -1045 -49 -247
-11 -334 -27 -438 -82 -140 -75 -292 -257 -446 -536 -61 -111 -66 -131 -10
-42 l41 64 14 -34 c19 -45 50 -73 179 -160 126 -86 305 -254 330 -310 13 -28
16 -56 13 -103 -3 -53 -9 -70 -36 -105 -86 -109 -193 -108 -436 3 -42 19 -104
41 -138 50 -239 60 -313 113 -353 254 -16 56 -41 203 -55 326 -27 246 -4 328
175 605 108 167 182 304 234 437 23 57 41 106 41 110 0 5 -31 -50 -69 -122
-73 -138 -120 -216 -270 -451 -171 -269 -191 -332 -172 -552 22 -258 66 -468
110 -530 38 -51 113 -87 259 -125 68 -18 123 -36 123 -42 0 -12 -84 -41 -148
-50 -70 -9 -276 13 -343 38 -137 50 -239 167 -280 321 -32 119 -43 251 -43
481 1 191 29 620 48 733 4 21 2 32 -6 32 -7 0 -9 -3 -6 -7 4 -3 3 -11 -3 -18
-29 -34 -74 -598 -74 -935 -1 -218 2 -264 17 -319 33 -115 90 -205 172 -268
25 -20 45 -39 45 -43 0 -16 -104 -33 -169 -27 -124 12 -277 112 -331 217 -116
228 -142 661 -69 1158 10 73 18 163 17 200 -1 40 -3 51 -5 27 -6 -81 -25 -204
-53 -355 -57 -308 -61 -472 -19 -765 24 -168 41 -233 80 -304 17 -29 29 -55
27 -57 -8 -7 -116 73 -150 111 -86 98 -114 197 -128 455 -6 102 -23 295 -38
430 -34 311 -36 543 -4 662 32 117 77 218 145 320 83 125 144 195 249 284 298
250 675 417 1128 499 151 28 176 28 405 10z m-4961 -689 c-217 -79 -441 -219
-617 -386 -122 -115 -108 -74 18 55 140 143 321 251 545 326 141 47 179 50 54
5z m2611 -632 c-19 -31 -35 -60 -37 -64 -3 -7 -318 -21 -318 -14 0 11 338 129
382 133 3 1 -9 -24 -27 -55z m-416 -69 c-11 -12 -58 -20 -164 -30 -137 -13
-167 -13 -154 0 5 5 266 42 309 44 22 1 23 -1 9 -14z m6986 -30 c540 -26 738
-28 1164 -11 222 9 405 15 406 14 1 -2 12 -91 24 -198 45 -392 202 -1630 276
-2180 42 -311 81 -620 86 -687 16 -198 62 -337 152 -455 l35 -46 3 -213 c4
-194 6 -217 25 -249 12 -22 29 -36 45 -39 13 -2 -122 -36 -301 -76 -179 -40
-381 -87 -449 -105 l-125 -31 -190 189 c-105 103 -396 389 -647 634 -384 376
-461 447 -490 452 -98 16 -654 42 -1084 51 -463 10 -1219 -15 -1795 -60 -1751
-137 -3602 -505 -5193 -1032 -158 -53 -289 -94 -291 -92 -2 2 -37 65 -79 139
l-76 135 89 369 c295 1219 528 1982 675 2212 49 76 153 184 232 240 189 136
462 197 757 171 l129 -12 33 -63 c121 -227 286 -363 497 -406 42 -9 92 -16
112 -16 21 0 65 -15 107 -36 59 -30 75 -34 91 -25 15 10 24 7 55 -20 49 -43
148 -88 210 -96 74 -8 133 4 196 42 l55 33 73 -26 c151 -53 375 -38 511 35
l52 29 130 -45 c214 -73 331 -62 405 40 38 52 70 139 70 187 -1 20 -9 61 -19
91 l-19 53 58 -6 c202 -23 408 95 499 287 47 98 61 161 61 270 0 144 -42 264
-128 374 l-40 50 191 7 c716 27 754 30 898 82 40 15 75 23 76 18 13 -39 50
-78 90 -96 60 -27 136 -20 253 21 l86 30 58 -29 c84 -43 171 -41 348 4 160 42
322 71 478 85 63 6 131 13 150 14 99 10 732 5 985 -8z m-8470 -37 c79 -119
244 -255 366 -299 38 -14 56 -25 51 -33 -4 -6 -33 -46 -64 -87 -295 -394 -596
-1171 -868 -2241 -29 -115 -56 -208 -59 -208 -3 1 -167 284 -363 629 l-357
629 29 209 c50 369 102 642 151 793 129 396 509 637 1025 649 l61 1 28 -42z
m1640 -27 c-6 -4 -59 -14 -119 -21 -309 -35 -713 -203 -905 -376 -208 -187
-515 -884 -902 -2044 -76 -228 -183 -566 -239 -750 -119 -392 -118 -391 -119
-367 -3 55 162 749 263 1107 185 660 443 1373 607 1680 150 278 369 510 590
620 140 71 156 74 759 150 30 4 59 8 65 9 6 0 6 -2 0 -8z m-3145 -1216 c49
-88 90 -162 90 -165 0 -5 -256 -90 -1614 -540 -285 -95 -522 -168 -526 -163
-12 13 -128 383 -121 387 30 18 2071 649 2078 642 2 -1 43 -74 93 -161z
m-2201 -715 c39 -101 67 -187 63 -191 -16 -14 -114 -41 -122 -33 -5 5 -40 92
-78 194 l-70 185 62 21 c33 12 64 19 68 15 4 -3 38 -89 77 -191z m34801 46
c245 -25 624 -66 843 -90 411 -46 447 -54 447 -95 0 -30 -53 -94 -118 -143
l-60 -45 -179 -7 c-769 -29 -1278 -101 -1718 -243 -178 -57 -271 -109 -490
-273 -519 -389 -1174 -1025 -2646 -2570 -713 -749 -755 -789 -922 -870 -101
-50 -160 -58 -222 -31 -89 39 -94 118 -16 278 21 43 61 110 89 148 64 90 3564
3678 3630 3722 138 90 404 214 547 254 100 28 271 20 815 -35z m-23325 -1226
c228 -11 557 -38 586 -48 9 -4 245 -225 524 -492 280 -267 542 -517 584 -556
l76 -71 -60 -17 c-697 -196 -1540 -495 -2240 -794 -720 -308 -1131 -518 -1765
-905 -515 -314 -670 -436 -867 -684 -274 -343 -432 -646 -479 -913 -13 -74
-15 -131 -11 -255 6 -171 27 -295 86 -495 16 -58 46 -168 66 -245 19 -77 38
-147 40 -155 3 -10 -30 -57 -85 -120 -590 -684 -1224 -1602 -1710 -2477 -73
-132 -102 -174 -124 -185 l-30 -14 -127 190 c-70 105 -149 223 -176 261 -27
39 -71 102 -98 140 -96 139 -349 477 -489 655 -360 458 -713 857 -1090 1233
-186 186 -216 220 -203 230 8 7 95 78 194 158 98 80 279 223 403 318 124 95
239 183 255 197 63 51 469 337 675 476 957 645 2095 1275 3232 1789 103 46
184 87 180 90 -4 3 -70 35 -147 69 -758 344 -1715 941 -2571 1606 -233 181
-444 354 -444 364 0 13 713 147 1300 245 1849 309 3458 454 4515 405z m8545
-301 c361 -24 614 -69 811 -145 54 -21 119 -37 162 -42 l72 -7 6 -215 c7 -231
4 -251 -43 -282 -40 -26 -86 -37 -242 -60 -122 -18 -193 -22 -371 -22 -310 1
-435 21 -890 139 -274 71 -489 118 -716 154 -346 57 -455 65 -824 66 -364 0
-406 -3 -975 -65 -195 -21 -389 -42 -430 -45 -41 -4 -462 -9 -935 -10 -700 -3
-884 -1 -989 11 -72 8 -149 12 -173 8 -35 -5 -48 -3 -64 12 -44 40 -56 82 -63
232 -4 78 -4 142 -1 142 4 0 24 -15 45 -32 106 -90 270 -156 460 -184 179 -26
338 -15 1050 70 1626 195 2465 268 3325 290 181 4 621 -4 785 -15z m-3835
-639 c562 -21 1151 -63 1424 -101 540 -75 927 -220 1224 -458 66 -53 77 -75
50 -102 -18 -18 -22 -18 -186 16 -181 37 -405 67 -637 86 -99 9 -407 12 -975
12 -918 -1 -985 -5 -1226 -64 -155 -38 -162 -43 -129 -69 48 -37 266 -139 490
-228 342 -137 461 -196 590 -292 79 -59 180 -160 180 -181 0 -26 -120 -130
-255 -221 -208 -140 -432 -238 -945 -413 -321 -110 -342 -119 -1000 -400 -789
-337 -1141 -479 -1538 -621 -368 -131 -1214 -423 -1297 -448 -304 -89 -506
-75 -769 52 -146 71 -263 149 -498 333 -192 152 -388 292 -396 285 -2 -3 47
-83 111 -178 176 -265 338 -566 323 -603 -16 -43 -178 -47 -406 -9 -324 53
-534 68 -622 44 -89 -25 -76 -99 38 -222 48 -52 50 -56 31 -82 -12 -16 -27
-18 -101 -17 -147 2 -255 24 -541 111 -347 106 -405 117 -424 83 -5 -10 -21
-79 -37 -153 -22 -109 -28 -162 -28 -275 -1 -134 0 -143 27 -197 32 -65 71
-99 178 -157 185 -100 408 -147 799 -171 681 -41 863 -74 984 -180 132 -116
116 -287 -119 -1249 -125 -516 -160 -697 -190 -978 -18 -164 -18 -163 -6 -163
14 0 121 134 183 230 198 305 313 631 463 1310 63 282 72 303 123 276 48 -25
140 -115 200 -194 121 -162 209 -369 327 -769 42 -142 121 -404 175 -583 181
-595 251 -833 325 -1105 82 -303 498 -1959 600 -2390 202 -855 342 -1572 410
-2110 15 -115 30 -217 33 -225 18 -43 24 232 24 1050 l-1 904 29 -45 c327
-526 557 -1150 577 -1564 13 -267 -54 -453 -228 -639 -270 -289 -710 -491
-1119 -513 l-105 -5 -84 183 c-116 252 -448 913 -694 1384 -1299 2482 -1515
2919 -2332 4720 -200 440 -440 969 -535 1175 -454 989 -640 1500 -752 2060
-31 157 -34 484 -4 600 111 439 521 984 927 1232 252 154 838 498 966 567 210
113 617 311 863 419 1114 489 2104 822 3370 1131 l325 79 225 12 c543 30 1117
37 1585 20z m-13685 -1388 c135 -44 276 -155 348 -275 109 -181 123 -435 33
-622 -82 -173 -236 -300 -426 -350 -82 -22 -242 -22 -325 0 -171 44 -328 168
-407 320 -55 106 -75 188 -76 306 0 121 14 181 69 297 79 164 230 287 414 337
81 22 284 15 370 -13z m13331 -2203 c625 -283 1194 -574 1505 -768 93 -59 412
-286 442 -315 12 -11 -7 -37 -110 -152 -68 -77 -225 -254 -348 -394 -170 -194
-230 -256 -251 -260 -31 -6 -134 -122 -934 -1055 -572 -668 -1827 -2153 -2170
-2567 l-39 -48 -63 168 c-35 92 -102 268 -148 392 -369 986 -536 1395 -1005
2470 -154 353 -196 444 -286 620 -84 166 -169 306 -309 505 -25 36 -43 70 -40
75 8 12 -65 91 -180 194 l-90 81 -6 140 c-4 77 -10 149 -13 160 -6 17 11 30
126 97 128 72 141 77 288 111 221 51 426 89 735 137 317 49 562 94 845 156
276 61 1225 290 1480 357 113 30 208 55 211 56 3 0 165 -71 360 -160z m-19431
101 c821 -45 1560 -174 2292 -399 342 -106 878 -310 878 -335 0 -6 -61 -105
-135 -221 l-134 -210 57 -27 c68 -32 63 -36 -8 -8 -28 11 -52 20 -54 20 -2 0
-19 -23 -36 -51 -24 -37 -37 -48 -49 -44 -77 32 -394 138 -556 186 -596 179
-1186 287 -1875 346 -259 22 -1037 25 -1290 5 -1443 -114 -2702 -511 -3900
-1230 -236 -141 -609 -392 -769 -516 -12 -9 -13 -7 -8 14 26 95 143 642 173
810 l37 205 50 45 c221 198 590 482 873 673 l171 115 203 67 c892 291 1928
489 2855 545 99 6 203 12 230 13 132 8 831 6 995 -3z m4576 -91 c107 -55 194
-102 194 -103 0 -2 -887 -1708 -1971 -3792 -1084 -2084 -1984 -3815 -2000
-3847 l-30 -58 -198 103 c-144 75 -197 107 -193 117 3 8 889 1714 1970 3790
1080 2077 1977 3802 1993 3834 16 31 32 57 35 57 3 0 93 -45 200 -101z m21724
-960 c184 -375 336 -685 338 -689 4 -9 -341 -81 -349 -72 -15 16 -630 1295
-627 1304 3 7 276 133 298 137 3 0 156 -306 340 -680z m1425 -559 c-80 -37
-1027 -252 -1360 -310 -233 -40 -512 -64 -491 -42 7 7 1823 360 1856 360 9 1
8 -3 -5 -8z m40 -239 c-71 -27 -137 -52 -146 -55 -11 -5 -19 1 -28 20 -6 15
-10 28 -9 29 5 5 262 53 288 53 14 1 -33 -21 -105 -47z m-938 -276 l63 -124
-38 -10 c-68 -18 -312 -64 -316 -60 -9 9 -127 251 -124 254 3 2 316 61 343 64
6 0 38 -55 72 -124z m-1037 67 c0 -51 17 -71 68 -83 45 -10 81 -6 272 31 58
11 111 20 118 20 11 0 144 -259 138 -267 -2 -3 -332 -73 -342 -73 -14 0 -44
-91 -44 -136 0 -60 11 -72 76 -89 l44 -11 -129 -87 c-1207 -812 -2183 -1932
-2823 -3237 -105 -214 -242 -533 -318 -737 -29 -79 -58 -143 -63 -143 -14 0
-620 161 -634 169 -9 5 9 69 62 227 276 829 704 1649 1272 2441 100 139 122
177 118 196 -5 20 16 52 121 183 460 574 926 981 1561 1362 149 90 481 272
496 272 4 0 7 -17 7 -38z m2155 -61 c-11 -9 -418 -112 -717 -181 -229 -52
-587 -124 -753 -150 -133 -21 -406 -39 -393 -25 5 5 1648 325 1868 364 2 1 0
-3 -5 -8z m-6456 -974 c664 -719 778 -838 798 -834 13 2 23 0 23 -4 0 -5 -4
-9 -10 -9 -25 0 -2 -31 116 -157 l126 -134 -139 -94 c-936 -635 -1505 -1566
-1652 -2705 -101 -775 -11 -1677 244 -2457 20 -58 34 -107 33 -109 -2 -1 -81
-6 -176 -10 l-173 -9 66 -80 c37 -44 114 -131 171 -192 89 -95 102 -113 82
-113 -13 0 -106 5 -208 11 l-185 11 -85 56 c-80 52 -238 168 -358 263 l-52 42
-344 -2 -344 -2 -32 68 c-17 37 -65 143 -105 234 -103 233 -130 285 -181 339
-62 66 -134 85 -216 56 l-36 -13 -78 161 c-159 333 -281 622 -540 1281 -94
242 -234 595 -309 785 -75 190 -149 381 -165 425 -16 44 -67 181 -114 305
l-84 225 42 50 c23 27 258 307 521 620 997 1185 1939 2292 2454 2881 l44 51
45 -51 c25 -28 394 -428 821 -889z m-15702 616 c451 -415 906 -919 1272 -1413
902 -1213 1456 -2600 1595 -3990 16 -153 39 -550 34 -556 -2 -1 -64 74 -138
167 l-135 170 -22 129 c-72 415 -217 957 -368 1380 -392 1093 -979 2078 -1762
2957 -143 161 -557 570 -730 722 l-152 133 48 76 c26 43 85 137 130 210 45 72
86 132 91 132 5 0 67 -53 137 -117z m21296 -168 c65 -130 66 -135 44 -140 -63
-14 -316 -65 -326 -65 -12 0 -145 269 -137 277 4 4 302 60 331 62 16 1 33 -25
88 -134z m1146 1 c-14 -14 -756 -191 -1074 -256 -380 -77 -732 -124 -771 -102
-12 7 46 21 202 51 121 23 532 102 914 176 660 127 739 141 729 131z m-16569
-452 c52 -68 100 -131 107 -140 10 -13 20 -11 84 22 l73 36 33 -38 c18 -22 46
-58 63 -81 l31 -42 -71 -36 c-38 -19 -70 -38 -70 -41 0 -8 219 -292 230 -299
6 -4 41 11 79 33 l68 39 58 -75 c65 -85 66 -77 -27 -130 -27 -15 -48 -30 -48
-35 0 -10 260 -347 267 -347 4 0 35 16 71 35 35 20 68 35 72 33 10 -4 123
-149 118 -152 -2 -2 -33 -19 -71 -40 -44 -24 -65 -41 -60 -49 6 -11 196 -261
212 -279 4 -4 37 10 75 32 38 22 70 40 72 40 9 0 113 -143 109 -150 -3 -5 -30
-23 -60 -40 -30 -17 -57 -35 -60 -41 -7 -10 224 -318 238 -319 5 0 21 9 37 20
l27 19 47 -100 c34 -74 44 -104 36 -114 -7 -9 0 -25 29 -61 22 -28 142 -257
279 -535 l241 -486 -9 -149 c-30 -500 87 -1027 326 -1469 25 -47 43 -85 39
-85 -3 0 -33 18 -65 40 -317 215 -699 615 -942 985 -140 213 -2341 3749 -2342
3762 -1 9 114 82 299 189 164 96 302 174 305 174 3 -1 48 -57 100 -126z
m15663 -40 c27 -53 47 -97 45 -99 -2 -1 -75 -16 -163 -34 -88 -18 -167 -34
-175 -37 -11 -3 -30 26 -67 100 l-52 105 52 10 c115 23 263 49 287 50 22 1 31
-11 73 -95z m1146 42 c-13 -13 -583 -152 -947 -230 -410 -89 -854 -153 -897
-128 -13 7 34 19 176 46 107 20 518 99 914 175 684 132 764 147 754 137z
m-33314 -245 c3 -5 2 -12 -3 -15 -5 -3 -9 1 -9 9 0 17 3 19 12 6z m-38 -26 c0
-8 -4 -12 -9 -9 -5 3 -6 10 -3 15 9 13 12 11 12 -6z m13 -31 c0 -8 -19 -13
-24 -6 -3 5 1 9 9 9 8 0 15 -2 15 -3z m-33 -29 c0 -8 -4 -12 -9 -9 -5 3 -6 10
-3 15 9 13 12 11 12 -6z m30643 -25 c-12 -23 -16 -24 -26 -8 -4 6 -3 8 3 5 6
-4 13 0 17 8 3 8 8 15 11 15 3 0 1 -9 -5 -20z m-30740 -41 c-6 -10 -15 -19
-21 -19 -6 0 -3 7 5 16 9 8 13 20 10 26 -4 7 -2 8 4 4 9 -5 9 -13 2 -27z
m5428 -3 c483 -50 897 -136 1327 -277 102 -33 185 -65 185 -70 0 -12 -204
-411 -230 -449 -18 -26 -148 -277 -338 -650 -63 -124 -131 -254 -152 -290 -21
-36 -84 -157 -140 -270 -102 -204 -135 -258 -157 -259 -6 -1 -23 -14 -36 -31
-14 -16 -28 -30 -32 -30 -3 0 -114 -91 -246 -202 -132 -112 -245 -203 -251
-203 -7 0 -58 81 -115 179 -57 99 -109 184 -116 188 -6 4 -8 8 -4 8 11 0 -33
72 -50 83 -7 5 -11 12 -8 16 2 5 -4 11 -15 14 -17 4 -18 2 -9 -14 12 -24 1
-25 -18 -1 -8 9 -12 12 -10 7 3 -7 -10 -9 -35 -7 -27 3 -43 0 -49 -9 -7 -11
-11 -10 -23 6 -16 20 -20 13 -17 -25 2 -22 44 -100 54 -100 4 0 5 -4 2 -10 -3
-5 -1 -10 4 -10 6 0 11 -5 11 -11 0 -12 168 -312 202 -361 16 -24 27 -28 66
-29 26 0 102 -8 170 -18 l123 -17 105 89 c58 49 107 87 109 85 2 -2 -36 -77
-84 -168 -158 -296 -601 -1156 -601 -1166 0 -5 45 -32 101 -59 55 -28 103 -53
106 -58 5 -8 -10 -37 -541 -1028 -395 -738 -398 -745 -399 -919 -1 -200 79
-333 258 -431 39 -21 173 -66 222 -74 21 -4 67 -16 103 -28 74 -24 189 -26
255 -5 77 25 162 80 231 147 140 138 109 85 883 1508 69 128 130 233 134 233
5 0 124 -61 265 -135 238 -126 258 -135 270 -118 7 10 58 106 114 213 55 107
168 326 251 485 82 160 154 296 159 302 8 9 18 2 42 -27 l31 -39 368 0 c287
-1 367 2 367 12 0 9 3 8 9 -2 5 -7 13 -11 17 -8 5 3 10 -6 10 -20 1 -13 10
-30 20 -37 9 -7 14 -18 10 -24 -4 -6 1 -28 10 -49 14 -34 17 -36 24 -18 4 11
6 23 4 26 -2 4 4 13 14 20 9 7 14 9 9 4 -4 -4 1 -17 10 -28 17 -19 17 -19 -4
-13 -18 6 -22 3 -20 -13 1 -22 16 -23 34 -1 9 12 8 19 -3 31 -8 9 -11 18 -8
22 4 3 -3 18 -15 33 -11 15 -21 34 -21 42 0 9 -7 24 -17 34 -9 10 -17 34 -17
53 -2 47 -14 54 -27 16 -8 -24 -16 -31 -28 -26 -9 4 -20 7 -26 8 -17 3 -25 21
-25 60 0 39 -20 53 -21 15 0 -22 -1 -22 -12 2 -6 14 -13 27 -15 30 -2 3 -152
7 -333 10 l-329 5 276 530 c151 292 306 586 343 655 70 129 156 294 339 650
121 237 312 604 317 608 10 10 367 -324 524 -491 722 -769 1228 -1677 1486
-2672 138 -530 198 -1002 197 -1565 0 -298 -9 -464 -43 -740 -212 -1766 -1200
-3371 -2691 -4368 -1544 -1033 -3471 -1311 -5251 -757 -320 99 -616 220 -932
380 -437 221 -813 469 -1200 791 -174 144 -592 564 -742 744 -430 518 -757
1060 -1000 1665 -222 550 -356 1105 -420 1735 -22 220 -25 839 -5 1060 58 647
195 1221 433 1812 77 193 272 590 379 773 674 1149 1677 2040 2886 2564 637
275 1314 439 2029 491 184 13 804 4 983 -14z m30750 0 c1038 -107 1970 -436
2807 -991 1804 -1196 2843 -3210 2764 -5360 -32 -893 -243 -1720 -640 -2515
-309 -618 -675 -1127 -1159 -1610 -691 -692 -1534 -1208 -2460 -1508 -621
-201 -1219 -294 -1890 -294 -484 0 -890 44 -1350 147 -2104 470 -3827 2039
-4498 4096 -142 434 -219 802 -277 1319 l-6 56 213 -18 c117 -9 242 -19 278
-21 36 -3 216 -17 401 -33 l336 -28 27 -163 c26 -158 82 -422 91 -431 7 -7
379 308 381 323 1 8 7 30 14 50 7 20 8 40 4 44 -5 5 -107 43 -227 86 -119 43
-216 79 -214 81 3 4 1385 -106 1582 -126 50 -5 124 -11 165 -14 41 -2 431 -34
865 -70 435 -36 1011 -84 1280 -106 270 -22 632 -52 806 -66 l315 -26 109 36
c366 123 617 330 697 576 14 45 22 102 25 182 5 108 4 119 -17 152 -36 60
-168 149 -358 245 -35 17 -65 39 -69 49 -11 34 -128 291 -264 579 -76 163
-139 298 -139 300 0 2 71 38 158 80 86 42 159 78 161 79 6 5 -33 90 -194 424
-79 162 -192 399 -253 525 -60 127 -165 343 -232 480 -68 138 -164 339 -215
447 l-93 197 103 180 c57 100 101 181 97 181 -4 0 -2 4 4 8 21 14 57 85 59
116 2 17 4 31 5 31 1 0 3 8 5 18 2 12 -3 17 -18 18 -21 0 -21 1 -2 9 11 5 31
9 45 9 24 0 24 0 6 -14 -11 -8 -17 -17 -14 -20 7 -8 32 23 35 44 1 10 -4 18
-12 18 -8 0 -12 -4 -9 -9 3 -4 -3 -8 -13 -9 -58 -2 -137 -10 -140 -13 -2 -2
-5 -13 -6 -24 -1 -13 -6 -18 -16 -14 -9 3 -12 1 -7 -6 4 -7 29 -12 57 -12 27
0 49 -4 49 -10 0 -5 -18 -10 -40 -10 -33 0 -40 -4 -40 -19 0 -14 -9 -20 -37
-24 -21 -2 -43 0 -50 5 -7 6 -14 4 -19 -3 -4 -8 -3 -9 4 -5 7 4 12 3 12 -3 0
-6 -8 -15 -18 -20 -22 -12 -67 -91 -53 -92 26 -3 30 -4 35 -10 4 -3 -8 -5 -26
-5 -18 1 -33 -3 -33 -9 -1 -5 -15 -32 -32 -59 l-32 -48 -54 113 c-86 182 -569
1184 -572 1187 -2 2 -72 -30 -156 -72 -84 -41 -154 -74 -155 -73 -1 1 -20 43
-42 93 l-39 91 126 22 c244 43 228 38 242 78 16 50 6 117 -24 156 -14 19 -50
47 -80 62 l-54 29 -173 -36 -172 -36 -48 102 c-26 55 -46 102 -45 103 1 2 21
5 46 8 24 3 104 17 178 30 74 14 138 25 142 25 4 0 13 25 20 55 21 95 -22 167
-125 210 -36 15 -45 14 -207 -20 -93 -19 -175 -35 -182 -35 -12 0 -97 174 -97
197 0 13 154 61 240 74 46 7 81 18 90 28 17 19 206 73 420 120 270 59 623 110
915 131 183 13 804 4 983 -14z m-36221 8 c-3 -4 -2 -15 3 -24 8 -16 6 -18 -16
-15 -19 2 -28 -4 -34 -21 -5 -13 -17 -24 -25 -24 -9 0 -13 -4 -10 -10 3 -5 -3
-15 -15 -22 -11 -7 -20 -16 -20 -20 0 -13 -171 -228 -181 -228 -5 0 -9 -6 -9
-13 0 -8 -11 -27 -25 -43 -14 -16 -28 -39 -31 -51 -4 -13 -11 -23 -18 -23 -18
-1 -91 -101 -78 -109 7 -4 5 -13 -5 -26 -15 -19 -15 -19 -9 5 l7 25 -21 -25
c-50 -58 -86 -104 -100 -128 -8 -14 -29 -39 -46 -56 -17 -17 -33 -36 -35 -43
-4 -11 -44 -60 -111 -136 -16 -17 -28 -37 -28 -43 0 -6 -13 -22 -28 -35 -15
-13 -36 -37 -47 -54 -10 -16 -31 -43 -47 -60 -15 -16 -31 -38 -34 -47 -3 -10
-10 -18 -15 -18 -5 0 -9 -6 -9 -14 0 -8 -9 -21 -21 -30 -15 -10 -19 -20 -14
-38 5 -18 4 -20 -4 -8 -9 12 -13 12 -19 2 -22 -34 -126 -152 -133 -152 -5 0
-9 -6 -9 -14 0 -7 -13 -30 -30 -51 -16 -21 -30 -44 -30 -51 0 -8 -6 -14 -12
-14 -7 0 -41 -37 -75 -83 -79 -104 -92 -121 -125 -160 -15 -18 -28 -38 -28
-45 0 -7 -7 -15 -15 -18 -8 -3 -24 -21 -35 -39 -11 -17 -30 -43 -43 -56 -44
-46 -107 -127 -107 -137 0 -6 -13 -22 -30 -35 -16 -14 -30 -30 -30 -35 0 -6
-18 -30 -40 -54 -22 -23 -42 -51 -45 -60 -4 -10 -10 -18 -15 -18 -5 0 -18 -16
-30 -35 -12 -19 -27 -32 -32 -29 -6 4 -8 2 -4 -4 3 -6 0 -16 -7 -24 -7 -7 -22
-26 -32 -43 -11 -16 -28 -36 -38 -44 -10 -7 -16 -20 -13 -28 3 -8 1 -11 -4 -8
-6 3 -10 1 -10 -6 0 -8 -4 -8 -13 -1 -10 8 -13 6 -13 -8 0 -10 4 -16 8 -14 4
3 5 -2 2 -10 -3 -8 -14 -18 -25 -21 -11 -4 -16 -11 -13 -17 4 -7 2 -8 -4 -4
-7 4 -12 2 -12 -5 0 -7 -3 -10 -6 -7 -5 6 102 228 115 238 3 3 7 10 8 16 4 20
183 335 274 482 336 539 718 1014 1180 1467 156 153 503 465 518 465 2 0 1 -3
-2 -6z m30753 2 c0 -2 -8 -10 -17 -17 -16 -13 -17 -12 -4 4 13 16 21 21 21 13z
m1840 -108 l49 -103 -182 -37 c-108 -22 -183 -33 -185 -27 -2 5 -25 54 -52
108 l-48 98 167 30 c91 17 174 31 184 32 14 1 31 -25 67 -101z m1125 31 c-55
-25 -840 -208 -1170 -273 -317 -62 -675 -104 -675 -79 0 8 1807 361 1850 362
10 0 8 -4 -5 -10z m-3121 -27 c3 -5 -1 -9 -9 -9 -8 0 -12 4 -9 9 3 4 7 8 9 8
2 0 6 -4 9 -8z m-24 -26 c0 -2 -7 -7 -16 -10 -8 -3 -12 -2 -9 4 6 10 25 14 25
6z m-20 -32 c0 -8 -19 -13 -24 -6 -3 5 1 9 9 9 8 0 15 -2 15 -3z m-78 -47
c-17 -18 -19 -26 -9 -36 10 -10 8 -11 -8 -6 -19 6 -19 6 -2 -8 16 -13 16 -15
2 -21 -9 -3 -13 -2 -10 4 13 21 -16 8 -45 -20 -35 -34 -39 -55 -10 -47 12 3
18 1 14 -5 -3 -5 -14 -8 -24 -5 -10 3 -27 -3 -38 -14 -11 -10 -22 -15 -25 -12
-8 7 -3 -20 6 -33 4 -7 1 -11 -6 -10 -6 0 -13 -3 -14 -8 -1 -5 -6 -12 -11 -15
-5 -3 -41 -46 -80 -96 -39 -49 -75 -94 -80 -100 -40 -49 -92 -124 -92 -133 0
-6 -8 -13 -18 -16 -11 -4 -25 -19 -33 -34 -8 -15 -25 -39 -39 -54 -53 -57 -60
-65 -60 -76 0 -5 -3 -12 -7 -14 -8 -3 -51 -53 -93 -108 -14 -18 -37 -47 -52
-65 -16 -18 -28 -37 -28 -41 0 -5 -15 -23 -33 -40 -18 -16 -36 -37 -40 -45
-14 -29 -33 -53 -69 -87 -21 -19 -38 -40 -38 -48 0 -7 -18 -32 -40 -55 -22
-23 -40 -46 -40 -50 0 -4 -13 -21 -30 -39 -16 -18 -30 -35 -30 -37 0 -3 -24
-36 -53 -72 -29 -36 -66 -84 -82 -106 -16 -22 -39 -51 -51 -64 -12 -13 -28
-35 -36 -49 -7 -15 -26 -39 -43 -55 -16 -16 -30 -32 -30 -35 0 -4 -13 -20 -28
-37 -50 -54 -57 -62 -57 -69 0 -4 -13 -21 -30 -39 -16 -18 -30 -36 -30 -41 0
-6 -14 -24 -30 -40 -17 -17 -53 -60 -81 -96 -28 -36 -55 -70 -62 -75 -15 -13
-36 -45 -43 -67 -4 -10 -10 -18 -14 -18 -4 0 -35 -36 -69 -80 -34 -44 -65 -80
-69 -80 -4 0 -12 -10 -17 -22 -6 -12 -16 -24 -24 -26 -8 -3 -11 0 -7 7 10 16
0 13 -14 -5 -8 -8 -9 -14 -4 -12 12 4 12 -12 0 -45 -8 -20 -16 -27 -28 -23
-10 2 -21 -1 -25 -6 -3 -6 -1 -8 4 -5 6 4 13 -2 16 -12 3 -13 0 -18 -8 -15 -7
3 -16 0 -20 -5 -3 -6 -11 -9 -16 -6 -15 10 135 296 309 585 428 714 982 1372
1608 1908 71 60 131 108 133 106 3 -2 -5 -14 -17 -27z m2351 -373 c32 -64 56
-118 53 -121 -6 -6 -322 -73 -345 -73 -13 0 -34 35 -75 121 -32 66 -57 122
-55 123 4 4 325 63 349 65 10 1 36 -40 73 -115z m1162 17 c-9 -7 -469 -123
-700 -176 -350 -80 -696 -146 -895 -170 -132 -16 -268 -20 -256 -7 6 5 1801
356 1851 361 6 1 6 -2 0 -8z m-17903 -533 c188 -331 205 -364 192 -382 -12
-17 -11 -22 1 -37 14 -14 14 -18 0 -29 -8 -7 -15 -9 -15 -4 0 5 -4 2 -10 -6
-5 -8 -12 -11 -16 -7 -4 4 1 13 11 21 12 8 14 15 7 20 -14 8 -34 -28 -26 -47
3 -8 1 -18 -5 -22 -6 -3 -11 -17 -11 -31 0 -17 -5 -24 -20 -24 -11 0 -20 5
-20 11 0 5 -5 7 -11 3 -6 -3 -7 -9 -2 -13 5 -3 9 -19 10 -36 1 -24 0 -26 -6
-10 -5 11 -7 23 -4 28 2 4 -2 7 -9 7 -7 0 -119 179 -249 398 -181 304 -233
400 -225 409 14 16 177 112 191 112 6 1 103 -162 217 -361z m16981 26 l56
-111 -185 -38 c-102 -21 -186 -36 -187 -34 -25 43 -107 223 -103 226 3 4 358
71 362 69 1 -1 27 -51 57 -112z m1132 27 c-11 -10 -463 -124 -755 -190 -224
-50 -558 -116 -719 -142 -135 -21 -391 -37 -378 -24 5 6 1104 222 1857 364 2
1 0 -3 -5 -8z m-1662 -131 c54 -116 55 -120 34 -125 -26 -6 -268 -55 -273 -55
-8 0 -44 -115 -44 -140 0 -16 10 -41 23 -55 32 -38 106 -43 243 -17 60 12 126
24 147 28 l37 6 95 -198 c53 -110 109 -224 125 -255 16 -31 26 -60 22 -64 -7
-7 136 59 240 111 36 17 61 24 66 19 5 -6 390 -802 857 -1770 466 -968 851
-1764 856 -1769 5 -5 46 8 101 34 51 23 99 44 106 47 8 4 66 -105 172 -322 88
-180 159 -329 158 -330 -2 -1 -25 -13 -51 -26 -101 -49 -162 -149 -161 -264 1
-84 20 -130 77 -192 86 -94 221 -121 335 -68 30 14 56 25 58 25 9 0 65 -123
59 -128 -4 -4 -42 -9 -86 -11 -133 -6 -255 46 -372 157 -87 83 -132 167 -474
879 l-54 113 -82 -39 c-148 -70 -180 -82 -188 -74 -5 5 -386 791 -847 1748
-461 957 -846 1754 -856 1772 -16 32 -16 32 11 47 16 8 24 15 20 16 -10 0
-369 -169 -380 -179 -4 -4 46 -117 112 -252 65 -134 133 -278 151 -319 18 -41
107 -226 198 -410 90 -184 206 -423 257 -530 51 -107 217 -451 369 -765 152
-313 275 -572 274 -576 -2 -4 -66 13 -143 37 -77 25 -185 58 -240 75 -55 17
-129 39 -165 50 -36 11 -76 22 -89 25 -14 3 -28 7 -32 10 -4 2 -76 25 -161 50
-84 25 -216 65 -293 88 -77 24 -183 56 -235 70 -52 15 -104 31 -115 36 -22 10
-216 68 -249 74 -12 2 -264 75 -561 161 -297 86 -589 170 -650 186 -60 17
-159 45 -220 64 -60 18 -153 45 -205 59 -52 14 -194 53 -315 87 -121 34 -239
66 -263 71 -51 12 -55 -7 44 225 303 710 728 1348 1264 1897 235 240 456 434
723 635 l137 103 68 4 c37 2 110 12 162 23 154 31 138 39 203 -99z m801 -448
l94 -188 -164 -79 c-90 -43 -167 -75 -170 -72 -13 12 -222 452 -218 456 3 4
293 60 356 70 5 0 50 -84 102 -187z m-17019 88 c3 -5 1 -10 -4 -10 -6 0 -11 5
-11 10 0 6 2 10 4 10 3 0 8 -4 11 -10z m-63 -72 c-7 -7 -12 -8 -12 -2 0 14 12
26 19 19 2 -3 -1 -11 -7 -17z m13039 -145 c-12 -20 -14 -14 -5 12 4 9 9 14 11
11 3 -2 0 -13 -6 -23z m6076 -529 c-3 -3 -12 -4 -19 -1 -8 3 -5 6 6 6 11 1 17
-2 13 -5z m32 -35 c-15 -9 -32 -2 -24 11 3 5 13 6 21 3 12 -4 13 -8 3 -14z
m-30264 -49 c-3 -5 -25 -9 -48 -8 l-42 1 45 7 c25 4 46 8 48 8 2 1 0 -2 -3 -8z
m-135 -6 c0 -8 -19 -13 -24 -6 -3 5 1 9 9 9 8 0 15 -2 15 -3z m-6909 -97 c-10
-9 -11 -8 -5 6 3 10 9 15 12 12 3 -3 0 -11 -7 -18z m37239 3 c0 -5 -2 -10 -4
-10 -3 0 -8 5 -11 10 -3 6 -1 10 4 10 6 0 11 -4 11 -10z m-6886 -329 c3 -5 -1
-12 -10 -15 -9 -3 -12 -11 -8 -18 5 -10 4 -10 -5 -2 -6 6 -9 18 -5 27 7 19 20
22 28 8z m33 -26 c0 -8 -3 -13 -5 -10 -3 3 -10 0 -17 -5 -8 -7 -12 -5 -12 5 0
8 4 12 8 9 4 -2 10 0 14 6 9 14 12 13 12 -5z m-98 -126 c-15 -9 -32 -2 -24 11
3 5 13 6 21 3 12 -4 13 -8 3 -14z m-30619 -63 c0 -2 -8 -10 -17 -17 -16 -13
-17 -12 -4 4 13 16 21 21 21 13z m30557 -61 c0 -8 -4 -12 -9 -9 -5 3 -6 10 -3
15 9 13 12 11 12 -6z m612 -801 c850 -244 1805 -518 2121 -610 316 -91 703
-203 860 -248 l285 -82 3 -177 c3 -170 2 -177 -16 -177 -11 0 -139 24 -284 54
-971 201 -1287 266 -1317 271 -19 3 -37 7 -40 9 -3 2 -26 7 -51 10 -64 8
-3269 671 -3274 677 -5 4 109 685 120 717 2 9 11 11 25 7 12 -4 718 -207 1568
-451z m-8746 -1366 c19 -35 126 -243 237 -463 111 -220 213 -419 226 -441 l24
-41 -522 -8 c-385 -5 -568 -4 -693 5 -93 7 -172 14 -173 16 -2 1 106 128 240
281 134 153 328 376 431 496 104 119 190 217 192 217 2 0 19 -28 38 -62z
m3852 -277 c85 -40 136 -117 215 -327 29 -77 97 -230 151 -342 l100 -203 -28
-37 c-16 -20 -35 -50 -43 -65 -32 -63 -275 -244 -425 -317 -155 -74 -535 -212
-815 -294 -239 -70 -405 -111 -655 -161 -384 -77 -643 -150 -839 -236 -50 -23
-127 -56 -171 -75 -178 -75 -255 -32 -366 203 -33 68 -84 167 -115 219 -76
129 -106 207 -108 274 -2 104 41 134 270 188 198 47 916 299 1304 458 333 136
552 236 898 411 217 110 314 169 374 227 48 47 141 96 182 96 17 0 49 -9 71
-19z"/>
<path d="M18855 18054 c30 -129 79 -242 166 -386 107 -177 362 -529 553 -763
225 -277 231 -281 394 -278 57 0 108 5 114 11 11 11 -85 142 -103 142 -6 0
-24 -7 -40 -16 -17 -8 -32 -14 -33 -12 -2 2 -36 46 -78 98 -41 52 -276 354
-523 670 -246 316 -452 579 -456 584 -4 5 -2 -18 6 -50z"/>
<path d="M18404 17805 c38 -154 60 -214 123 -339 95 -188 400 -619 702 -991
208 -257 229 -271 401 -268 52 1 105 5 117 10 24 9 25 8 -80 137 -18 21 -36
46 -41 55 -5 9 -12 18 -16 21 -3 3 -16 20 -29 38 l-23 33 -41 -24 -42 -24
-512 656 c-574 735 -566 724 -559 696z"/>
<path d="M17890 17548 c-1 -29 49 -197 80 -270 81 -187 257 -456 548 -838 256
-336 433 -544 485 -569 64 -31 178 -44 265 -30 39 6 72 14 72 16 0 2 -13 21
-30 41 -29 36 -96 122 -163 209 -37 48 -43 50 -77 23 -14 -11 -30 -20 -37 -20
-7 0 -42 39 -80 88 -73 94 -646 827 -827 1057 -60 77 -130 167 -155 199 -67
86 -80 102 -81 94z"/>
<path d="M17393 17283 c8 -145 40 -253 131 -438 103 -210 300 -501 622 -922
168 -218 399 -494 432 -515 55 -34 150 -51 257 -45 138 8 142 10 105 55 -17
21 -67 84 -111 142 -44 58 -88 114 -97 125 -25 31 -220 279 -282 359 -68 89
-201 260 -238 306 -93 116 -784 1003 -794 1020 -25 40 -31 20 -25 -87z"/>
<path d="M9170 12944 c-9 -10 -23 -13 -44 -9 -23 4 -26 3 -11 -4 13 -6 -3 -7
-49 -5 -68 3 -68 3 -51 -16 10 -11 15 -20 10 -20 -4 0 -2 -6 4 -14 12 -14 40
-14 60 -1 5 3 12 1 16 -5 3 -5 26 -10 51 -10 37 0 44 3 44 20 0 11 5 20 11 20
5 0 7 5 4 10 -4 7 -12 7 -25 0 -26 -14 -30 -13 -30 8 0 15 2 15 11 2 9 -13 10
-12 5 2 -6 20 10 34 17 16 4 -9 6 -10 6 -1 2 19 -16 24 -29 7z m-110 -28 c0
-9 -30 -14 -35 -6 -4 6 3 10 14 10 12 0 21 -2 21 -4z m42 -13 c-12 -2 -20 -8
-17 -13 3 -4 -2 -10 -10 -14 -9 -3 -15 0 -15 8 0 16 16 25 45 24 17 -1 16 -1
-3 -5z"/>
<path d="M9215 12880 c3 -5 8 -10 11 -10 2 0 4 5 4 10 0 6 -5 10 -11 10 -5 0
-7 -4 -4 -10z"/>
<path d="M8790 12860 c-8 -5 -5 -9 8 -12 11 -3 25 -1 32 6 8 8 9 6 4 -7 -4
-11 -13 -16 -21 -13 -8 4 -32 9 -54 12 -29 5 -39 3 -39 -7 0 -11 -2 -11 -10 1
-8 13 -10 12 -10 -3 0 -10 -6 -17 -12 -16 -30 4 -46 -2 -51 -18 -4 -10 -14
-29 -24 -43 -14 -18 -14 -22 -3 -16 8 4 6 0 -5 -9 -20 -17 -19 -17 8 -13 22 4
27 2 26 -16 0 -11 -3 -15 -6 -8 -8 19 -44 15 -41 -5 2 -12 -3 -17 -13 -15 -14
2 -34 -26 -37 -51 -1 -4 -8 -15 -17 -24 -9 -8 -14 -22 -11 -29 3 -7 0 -16 -6
-20 -7 -4 -8 -3 -4 4 4 7 5 12 2 12 -2 0 -37 -57 -76 -126 l-72 -125 -22 20
c-16 15 -25 17 -38 10 -14 -8 -16 -7 -12 6 4 8 1 22 -6 31 -17 19 -76 61 -67
47 4 -6 -1 -10 -11 -10 -36 0 -42 -4 -42 -22 0 -15 -10 -21 -40 -26 -26 -4
-40 -12 -40 -22 0 -12 -3 -13 -14 -3 -20 16 -9 40 19 40 23 0 40 15 40 35 0 6
16 10 36 9 32 0 35 2 26 17 -8 12 -16 15 -27 9 -12 -6 -17 -5 -17 5 0 8 4 12
9 9 4 -3 8 -1 8 4 0 17 -28 21 -40 6 -10 -11 -10 -17 -1 -28 10 -12 8 -17 -7
-25 -25 -13 -34 -4 -21 22 6 10 7 17 2 15 -46 -25 -106 -47 -113 -43 -6 4 -10
1 -10 -4 0 -6 5 -11 11 -11 5 0 7 -5 3 -12 -4 -6 -3 -8 4 -4 6 3 13 2 17 -4 4
-6 11 -7 17 -4 8 5 9 1 5 -10 -4 -10 -3 -15 3 -11 6 3 10 -1 10 -9 0 -9 4 -15
8 -13 4 1 25 -15 46 -36 32 -33 40 -36 54 -25 15 11 15 11 4 -3 -11 -15 -7
-21 25 -46 38 -29 39 -29 93 -16 30 7 104 22 164 33 60 11 110 21 111 22 37
54 254 452 249 459 -3 5 0 8 8 7 8 -2 12 5 10 18 -2 12 9 34 25 51 37 40 36
58 -4 59 -17 1 -37 -2 -43 -6z m42 -40 c-13 -10 -23 -23 -24 -27 -2 -25 -14
-33 -49 -33 -21 0 -39 -4 -39 -10 0 -5 8 -10 17 -10 14 0 15 -2 4 -12 -11 -10
-14 -10 -18 0 -3 7 -23 12 -49 12 -28 0 -43 4 -39 10 3 6 1 10 -5 10 -6 0 -8
5 -4 12 6 9 9 9 12 0 4 -14 82 -16 82 -3 0 6 19 11 43 13 44 3 58 25 27 41 -9
4 -4 5 12 2 15 -3 30 -1 33 5 3 5 9 10 13 10 4 -1 -3 -9 -16 -20z m-699 -345
c-3 -9 -8 -14 -10 -11 -3 3 -2 9 2 15 9 16 15 13 8 -4z m-104 -72 c-6 -7 -15
-10 -20 -7 -13 8 -3 21 15 21 12 0 13 -4 5 -14z m45 5 c-3 -4 -9 -8 -15 -8 -5
0 -9 4 -9 8 0 5 7 9 15 9 8 0 12 -4 9 -9z"/>
<path d="M7454 12208 c-22 -18 -43 -39 -47 -45 -4 -7 -17 -13 -27 -13 -28 0
-53 -39 -37 -59 10 -12 9 -13 -2 -6 -11 6 -13 4 -8 -9 4 -10 7 -26 7 -37 0
-10 5 -19 10 -19 6 0 8 11 4 26 -5 19 -3 25 4 20 6 -4 28 0 48 9 43 18 44 18
44 4 0 -6 -18 -18 -40 -26 -25 -10 -39 -21 -36 -29 5 -14 -15 -24 -50 -24 -16
0 -24 6 -24 17 0 14 -2 15 -12 4 -10 -11 -10 -14 0 -18 6 -3 12 -18 12 -34 0
-30 -14 -39 -24 -16 -3 6 -3 1 0 -12 5 -17 3 -21 -6 -16 -9 6 -12 1 -8 -16 3
-19 0 -25 -14 -25 -10 0 -18 4 -18 9 0 5 -7 7 -15 3 -8 -3 -15 -1 -15 3 0 15
-58 30 -94 24 -26 -4 -44 0 -68 17 -18 12 -24 19 -13 15 13 -4 17 -3 10 4 -17
16 -48 17 -52 1 -4 -13 -3 -13 6 0 8 11 11 11 11 2 0 -7 -8 -16 -17 -19 -19
-7 -83 -68 -83 -78 0 -4 10 -4 23 -1 12 3 16 3 9 0 -6 -3 -10 -9 -7 -14 7 -12
56 14 85 45 32 34 50 32 50 -5 0 -31 -20 -43 -20 -12 -1 15 -2 15 -16 -3 -8
-11 -10 -21 -5 -23 5 -2 1 -12 -10 -23 -11 -11 -17 -25 -13 -31 5 -7 3 -8 -6
-3 -8 5 -11 4 -6 -3 6 -11 64 -28 80 -23 5 1 16 -4 25 -12 36 -31 52 -28 130
20 42 26 78 51 79 55 2 4 10 8 18 8 8 0 14 5 14 10 0 6 7 10 15 10 19 0 72 32
73 45 0 5 6 11 13 14 7 2 9 -1 4 -9 -5 -9 -4 -11 4 -6 6 4 9 16 6 27 -4 10 -2
19 4 19 6 0 9 13 7 30 -2 18 1 27 7 23 6 -3 8 8 5 30 -2 20 0 33 4 31 4 -3 8
0 8 5 0 6 -5 11 -11 11 -5 0 -7 5 -3 12 4 6 3 9 -2 6 -5 -3 -18 -2 -29 3 -18
7 -18 8 -2 8 16 1 18 7 13 44 -3 24 -2 36 3 29 4 -8 12 -13 17 -12 5 1 10 -4
13 -11 2 -7 -1 -9 -9 -4 -9 5 -11 4 -6 -3 10 -17 16 -15 25 11 5 14 4 25 -2
29 -7 4 -6 12 3 22 25 31 2 27 -36 -6z m26 8 c0 -2 -8 -10 -17 -17 -16 -13
-17 -12 -4 4 13 16 21 21 21 13z m-87 -113 c-7 -2 -19 -2 -25 0 -7 3 -2 5 12
5 14 0 19 -2 13 -5z m-436 -225 c-3 -8 -6 -5 -6 6 -1 11 2 17 5 13 3 -3 4 -12
1 -19z"/>
<path d="M7310 12111 c0 -6 4 -12 8 -15 5 -3 9 1 9 9 0 8 -4 15 -9 15 -4 0 -8
-4 -8 -9z"/>
<path d="M7290 12086 c0 -2 7 -7 16 -10 8 -3 12 -2 9 4 -6 10 -25 14 -25 6z"/>
<path d="M7293 12055 c0 -7 6 -11 14 -8 7 3 13 6 13 8 0 2 -6 5 -13 8 -8 3
-14 -1 -14 -8z"/>
<path d="M7055 11950 c-3 -5 -1 -10 4 -10 6 0 11 5 11 10 0 6 -2 10 -4 10 -3
0 -8 -4 -11 -10z"/>
<path d="M6869 11843 c6 -13 16 -23 22 -23 6 0 7 5 4 10 -3 6 1 10 9 10 10 0
13 -6 9 -17 -4 -10 -2 -14 5 -9 6 3 13 2 16 -2 9 -14 54 -2 61 17 5 13 4 14
-6 4 -18 -18 -34 -16 -19 2 7 9 8 15 2 15 -5 0 -13 -7 -16 -16 -6 -15 -8 -15
-26 1 -11 10 -26 15 -33 12 -8 -3 -20 0 -27 6 -10 10 -10 7 -1 -10z"/>
<path d="M12453 11233 c9 -2 25 -2 35 0 9 3 1 5 -18 5 -19 0 -27 -2 -17 -5z"/>
<path d="M6507 11209 c-4 -14 -10 -18 -19 -13 -10 6 -10 4 1 -9 13 -17 36 -14
26 4 -4 5 1 12 9 15 9 3 13 10 10 15 -9 15 -21 10 -27 -12z"/>
<path d="M12430 11211 c0 -7 15 -30 47 -71 8 -9 23 26 23 53 0 24 -3 27 -35
27 -19 0 -35 -4 -35 -9z"/>
<path d="M6324 11073 c-18 -18 -17 -18 2 -49 19 -29 13 -42 -9 -20 -14 14 -17
12 -37 -22 -22 -37 -22 -37 -1 -18 12 11 21 16 21 11 0 -4 8 -1 18 6 15 13 16
12 3 -3 -7 -10 -17 -15 -22 -12 -9 5 -13 -9 -10 -34 2 -10 -2 -11 -18 -3 -25
14 -31 14 -31 1 0 -5 3 -9 8 -8 4 0 15 -2 26 -7 21 -9 42 15 23 27 -9 6 -9 8
1 8 21 0 52 43 46 62 -4 13 -1 16 9 12 8 -3 18 -1 22 5 3 6 2 11 -3 11 -5 0
-8 11 -7 23 3 27 -19 32 -41 10z m33 -22 c0 -10 -6 -18 -13 -18 -9 0 -12 28
-5 45 4 11 19 -12 18 -27z"/>
<path d="M12443 10985 c-7 -8 -13 -17 -13 -21 0 -3 -9 -19 -21 -35 -11 -16
-17 -29 -12 -29 4 0 4 -4 -2 -8 -12 -8 -4 5 -153 -251 l-119 -204 45 -101 c25
-55 64 -153 86 -216 l41 -115 90 -32 c50 -18 97 -35 105 -36 8 -2 33 -11 55
-21 38 -16 40 -16 68 4 15 12 35 19 43 16 11 -4 14 5 16 42 l1 47 4 -45 c4
-39 1 -48 -24 -68 -15 -13 -21 -22 -13 -20 8 2 18 8 22 13 5 6 8 3 8 -7 0 -12
5 -15 18 -11 15 6 16 5 2 -13 -8 -10 -10 -16 -6 -12 5 4 14 4 20 -2 8 -6 12
-3 13 11 1 10 -2 19 -8 19 -5 0 -9 8 -9 18 0 14 -2 15 -10 2 -5 -8 -10 -10
-10 -5 0 6 5 16 11 22 13 13 8 129 -6 126 -5 -1 -14 2 -20 6 -13 10 -56 7 -76
-4 -7 -4 -11 -5 -7 0 18 19 -24 56 -77 69 -5 2 -18 6 -27 11 -10 4 -29 8 -42
9 -13 0 -22 4 -20 7 2 4 -38 21 -89 39 -50 18 -96 36 -100 40 -5 4 50 108 121
231 87 150 127 228 121 235 -6 8 -4 14 6 18 11 4 14 2 9 -7 -5 -8 -4 -9 3 -2
18 18 64 105 56 105 -4 0 -2 4 6 9 11 7 10 13 -4 35 -10 14 -22 26 -27 26 -6
0 -7 7 -4 16 3 8 -1 32 -10 52 -11 28 -17 33 -24 22 -5 -8 -6 -18 -3 -24 3 -5
1 -6 -5 -2 -6 3 -9 18 -6 31 5 28 -4 32 -23 10z m34 -881 c-3 -3 -12 -4 -19
-1 -8 3 -5 6 6 6 11 1 17 -2 13 -5z m204 -58 c8 5 9 3 5 -5 -5 -7 -13 -10 -20
-8 -22 9 -45 -19 -48 -59 -4 -52 -22 -50 -26 2 -3 39 -1 42 28 53 22 7 29 15
24 23 -6 10 -4 10 9 0 9 -8 22 -10 28 -6z m-76 -6 c-3 -5 -12 -10 -18 -10 -7
0 -6 4 3 10 19 12 23 12 15 0z"/>
<path d="M12560 10871 c0 -6 4 -12 8 -15 5 -3 9 1 9 9 0 8 -4 15 -9 15 -4 0
-8 -4 -8 -9z"/>
<path d="M12705 9930 c-3 -5 -1 -10 4 -10 6 0 11 5 11 10 0 6 -2 10 -4 10 -3
0 -8 -4 -11 -10z"/>
<path d="M12879 9633 c-2 -24 -2 -25 -6 -5 -2 12 -9 20 -14 16 -5 -3 -6 -10
-3 -16 4 -6 2 -8 -4 -4 -6 3 -13 2 -17 -4 -3 -5 5 -14 19 -20 30 -11 32 -16
10 -24 -8 -3 -13 -2 -10 3 3 5 0 11 -7 14 -15 6 -41 -12 -44 -31 -4 -17 15
-15 19 3 2 10 8 12 17 6 17 -11 16 -108 -1 -128 -6 -8 -8 -16 -4 -20 3 -3 6
-1 6 5 0 7 5 12 11 12 5 0 8 -4 5 -9 -9 -13 22 -7 37 8 17 17 17 93 -1 86 -7
-2 -11 -1 -8 4 3 5 -1 12 -10 15 -8 3 -12 10 -9 16 9 15 25 12 25 -5 0 -8 5
-15 11 -15 6 0 8 8 5 18 -3 9 -6 34 -8 55 -3 45 -17 60 -19 20z m17 -154 c1
-19 -1 -26 -6 -19 -4 7 -6 20 -5 29 7 32 10 29 11 -10z m-16 -29 c0 -5 -2 -10
-4 -10 -3 0 -8 5 -11 10 -3 6 -1 10 4 10 6 0 11 -4 11 -10z"/>
<path d="M12746 9554 c-28 -25 -58 -50 -68 -55 -10 -6 -16 -14 -13 -20 4 -5 2
-8 -4 -7 -5 2 -58 -37 -117 -86 l-107 -89 7 -150 c3 -83 6 -187 6 -233 l0 -82
78 -62 c42 -34 86 -69 97 -79 36 -30 47 -22 46 32 0 9 6 17 14 17 9 0 14 18
17 61 3 52 0 62 -17 71 -10 6 -28 20 -38 32 -10 12 -15 15 -12 8 6 -11 3 -12
-14 -3 -11 7 -21 14 -21 17 0 3 5 2 10 -1 31 -19 0 11 -70 70 -44 37 -80 70
-80 75 0 4 45 45 100 90 55 46 110 95 121 109 11 14 17 20 13 12 -4 -8 11 0
34 19 23 18 39 37 35 43 -3 6 -1 7 5 3 7 -4 12 -2 12 3 0 6 6 11 13 11 8 0 22
10 33 22 10 12 14 18 8 15 -17 -10 -39 20 -27 36 5 6 11 33 12 60 2 38 -1 47
-14 47 -11 0 -15 5 -11 15 3 8 0 15 -6 15 -7 0 -6 5 2 15 22 27 6 16 -44 -31z"/>
<path d="M12736 8804 c-3 -9 -4 -20 -1 -24 3 -5 1 -11 -4 -15 -6 -3 -7 -12 -4
-21 3 -9 -4 -24 -16 -35 -11 -11 -21 -26 -21 -34 0 -7 -6 -15 -12 -18 -7 -2
-10 -8 -6 -12 4 -4 15 -4 25 0 10 5 24 9 31 11 22 4 23 8 13 58 -5 28 -5 49 1
52 5 3 7 13 3 22 -3 9 -3 13 1 9 4 -4 8 -45 8 -91 1 -63 -2 -82 -11 -79 -7 3
-10 9 -7 14 3 5 -3 6 -12 2 -11 -4 -13 -8 -6 -11 7 -2 10 -7 7 -12 -7 -12 24
-42 36 -34 5 3 7 9 4 14 -2 4 0 22 6 39 8 22 8 40 -1 66 -9 26 -9 39 -1 49 6
7 7 17 3 21 -4 5 -1 5 6 1 10 -6 10 -11 2 -21 -7 -8 -7 -15 -1 -19 10 -7 18 2
16 19 -1 15 -36 65 -45 65 -4 0 -11 -7 -14 -16z m18 -200 c5 -14 4 -15 -9 -4
-17 14 -19 20 -6 20 5 0 12 -7 15 -16z"/>
<path d="M12726 8245 c-24 -21 -27 -27 -16 -40 7 -8 10 -16 6 -16 -3 -1 -10
-3 -16 -4 -5 -1 -17 -3 -26 -4 -13 -1 -15 -10 -12 -46 2 -29 -1 -46 -9 -50 -7
-2 -13 0 -13 6 0 6 -4 8 -8 5 -4 -2 -14 -1 -22 4 -11 7 -11 11 -1 24 7 9 11
29 9 46 -4 29 5 40 17 20 10 -17 25 -11 19 8 -4 10 -2 13 3 7 9 -12 33 -14 33
-2 0 30 -1 31 -9 18 -7 -12 -13 -12 -24 -3 -7 7 -17 8 -21 4 -4 -4 -11 -7 -14
-8 -27 -3 -62 -18 -62 -26 0 -5 -4 -7 -9 -4 -11 7 -72 -14 -67 -22 2 -4 -8 -7
-24 -8 -15 -1 -44 -10 -65 -20 -37 -18 -39 -22 -66 -121 -14 -57 -25 -103 -24
-103 22 0 214 77 226 91 9 10 27 16 41 15 14 -2 36 5 49 15 l24 18 -23 -4
c-14 -2 -25 2 -29 11 -5 13 -7 13 -14 2 -5 -8 -9 -9 -9 -2 0 6 8 18 17 25 12
10 15 10 9 1 -5 -8 2 -14 23 -18 17 -4 31 -10 31 -15 0 -5 5 -9 11 -9 6 0 8 9
4 23 -4 14 -3 17 2 10 15 -22 43 8 54 57 6 24 15 47 20 51 7 4 5 12 -5 22 -17
17 -22 32 -7 22 10 -6 41 21 41 36 0 15 -13 10 -44 -16z m34 11 c0 -2 -8 -10
-17 -17 -16 -13 -17 -12 -4 4 13 16 21 21 21 13z m-250 -106 c-6 -11 -13 -20
-16 -20 -2 0 0 9 6 20 6 11 13 20 16 20 2 0 0 -9 -6 -20z m-25 -38 c-3 -3 -11
0 -18 7 -9 10 -8 11 6 5 10 -3 15 -9 12 -12z m215 -22 c0 -5 -5 -10 -11 -10
-5 0 -7 5 -4 10 3 6 8 10 11 10 2 0 4 -4 4 -10z m-250 -114 c0 -2 -7 -7 -16
-10 -8 -3 -12 -2 -9 4 6 10 25 14 25 6z"/>
<path d="M12280 7845 c-7 -17 -13 -39 -14 -50 -1 -12 -5 -26 -9 -32 -7 -11 1
-23 15 -23 5 0 6 5 2 11 -4 8 0 7 15 -1 12 -6 27 -9 34 -6 9 3 8 5 -1 5 -10 1
-10 6 -2 21 8 15 8 20 -1 20 -9 0 -9 3 0 14 9 10 8 15 -3 19 -10 4 -13 -3 -11
-29 1 -22 -2 -33 -9 -31 -13 5 -9 48 6 72 4 6 3 17 -2 25 -7 11 -11 7 -20 -15z"/>
<path d="M12335 7770 c-3 -5 -1 -10 6 -10 8 0 8 -4 -2 -16 -8 -10 -21 -13 -36
-9 -14 3 -23 1 -23 -6 0 -8 -4 -8 -14 0 -12 10 -17 8 -26 -9 -17 -32 -23 -73
-9 -65 8 6 8 2 1 -12 -7 -13 -7 -24 0 -34 8 -11 9 -11 4 4 -5 15 -3 16 15 7
17 -10 18 -14 7 -27 -10 -13 -10 -17 0 -20 6 -3 10 -9 6 -14 -3 -5 0 -9 5 -9
6 0 11 5 11 11 0 5 5 7 10 4 6 -4 9 -1 8 7 -2 7 3 12 10 10 8 -1 11 1 9 5 -3
5 8 35 23 68 15 33 25 64 22 70 -4 5 -5 17 -4 27 3 19 -14 33 -23 18z m21 -52
c4 -7 4 -10 0 -6 -5 4 -19 3 -32 -2 -13 -5 -24 -7 -24 -4 0 3 25 16 47 23 1 1
5 -5 9 -11z m-86 -27 c0 -12 -28 -22 -34 -12 -3 5 -3 11 1 15 9 9 33 7 33 -3z
m29 -97 c-6 -8 -17 -14 -23 -14 -6 0 -4 5 4 10 8 5 11 10 7 10 -5 0 -5 5 -2
10 4 6 11 8 16 4 6 -4 6 -11 -2 -20z"/>
<path d="M11898 7022 c3 -10 1 -13 -6 -8 -7 4 -15 0 -19 -11 -3 -10 -19 -34
-35 -54 -15 -20 -28 -41 -28 -45 0 -5 10 5 23 21 12 16 37 44 55 64 35 39 39
48 18 48 -8 0 -12 -6 -8 -15z"/>
<path d="M11779 6873 c-13 -16 -12 -17 4 -4 9 7 17 15 17 17 0 8 -8 3 -21 -13z"/>
<path d="M11698 6765 c-17 -22 -17 -23 2 -18 25 7 35 22 24 33 -5 5 -17 -2
-26 -15z"/>
<path d="M11660 6706 c0 -2 8 -10 18 -17 15 -13 16 -12 3 4 -13 16 -21 21 -21
13z"/>
<path d="M41025 12944 c18 -13 17 -14 -12 -8 -29 6 -32 4 -28 -14 2 -15 -1
-19 -14 -15 -11 3 -17 -2 -18 -14 -1 -15 5 -17 43 -14 34 2 44 7 40 17 -3 8 1
14 9 14 22 0 18 28 -4 40 -29 15 -39 12 -16 -6z"/>
<path d="M39843 12936 c-88 -9 -111 -25 -40 -27 23 -1 34 -3 24 -6 -11 -3 -16
-11 -13 -18 3 -10 0 -12 -12 -9 -14 5 -15 4 -2 -4 10 -8 18 -8 27 0 9 7 13 7
13 -1 0 -6 17 -11 40 -11 33 0 40 3 40 20 0 11 1 23 3 28 1 4 -18 10 -43 13
l-45 7 52 -1 c29 0 51 -2 49 -5 -3 -2 -1 -14 4 -26 14 -37 -5 -56 -55 -56 -27
0 -45 -5 -45 -11 0 -8 -5 -7 -15 1 -9 7 -17 11 -19 9 -3 -4 257 -461 297 -523
15 -22 25 -26 65 -27 26 0 102 -8 170 -18 l123 -17 267 225 c147 124 278 236
292 248 14 13 28 23 33 23 4 0 6 4 3 9 -3 5 3 11 13 14 20 5 21 14 7 54 -8 25
-55 38 -106 31 -16 -2 -27 -1 -25 3 3 3 -6 7 -20 7 -15 0 -44 -19 -80 -52 -30
-29 -55 -50 -55 -48 0 2 -6 -3 -14 -10 -58 -55 -470 -393 -479 -393 -6 0 -68
99 -138 220 -70 121 -131 225 -136 230 -5 6 -11 15 -14 20 -2 6 -12 10 -21 9
-9 0 -15 3 -12 7 2 4 0 10 -6 14 -9 6 -14 -8 -11 -28 1 -5 -3 -6 -9 -2 -6 3
-7 12 -3 18 14 22 10 74 -6 83 -10 6 -49 6 -98 0z m997 -140 c0 -2 -8 -10 -17
-17 -16 -13 -17 -12 -4 4 13 16 21 21 21 13z m-925 -53 c-2 -10 -4 -21 -4 -25
-1 -5 -5 -8 -10 -8 -12 0 -9 33 4 42 14 10 14 10 10 -9z"/>
<path d="M39965 12901 c-3 -5 -2 -12 3 -15 5 -3 9 1 9 9 0 17 -3 19 -12 6z"/>
<path d="M41050 12895 c0 -5 5 -17 10 -25 5 -8 10 -10 10 -5 0 6 -5 17 -10 25
-5 8 -10 11 -10 5z"/>
<path d="M39395 12819 c-10 -15 3 -25 16 -12 7 7 7 13 1 17 -6 3 -14 1 -17 -5z"/>
<path d="M39369 12773 c-12 -14 -12 -15 0 -9 8 5 16 3 22 -5 6 -10 11 -11 20
-2 13 13 4 33 -15 33 -8 0 -20 -8 -27 -17z"/>
<path d="M41104 12733 c2 -16 4 -33 5 -38 0 -6 18 -17 39 -24 20 -7 56 -22 80
-33 23 -11 49 -17 58 -14 20 8 8 26 -17 26 -10 0 -19 5 -19 10 0 9 14 14 33
11 4 0 7 6 7 15 0 8 -4 13 -9 9 -5 -3 -31 2 -57 11 -26 9 -62 14 -80 12 -30
-4 -33 -2 -29 19 2 13 0 23 -5 23 -5 0 -7 -12 -6 -27z"/>
<path d="M41120 12625 c0 -8 23 -143 50 -300 28 -157 50 -289 50 -293 0 -5 33
-24 73 -42 39 -19 120 -61 179 -92 l107 -58 168 62 c92 34 170 65 171 70 2 4
7 6 12 3 4 -3 25 3 46 12 22 9 42 16 47 15 4 -1 7 3 7 8 0 6 11 10 25 10 14 0
25 4 25 8 0 5 7 9 15 10 8 1 22 3 29 4 11 1 13 6 5 20 -8 15 -13 17 -25 7 -14
-11 -15 -10 -18 11 -2 18 -30 29 -56 24 -20 -5 -22 -3 -10 5 13 10 12 13 -5
23 -26 16 -37 17 -54 4 -12 -9 -13 -7 -9 10 3 13 0 21 -9 21 -9 0 -11 -7 -7
-21 6 -20 6 -20 -13 -3 -16 14 -20 14 -20 2 0 -8 4 -12 9 -9 4 3 8 1 8 -4 0
-18 -13 -20 -35 -6 -14 9 -25 11 -29 5 -4 -5 -14 -9 -24 -9 -9 1 -35 -7 -57
-17 -22 -10 -44 -19 -50 -20 -5 0 -17 -4 -25 -7 -132 -51 -275 -97 -281 -91
-3 4 -24 109 -45 233 -24 145 -43 228 -51 233 -10 6 -11 12 -4 21 7 8 7 25 -1
52 -6 21 -10 44 -9 49 1 6 -1 7 -5 3 -3 -4 -18 2 -32 12 -14 11 -42 23 -64 26
-21 4 -38 10 -38 15 0 5 -11 9 -25 9 -15 0 -25 -6 -25 -15z m877 -511 c0 -19
-20 -12 -23 8 -1 10 3 15 10 12 7 -3 13 -12 13 -20z m-41 -32 c-15 -15 -59 -7
-76 13 -8 10 -8 15 1 21 8 4 9 3 5 -4 -10 -17 16 -15 39 2 17 12 21 12 32 -3
9 -13 9 -19 -1 -29z m-245 -25 c-10 -9 -11 -8 -5 6 3 10 9 15 12 12 3 -3 0
-11 -7 -18z m314 3 c11 -18 -26 -23 -43 -6 -15 15 -14 16 10 16 15 0 30 -5 33
-10z"/>
<path d="M42353 12282 c-7 -5 -14 -31 -15 -60 -2 -29 -6 -52 -9 -52 -4 0 -10
-21 -14 -47 -3 -27 -8 -59 -11 -73 -2 -14 -30 -169 -62 -345 l-58 -320 103
-109 c56 -59 122 -132 145 -162 l43 -53 364 -1 363 0 -7 28 c-16 63 -17 104
-4 113 7 4 10 12 5 16 -5 4 -11 2 -13 -4 -6 -18 -63 -17 -63 1 0 7 -10 16 -22
20 -13 3 -188 6 -389 6 l-365 0 38 213 c67 372 98 555 98 582 0 14 -9 33 -21
43 -48 40 -56 48 -62 66 -4 10 -13 16 -22 13 -9 -4 -12 -1 -8 9 3 9 -1 14 -12
14 -12 0 -15 5 -10 20 4 11 8 32 9 47 4 31 21 41 30 18 3 -9 2 -14 -3 -11 -11
7 -23 -38 -15 -58 7 -19 34 -21 34 -3 0 26 20 -19 20 -46 0 -26 2 -28 40 -25
22 1 40 4 41 7 5 35 4 49 -3 45 -4 -3 -8 0 -8 6 0 8 -10 10 -27 6 -21 -5 -24
-4 -13 3 13 9 12 14 -8 33 -23 23 -23 23 -38 4 -8 -11 -14 -15 -14 -10 0 6 5
15 12 22 9 9 7 16 -7 32 -20 22 -24 23 -42 12z m103 -329 c-10 -11 -37 -12
-30 -2 3 5 12 9 21 9 9 0 13 -3 9 -7z"/>
<path d="M43207 11198 c5 -61 13 -121 20 -138 3 -8 5 -24 4 -35 -2 -17 0 -17
8 -5 7 10 11 11 11 3 0 -13 -27 -31 -45 -31 -5 1 -22 -20 -37 -46 -15 -25 -24
-46 -20 -46 4 0 2 -4 -4 -8 -7 -4 -70 -107 -141 -230 l-130 -223 49 -115 c27
-62 66 -160 86 -216 l37 -103 105 -37 c58 -21 111 -36 118 -33 7 3 11 1 8 -3
-3 -5 15 -16 40 -25 42 -15 44 -15 44 3 0 10 -6 21 -12 23 -10 4 -10 6 0 6 20
1 16 97 -4 105 -14 5 -15 4 -4 -9 7 -8 8 -15 2 -15 -16 0 -22 26 -9 40 10 10
8 12 -7 6 -16 -5 -17 -4 -6 9 10 13 5 18 -40 39 -29 13 -61 23 -71 21 -11 -2
-19 0 -19 5 0 7 -21 18 -50 25 -3 1 -18 7 -35 14 -16 6 -50 19 -75 28 -25 9
-49 20 -53 24 -5 4 48 105 118 225 70 121 129 228 131 239 2 11 10 25 17 30
22 18 44 59 42 82 -1 15 3 19 13 15 9 -3 13 -1 9 5 -3 5 3 20 14 32 12 12 19
25 16 27 -3 3 -14 -4 -25 -16 -18 -19 -21 -20 -36 -5 -18 18 -21 35 -6 35 17
0 11 27 -10 41 -28 20 -29 41 -2 44 16 1 22 -4 22 -17 0 -28 29 -80 43 -75 22
7 20 74 -2 99 -12 12 -24 37 -27 55 -6 33 -14 38 -17 11 -2 -7 -7 -14 -12 -15
-12 -3 -6 91 6 95 14 6 10 29 -6 36 -8 3 -15 13 -15 21 0 18 -23 45 -38 45 -5
0 -7 -19 -5 -42z m-42 -318 c-3 -5 -12 -10 -18 -10 -7 0 -6 4 3 10 19 12 23
12 15 0z m20 -28 c14 -10 18 -35 5 -30 -7 2 -11 7 -10 12 1 5 -4 13 -12 17 -7
5 -8 9 -3 9 6 0 15 -4 20 -8z m64 -873 c-5 -10 -12 -19 -14 -19 -8 0 0 25 10
32 6 5 5 8 -2 8 -7 0 -13 5 -13 11 0 8 4 8 15 -1 11 -9 12 -17 4 -31z"/>
<path d="M43348 10083 c7 -3 16 -2 19 1 4 3 -2 6 -13 5 -11 0 -14 -3 -6 -6z"/>
<path d="M43370 10061 c0 -6 8 -8 18 -4 15 6 15 5 3 -11 -9 -11 -14 -35 -12
-62 2 -31 -1 -44 -11 -45 -7 -1 -2 -4 12 -8 14 -4 31 -3 38 2 8 6 12 6 12 -1
0 -6 -5 -14 -10 -17 -6 -4 -7 -11 -4 -17 4 -6 -1 -8 -15 -3 -14 4 -21 2 -21
-6 0 -7 3 -9 7 -6 3 4 12 2 20 -4 7 -6 13 -8 13 -3 0 5 4 3 9 -4 5 -9 8 -2 9
20 1 18 4 52 8 76 4 26 2 48 -5 56 -9 11 -9 15 1 19 19 7 7 14 -34 22 -25 5
-38 3 -38 -4z m50 -37 c0 -2 -9 -4 -21 -4 -11 0 -18 4 -14 10 5 8 35 3 35 -6z"/>
<path d="M43452 9898 c2 -26 8 -43 18 -45 12 -4 12 -3 2 5 -9 6 -11 20 -7 46
5 25 4 36 -4 36 -8 0 -11 -15 -9 -42z"/>
<path d="M43630 9649 c0 -6 -7 -8 -17 -5 -10 4 -14 4 -10 0 4 -4 -1 -13 -11
-21 -9 -8 -12 -12 -5 -9 7 4 11 -1 10 -14 -1 -12 -6 -19 -14 -16 -7 3 -13 1
-13 -4 0 -6 8 -10 18 -10 11 0 13 -3 5 -8 -7 -4 -11 -30 -10 -64 1 -35 -2 -54
-8 -50 -5 3 -4 -2 4 -11 13 -16 14 -16 26 0 7 10 11 21 9 25 -3 4 3 5 12 1 13
-5 15 -3 9 7 -6 9 -4 11 5 5 10 -6 7 -12 -11 -26 -26 -20 -19 -25 12 -8 12 6
18 17 15 24 -3 8 -1 17 5 20 13 9 3 22 -22 28 -14 4 -19 2 -16 -7 3 -7 -1 -13
-8 -13 -6 0 -11 10 -10 21 1 12 3 31 4 44 0 12 5 22 10 22 15 0 18 -34 4 -45
-10 -8 -7 -10 12 -11 22 -2 25 1 18 20 -4 11 -8 36 -8 54 0 17 -4 32 -9 32 -5
0 -3 7 4 15 9 10 9 15 1 15 -6 0 -11 -5 -11 -11z"/>
<path d="M43524 9580 c-5 -9 -21 -23 -36 -33 -16 -10 -28 -24 -28 -32 0 -8 -9
-15 -20 -15 -23 0 -25 -10 -7 -30 10 -12 9 -12 -6 -1 -15 12 -24 8 -70 -30
-29 -24 -81 -66 -114 -94 -45 -37 -60 -55 -57 -70 2 -11 6 -114 8 -230 l4
-210 59 -47 c32 -27 70 -60 85 -74 16 -14 33 -22 40 -18 6 4 8 3 5 -3 -8 -12
36 -56 46 -47 4 4 18 -5 31 -19 13 -14 21 -29 18 -32 -4 -3 1 -3 11 0 15 6 14
9 -6 27 -12 11 -16 17 -9 13 6 -3 15 1 18 9 3 9 13 16 21 16 11 0 13 10 9 48
-4 32 -3 41 3 27 7 -16 9 -13 8 17 -2 32 -4 35 -20 26 -16 -8 -17 -7 -8 10 10
19 6 32 -12 32 -5 0 -7 -6 -4 -14 3 -7 0 -19 -6 -25 -8 -8 -6 -15 9 -26 10 -8
15 -15 9 -14 -38 5 -45 -2 -45 -42 0 -36 -2 -40 -22 -37 -12 2 -23 10 -25 18
-4 13 -3 13 6 0 8 -12 10 -11 8 7 0 12 -4 20 -7 18 -4 -2 -7 2 -7 10 0 8 3 14
6 13 18 -2 24 3 12 11 -17 11 2 51 24 51 8 0 15 7 15 15 0 9 -9 15 -22 15 -17
0 -19 3 -10 12 18 18 0 40 -118 138 -60 50 -110 95 -110 99 0 5 61 59 136 121
78 65 133 118 130 125 -3 8 2 11 14 8 12 -3 26 7 44 30 25 33 35 64 17 53 -5
-3 -14 1 -21 9 -10 12 -9 15 5 15 15 0 16 2 4 17 -10 11 -10 14 -1 9 9 -5 12
5 12 43 0 27 3 57 7 67 4 11 3 15 -4 11 -6 -4 -13 -2 -15 5 -3 9 -7 8 -14 -2z
m-187 -785 c0 -8 -4 -12 -9 -9 -5 3 -6 10 -3 15 9 13 12 11 12 -6z"/>
<path d="M43500 8635 c-10 -12 -10 -15 2 -15 8 0 15 7 15 15 0 8 -1 15 -2 15
-2 0 -8 -7 -15 -15z"/>
<path d="M43500 8261 c0 -6 -7 -7 -17 -4 -12 5 -14 3 -7 -8 13 -21 14 -39 2
-39 -6 0 -7 -7 -4 -16 3 -8 2 -13 -3 -9 -5 3 -12 -1 -15 -7 -3 -7 -3 -3 -1 9
3 12 1 24 -5 28 -6 3 -8 11 -5 16 4 5 -1 9 -9 9 -18 0 -21 -16 -6 -25 16 -10
12 -25 -7 -25 -15 0 -18 -10 -20 -51 -2 -34 1 -48 8 -43 8 5 8 1 0 -14 -6 -11
-21 -24 -33 -28 l-23 -7 24 -8 c13 -5 30 -5 39 1 15 8 15 9 -2 10 -26 0 -11
14 16 15 12 0 22 7 24 15 4 25 42 138 54 159 7 13 7 22 0 26 -5 3 -10 2 -10
-4z m-52 -154 c-1 -20 -7 -34 -15 -34 -9 0 -10 4 -3 11 5 5 10 20 10 33 0 13
2 23 5 23 3 0 5 -15 3 -33z"/>
<path d="M43455 8231 c-3 -5 -1 -12 4 -15 5 -3 11 1 15 9 6 16 -9 21 -19 6z"/>
<path d="M43397 8213 c6 -15 4 -16 -8 -6 -13 10 -24 9 -60 -4 -24 -9 -53 -24
-63 -32 -11 -9 -16 -10 -12 -4 5 9 2 11 -8 7 -9 -3 -16 -10 -16 -16 0 -5 -4
-7 -9 -4 -7 5 -97 -20 -109 -29 -1 -1 -16 -50 -31 -109 -32 -119 -35 -113 39
-83 14 5 31 11 38 13 8 1 20 11 29 21 8 10 12 12 8 6 -8 -17 -2 -16 58 9 62
26 86 52 87 95 0 41 9 65 22 57 11 -7 28 13 28 33 0 6 -8 14 -17 16 -14 4 -13
5 4 6 12 0 25 6 28 11 4 6 11 8 16 5 5 -4 9 -4 9 -1 0 3 -9 10 -20 16 -17 9
-19 8 -13 -7z"/>
<path d="M43031 7847 c-6 -15 -12 -37 -13 -49 -2 -13 -7 -29 -11 -35 -13 -20
-17 -53 -7 -53 5 0 7 -7 4 -15 -4 -8 -12 -15 -19 -15 -22 0 -25 -28 -4 -33 17
-5 26 -37 20 -71 -1 -5 5 -4 13 4 13 10 16 10 16 -1 0 -8 14 9 32 36 17 28 40
63 51 79 11 16 14 26 8 21 -8 -4 -12 -2 -10 6 3 28 -2 36 -23 34 -17 -1 -24
-9 -26 -28 -3 -28 6 -35 25 -16 8 8 13 7 18 -3 5 -7 4 -10 0 -5 -5 4 -17 0
-27 -10 -11 -9 -18 -11 -18 -5 0 7 -5 12 -11 12 -7 0 -8 -11 -4 -29 7 -32 -11
-53 -21 -26 -5 12 -9 13 -14 5 -5 -8 -9 -7 -13 4 -4 10 1 20 13 26 16 9 18 15
10 30 -5 10 -6 21 -1 24 4 3 7 17 6 30 -2 14 3 27 11 30 8 3 14 0 15 -7 0 -7
4 -3 8 8 5 11 6 25 3 30 -4 6 -7 16 -8 23 -4 26 -13 25 -23 -1z m9 -240 c0 -8
-7 -14 -15 -14 -11 0 -12 4 -4 14 6 7 13 13 15 13 2 0 4 -6 4 -13z"/>
<path d="M43016 7548 c3 -5 10 -6 15 -3 13 9 11 12 -6 12 -8 0 -12 -4 -9 -9z"/>
<path d="M42640 7029 c0 -5 6 -7 13 -3 8 5 8 3 -2 -9 -7 -9 -18 -14 -25 -10
-6 3 -8 3 -4 -1 6 -8 1 -17 -31 -52 -7 -8 -11 -17 -8 -20 2 -3 18 11 35 31 16
20 37 37 45 39 9 1 20 6 24 11 4 4 2 5 -4 1 -8 -4 -13 -1 -13 8 0 9 -7 16 -15
16 -8 0 -15 -5 -15 -11z"/>
<path d="M42462 6783 c-6 -2 -10 -9 -6 -14 8 -14 21 -11 21 6 0 8 -1 15 -1 14
-1 0 -7 -3 -14 -6z"/>
<path d="M42426 6733 c-6 -14 -5 -15 5 -6 7 7 10 15 7 18 -3 3 -9 -2 -12 -12z"/>
<path d="M4125 15080 c-3 -5 -1 -10 4 -10 6 0 11 5 11 10 0 6 -2 10 -4 10 -3
0 -8 -4 -11 -10z"/>
<path d="M37266 11241 c-3 -5 2 -15 12 -22 15 -12 16 -12 5 2 -7 9 -10 19 -6
22 3 4 4 7 0 7 -3 0 -8 -4 -11 -9z"/>
<path d="M37260 11201 c0 -7 -4 -9 -10 -6 -5 3 -10 1 -10 -4 0 -6 4 -11 9 -11
13 0 25 20 17 27 -3 4 -6 1 -6 -6z"/>
<path d="M37230 11160 c-8 -5 -12 -12 -9 -15 4 -3 12 1 19 10 14 17 11 19 -10
5z"/>
<path d="M37078 11076 c-8 -6 -21 -22 -28 -35 -11 -21 -10 -26 4 -36 8 -7 13
-15 9 -18 -3 -4 -12 -2 -18 3 -9 8 -14 6 -19 -5 -3 -8 -2 -15 2 -16 4 0 16 -2
26 -4 10 -2 25 2 32 10 11 11 11 14 -3 19 -12 5 -13 10 -5 18 13 13 4 40 -12
31 -6 -3 -7 -2 -3 2 18 21 34 12 31 -16 -2 -17 1 -29 8 -29 6 0 8 3 5 7 -4 3
-1 13 6 21 9 13 9 14 0 8 -18 -10 -16 9 2 27 12 13 12 15 -4 20 -10 2 -24 -1
-33 -7z m-8 -56 c0 -5 -2 -10 -4 -10 -3 0 -8 5 -11 10 -3 6 -1 10 4 10 6 0 11
-4 11 -10z"/>
<path d="M37015 10950 c-3 -5 1 -10 9 -10 9 0 16 5 16 10 0 6 -4 10 -9 10 -6
0 -13 -4 -16 -10z"/>
<path d="M37030 10934 c-24 -13 -24 -14 -4 -14 12 0 24 7 28 15 3 8 4 15 3 14
-1 -1 -13 -7 -27 -15z"/>
<path d="M29200 5830 c-54 -35 -193 -78 -402 -125 -649 -146 -965 -258 -2193
-780 -338 -144 -784 -321 -892 -356 -85 -27 -87 -32 -53 -141 52 -169 175
-283 305 -283 51 1 302 76 1685 509 1060 331 1638 516 1661 532 61 41 109 158
109 262 -1 112 -57 262 -131 345 -41 47 -61 55 -89 37z"/>
</g>
</svg>
