<?xml version="1.0" standalone="no"?>
<!DOCTYPE svg PUBLIC "-//W3C//DTD SVG 20010904//EN"
 "http://www.w3.org/TR/2001/REC-SVG-20010904/DTD/svg10.dtd">
<svg version="1.0" xmlns="http://www.w3.org/2000/svg"
 width="1590.000000pt" height="1193.000000pt" viewBox="0 0 1590.000000 1193.000000"
 preserveAspectRatio="xMidYMid meet">

<g transform="translate(0.000000,1193.000000) scale(0.100000,-0.100000)"
fill="#000000" stroke="none">
<path d="M3722 10239 c-45 -13 -105 -76 -120 -125 -15 -52 -17 -562 -2 -616
14 -48 53 -94 101 -118 36 -19 61 -20 487 -20 l449 0 67 -75 c37 -41 72 -75
78 -75 16 0 5 875 -11 915 -17 42 -59 84 -106 106 -37 17 -72 19 -475 18 -242
-1 -450 -5 -468 -10z m848 -324 l0 -25 -385 0 c-367 0 -385 1 -385 18 0 10 3
22 7 25 3 4 177 7 385 7 l378 0 0 -25z m0 -220 l0 -25 -385 0 -385 0 0 25 0
25 385 0 385 0 0 -25z"/>
<path d="M5649 9763 c-21 -56 -79 -103 -154 -124 -163 -48 -264 -83 -318 -112
-102 -54 -153 -134 -130 -204 8 -22 5 -39 -14 -79 -51 -113 -43 -163 75 -424
62 -138 90 -189 103 -190 4 0 30 19 59 42 49 39 52 43 46 77 -3 23 -16 45 -35
61 -61 52 -85 122 -61 184 23 63 71 53 153 -33 39 -39 54 -65 74 -128 14 -43
28 -112 30 -154 5 -68 2 -84 -21 -135 l-27 -59 28 -23 c33 -27 130 -78 186
-98 113 -40 253 -37 292 6 53 58 59 412 8 489 -15 23 -19 23 -102 19 -66 -4
-102 -12 -149 -33 l-62 -28 -39 28 c-22 15 -56 51 -76 80 l-36 52 17 106 c13
80 21 108 34 112 29 9 100 87 108 119 9 34 24 39 155 51 l77 7 26 45 c19 32
28 63 32 112 5 79 -7 111 -64 161 -37 32 -167 100 -191 100 -8 0 -18 -12 -24
-27z"/>
<path d="M9555 9407 c-49 -24 -134 -101 -123 -112 3 -3 25 0 50 6 66 18 105 5
223 -71 58 -38 122 -74 142 -81 48 -16 114 -6 174 25 28 14 52 26 54 26 1 0 5
-15 8 -33 3 -18 21 -74 41 -124 20 -51 36 -105 36 -120 0 -25 3 -23 31 24 16
28 45 65 64 82 32 28 35 35 35 88 0 59 -25 130 -57 165 -8 9 -13 24 -10 33 4
8 5 15 4 15 -1 0 -27 -9 -57 -21 -57 -22 -186 -50 -194 -42 -2 2 -2 21 1 42
l5 38 -58 6 c-33 3 -95 20 -138 37 -110 44 -167 48 -231 17z"/>
<path d="M5778 9219 c-28 -14 -38 -26 -38 -44 0 -24 1 -24 35 -9 19 7 52 14
74 14 l40 0 -10 30 c-13 36 -45 39 -101 9z"/>
<path d="M5844 9125 c-7 -17 4 -37 17 -30 12 8 12 45 -1 45 -6 0 -13 -7 -16
-15z"/>
<path d="M9874 9096 c-9 -22 2 -46 21 -46 12 0 15 8 13 27 -3 30 -25 42 -34
19z"/>
<path d="M9512 9053 c4 -36 33 -39 33 -3 0 16 -6 26 -18 28 -15 3 -18 -2 -15
-25z"/>
<path d="M5132 8333 c-5 -10 -20 -49 -32 -88 -17 -51 -36 -83 -70 -120 -77
-82 -130 -155 -167 -229 -59 -118 -65 -145 -68 -337 -2 -97 -6 -189 -9 -205
-9 -44 -34 -416 -41 -609 -8 -204 4 -323 39 -397 14 -29 62 -109 108 -178 46
-69 85 -129 88 -135 13 -27 43 -65 50 -65 4 0 16 29 25 65 10 36 22 68 27 71
4 3 72 -4 150 -15 395 -57 738 -55 886 4 39 16 85 75 112 145 7 19 14 36 16
38 1 2 93 -15 205 -37 275 -54 561 -102 568 -95 3 3 33 78 67 167 42 110 58
164 50 168 -10 6 -629 223 -873 306 l-101 34 -16 67 c-9 37 -23 148 -32 247
-28 331 -44 392 -139 536 -26 37 -88 115 -138 172 l-92 103 -24 110 c-13 60
-29 114 -35 121 -10 11 -510 173 -534 173 -6 0 -15 -8 -20 -17z"/>
<path d="M7401 7793 c-1 -12 -10 -27 -20 -33 -26 -13 -88 -13 -97 1 -5 9 6 10
39 5 44 -7 76 7 40 18 -67 18 -81 17 -122 -11 -69 -47 -61 -54 119 -91 30 -6
40 -17 84 -94 27 -48 57 -89 65 -91 23 -5 110 43 116 64 6 18 -102 216 -130
239 -10 8 -24 8 -49 2 -25 -7 -36 -7 -40 1 -2 7 -5 2 -5 -10z"/>
<path d="M9707 7245 c-15 -175 -26 -319 -25 -320 2 -2 59 -6 128 -9 120 -6
124 -6 90 9 -43 20 -80 54 -80 73 0 12 11 13 59 8 108 -12 185 -40 256 -92 37
-27 75 -54 84 -61 13 -9 254 -43 310 -43 15 0 20 41 45 335 16 184 27 337 25
339 -2 1 -173 17 -379 35 -206 18 -400 35 -430 38 l-55 5 -28 -317z"/>
<path d="M10690 6811 c-15 -5 11 -6 63 -3 105 6 196 -15 258 -60 22 -16 39
-32 36 -34 -2 -2 -71 9 -153 25 -82 16 -171 32 -199 35 l-50 5 45 -10 c133
-29 362 -70 367 -66 13 14 -24 49 -82 78 -58 28 -77 32 -163 35 -53 2 -108 0
-122 -5z"/>
<path d="M8766 6785 c48 -83 178 -235 200 -235 22 0 17 41 -12 98 -25 51 -134
162 -157 161 -7 0 -1 -7 13 -17 72 -47 138 -134 156 -206 12 -48 -15 -28 -91
70 -38 49 -83 105 -98 124 -26 32 -27 32 -11 5z"/>
<path d="M9657 6668 c-10 -84 -20 -248 -16 -249 119 -15 856 -74 862 -69 5 4
7 29 5 55 l-3 49 -153 48 -153 49 7 33 c5 28 2 35 -13 40 -10 3 -93 5 -183 4
-162 -1 -166 -1 -220 27 -30 15 -67 36 -82 46 -14 11 -30 19 -36 19 -5 0 -12
-24 -15 -52z"/>
<path d="M11167 6543 c-4 -3 -7 -25 -7 -47 -1 -97 -59 -156 -153 -156 -57 0
-208 29 -350 68 -74 20 -110 26 -112 18 -4 -12 -25 -139 -25 -149 0 -4 189 -8
420 -9 l420 -3 -82 -60 c-108 -79 -244 -211 -523 -508 -126 -135 -231 -245
-232 -244 -1 1 -8 110 -17 242 -9 132 -18 268 -22 302 l-5 62 -47 -15 c-115
-36 -338 -86 -465 -104 -170 -25 -403 -27 -529 -5 -141 24 -285 84 -354 146
l-21 19 -6 -217 c-4 -120 -7 -455 -7 -745 l0 -528 -866 0 -866 0 38 43 c127
141 1155 1225 1223 1289 103 97 231 190 335 243 45 23 87 44 94 46 10 3 10 17
1 64 -6 33 -12 61 -14 63 -8 9 -217 -63 -270 -93 -88 -49 -212 -139 -270 -196
-27 -27 -52 -49 -57 -49 -4 0 -224 -231 -490 -512 -265 -282 -528 -558 -583
-613 -131 -132 -248 -257 -308 -328 -32 -38 -56 -57 -70 -56 -12 0 -170 -18
-352 -41 -181 -22 -377 -46 -435 -53 l-105 -12 -16 -185 c-10 -102 -22 -219
-27 -260 -21 -156 -81 -668 -87 -730 -5 -66 -33 -312 -61 -540 -14 -121 -74
-622 -74 -627 0 -2 33 -3 74 -3 84 0 86 -2 86 -93 0 -27 9 -95 21 -150 40
-196 117 -347 243 -473 76 -75 116 -102 231 -151 11 -4 -967 -10 -2195 -13
-1218 -3 447 -5 3700 -5 3253 0 5239 1 4413 2 -1233 3 -1503 5 -1503 16 0 7 5
40 11 72 12 68 3 180 -12 152 -14 -24 -62 -47 -98 -47 -25 0 -34 7 -50 38 -27
53 -105 137 -141 152 -17 7 -51 10 -79 8 -47 -5 -56 -11 -165 -113 -65 -62
-120 -122 -126 -138 -5 -17 -10 -54 -10 -83 l0 -54 -245 0 -245 0 0 36 c0 32
9 45 78 113 93 91 141 162 198 291 54 126 73 203 81 327 l6 103 106 0 107 0
42 -217 c23 -119 44 -218 46 -221 9 -8 578 -4 586 4 4 5 11 37 14 71 l7 63
-313 3 -313 2 311 3 311 2 7 61 c3 34 6 102 6 150 l0 89 65 0 65 0 0 -54 c0
-29 7 -93 15 -142 13 -77 21 -110 40 -171 7 -22 420 129 651 237 l104 49 0 40
0 41 78 0 78 0 122 70 c319 182 565 371 822 629 185 185 294 319 439 536 246
369 412 771 535 1288 l6 27 -535 0 c-388 0 -535 3 -535 11 0 6 20 127 45 268
25 141 89 497 141 791 52 294 97 547 100 563 l6 27 419 0 c392 0 419 1 419 18
0 9 -9 70 -20 135 -11 65 -20 120 -20 123 0 7 -2846 5 -2853 -3z m1909 -300
c-3 -16 -33 -183 -66 -373 -34 -190 -79 -444 -101 -565 -21 -121 -58 -327 -81
-457 l-42 -238 -513 0 c-404 0 -513 3 -513 13 0 6 9 46 20 87 25 97 25 130 -3
171 -44 67 -58 69 -387 69 -169 0 -311 -4 -332 -10 -20 -6 -50 -25 -66 -44
-28 -32 -29 -38 -35 -155 -3 -68 -8 -125 -11 -128 -12 -12 -80 35 -98 67 -28
54 -24 109 14 161 59 82 621 794 677 858 221 253 575 458 918 531 142 30 225
37 436 39 l189 1 -6 -27z m-3441 -610 c21 -131 192 -1098 201 -1133 3 -16 2
-21 -4 -15 -5 6 -46 217 -91 470 -128 720 -139 785 -131 785 4 0 15 -48 25
-107z m175 17 c52 -27 91 -49 86 -49 -12 -1 -196 87 -196 93 0 11 15 5 110
-44z m-250 17 c-100 -78 -142 -108 -146 -104 -6 6 138 117 151 117 6 -1 3 -6
-5 -13z m-1649 -1816 c37 -38 37 -62 -1 -191 -34 -114 -51 -145 -89 -165 -15
-7 -182 -43 -372 -79 -341 -65 -349 -66 -515 -66 -141 0 -175 3 -204 18 -48
24 -80 75 -80 128 0 39 24 227 35 281 6 28 52 83 79 93 12 5 268 9 569 9 l549
1 29 -29z m-825 -1866 c-13 -146 -60 -284 -126 -374 l-32 -43 -24 23 c-33 31
-100 168 -119 244 -9 33 -19 97 -22 143 l-6 82 168 0 168 0 -7 -75z m1279 -10
c15 -176 58 -337 123 -455 30 -55 101 -152 119 -163 10 -6 8 -15 -13 -42 -15
-19 -28 -54 -32 -82 l-7 -48 -715 -3 c-415 -1 -710 2 -705 7 6 5 27 14 47 20
120 39 262 180 341 340 86 176 102 228 119 396 l12 110 352 0 352 0 7 -80z
m1158 -222 c-78 -2 -208 -2 -290 0 -81 1 -17 3 142 3 160 0 226 -2 148 -3z
m77 -158 c0 -9 11 -38 25 -65 14 -27 25 -51 25 -53 0 -11 -162 -109 -204 -123
-58 -20 -171 -15 -233 11 l-42 17 21 39 c21 40 21 101 2 167 l-6 22 206 0
c178 0 206 -2 206 -15z"/>
<path d="M5471 5964 c0 -11 3 -14 6 -6 3 7 2 16 -1 19 -3 4 -6 -2 -5 -13z"/>
<path d="M5473 5890 c0 -25 2 -35 4 -22 2 12 2 32 0 45 -2 12 -4 2 -4 -23z"/>
<path d="M5020 5780 c0 -5 5 -10 10 -10 6 0 10 5 10 10 0 6 -4 10 -10 10 -5 0
-10 -4 -10 -10z"/>
<path d="M5010 5510 c0 -5 5 -10 11 -10 5 0 7 5 4 10 -3 6 -8 10 -11 10 -2 0
-4 -4 -4 -10z"/>
<path d="M5040 5401 c0 -5 -3 -17 -7 -27 -4 -11 -3 -15 4 -11 14 9 24 47 12
47 -5 0 -9 -4 -9 -9z"/>
<path d="M5020 5338 c0 -4 7 -8 15 -8 8 0 15 4 15 8 0 5 -7 9 -15 9 -8 0 -15
-4 -15 -9z"/>
<path d="M5028 5284 c2 -19 8 -34 12 -34 5 0 7 14 5 30 -3 22 -1 29 8 24 7 -4
8 -3 4 1 -19 22 -33 12 -29 -21z"/>
<path d="M5491 5254 c0 -11 3 -14 6 -6 3 7 2 16 -1 19 -3 4 -6 -2 -5 -13z"/>
<path d="M5025 5210 c-3 -5 -1 -10 5 -10 7 0 10 -6 7 -13 -3 -8 1 -14 8 -14 7
0 10 8 7 19 -6 23 -19 32 -27 18z"/>
<path d="M5092 4630 c0 -14 2 -19 5 -12 2 6 2 18 0 25 -3 6 -5 1 -5 -13z"/>
<path d="M5121 4504 c0 -11 3 -14 6 -6 3 7 2 16 -1 19 -3 4 -6 -2 -5 -13z"/>
<path d="M5072 4430 c0 -14 2 -19 5 -12 2 6 2 18 0 25 -3 6 -5 1 -5 -13z"/>
<path d="M5120 4411 c0 -6 4 -13 10 -16 6 -3 7 1 4 9 -7 18 -14 21 -14 7z"/>
<path d="M5072 4350 c0 -14 2 -19 5 -12 2 6 2 18 0 25 -3 6 -5 1 -5 -13z"/>
<path d="M5120 4360 c0 -5 5 -10 10 -10 6 0 10 5 10 10 0 6 -4 10 -10 10 -5 0
-10 -4 -10 -10z"/>
<path d="M4875 4265 c-180 -28 -286 -79 -399 -191 -52 -52 -126 -158 -126
-181 0 -10 25 -13 116 -13 63 0 124 -5 136 -11 11 -6 26 -25 33 -43 12 -29 11
-46 -11 -152 -40 -195 -49 -217 -98 -261 -58 -51 -101 -63 -224 -63 l-100 0
-7 -32 c-10 -44 -22 -58 -54 -58 -62 0 -140 -81 -148 -153 -7 -64 46 -512 69
-581 36 -110 128 -216 234 -269 43 -22 165 -52 379 -93 169 -32 213 -35 201
-16 -2 4 2 49 8 99 9 66 9 96 2 104 -8 9 -8 10 2 5 6 -4 12 -2 12 4 0 6 5 8
12 4 7 -4 8 -3 4 5 -4 6 -12 9 -17 6 -5 -4 -9 4 -9 17 0 32 11 69 19 64 3 -2
7 9 8 25 1 16 -1 29 -5 29 -7 0 -8 44 -2 60 1 3 4 30 5 60 8 140 18 217 31
242 19 36 17 48 -3 23 l-16 -20 8 20 c15 43 26 167 13 159 -4 -3 -6 5 -5 16 1
11 4 20 8 20 4 0 5 8 2 19 -3 10 0 22 7 26 8 5 8 10 -1 21 -6 8 -7 14 -2 14 8
0 23 130 24 213 0 9 4 15 8 13 4 -3 8 1 8 9 0 8 -4 12 -9 9 -5 -3 -6 7 -3 23
3 15 8 57 10 93 6 92 14 130 28 130 8 0 7 3 -2 9 -9 6 -11 15 -6 27 8 18 11
35 19 119 2 22 7 56 10 75 10 60 15 231 9 313 l-6 77 -46 -1 c-25 -1 -82 -7
-126 -14z"/>
<path d="M5141 4154 c0 -11 3 -14 6 -6 3 7 2 16 -1 19 -3 4 -6 -2 -5 -13z"/>
<path d="M5151 3866 c-1 -15 -4 -16 -16 -6 -10 9 -15 9 -15 1 0 -6 5 -11 11
-11 6 0 8 -8 4 -19 -3 -11 0 -23 6 -27 8 -4 9 -3 5 4 -4 6 -2 21 4 32 6 12 9
26 6 33 -2 7 -5 4 -5 -7z"/>
<path d="M5036 3703 c-6 -14 -5 -15 5 -6 7 7 10 15 7 18 -3 3 -9 -2 -12 -12z"/>
<path d="M5126 3614 c-4 -9 -4 -19 -1 -22 2 -3 7 3 11 12 4 9 4 19 1 22 -2 3
-7 -3 -11 -12z"/>
<path d="M5088 3353 c6 -2 18 -2 25 0 6 3 1 5 -13 5 -14 0 -19 -2 -12 -5z"/>
<path d="M5085 3301 c-3 -5 0 -13 6 -17 8 -5 9 -3 4 6 -6 10 -4 12 9 7 10 -4
15 -3 11 3 -8 13 -22 13 -30 1z"/>
<path d="M5085 2970 c-3 -5 -1 -10 4 -10 6 0 11 5 11 10 0 6 -2 10 -4 10 -3 0
-8 -4 -11 -10z"/>
<path d="M5092 2910 c0 -14 2 -19 5 -12 2 6 2 18 0 25 -3 6 -5 1 -5 -13z"/>
<path d="M4900 2420 c0 -5 5 -10 10 -10 6 0 10 5 10 10 0 6 -4 10 -10 10 -5 0
-10 -4 -10 -10z"/>
<path d="M5042 1950 c0 -14 2 -19 5 -12 2 6 2 18 0 25 -3 6 -5 1 -5 -13z"/>
<path d="M5072 1950 c0 -14 2 -19 5 -12 2 6 2 18 0 25 -3 6 -5 1 -5 -13z"/>
<path d="M4840 1786 c0 -2 7 -7 16 -10 8 -3 12 -2 9 4 -6 10 -25 14 -25 6z"/>
<path d="M4851 1744 c0 -11 3 -14 6 -6 3 7 2 16 -1 19 -3 4 -6 -2 -5 -13z"/>
<path d="M4870 1519 c0 -5 5 -7 10 -4 6 3 10 8 10 11 0 2 -4 4 -10 4 -5 0 -10
-5 -10 -11z"/>
<path d="M4860 1447 c-27 -60 -50 -147 -50 -187 0 -20 11 -20 494 -20 l494 0
25 43 c14 23 43 63 66 89 l41 46 -71 22 c-39 12 -96 32 -126 46 l-56 24 -394
0 -394 -1 -29 -62z"/>
</g>
</svg>
