<?xml version="1.0" standalone="no"?>
<!DOCTYPE svg PUBLIC "-//W3C//DTD SVG 20010904//EN"
 "http://www.w3.org/TR/2001/REC-SVG-20010904/DTD/svg10.dtd">
<svg version="1.0" xmlns="http://www.w3.org/2000/svg"
 width="5133.000000pt" height="4602.000000pt" viewBox="0 0 5133.000000 4602.000000"
 preserveAspectRatio="xMidYMid meet">

<g transform="translate(0.000000,4602.000000) scale(0.100000,-0.100000)"
fill="#000000" stroke="none">
<path d="M13280 40209 c-103 -18 -133 -28 -162 -55 -35 -34 -58 -84 -58 -128
0 -28 -5 -34 -42 -50 -151 -62 -222 -97 -299 -146 -219 -138 -368 -324 -437
-547 -34 -107 -43 -165 -49 -308 -5 -130 6 -225 43 -374 16 -64 17 -62 -87
-186 -82 -98 -100 -139 -100 -227 0 -71 9 -97 49 -140 26 -28 25 -58 -3 -58
-27 0 -128 -56 -175 -98 -132 -116 -140 -313 -21 -494 61 -93 170 -203 246
-248 54 -32 66 -35 135 -35 56 1 88 6 127 24 79 35 83 43 35 95 -51 55 -72
126 -72 240 0 195 84 285 266 286 54 0 85 -4 91 -12 20 -26 38 -147 37 -258 0
-120 -13 -179 -65 -301 l-23 -52 -68 6 -69 6 -11 -32 c-22 -63 -95 -195 -141
-253 -72 -92 -124 -128 -318 -218 -119 -55 -188 -106 -216 -159 -16 -32 -19
-91 -13 -284 3 -118 2 -123 -23 -162 -29 -44 -74 -71 -152 -91 -92 -23 -139
-41 -220 -83 -107 -55 -237 -183 -282 -277 -57 -121 -67 -164 -66 -300 1 -182
39 -311 145 -484 l48 -78 -67 -72 c-38 -39 -99 -109 -138 -155 -38 -46 -99
-118 -135 -160 -36 -42 -126 -148 -200 -236 -74 -88 -189 -223 -255 -300 -66
-78 -151 -178 -190 -224 -38 -46 -128 -152 -200 -235 -71 -84 -174 -204 -227
-267 -53 -63 -110 -130 -126 -149 -17 -19 -96 -114 -178 -210 -81 -96 -153
-182 -161 -191 -12 -14 1 -25 108 -93 66 -43 139 -88 162 -100 35 -19 264
-165 712 -454 39 -25 95 -61 125 -80 95 -60 209 -135 394 -258 99 -65 183
-120 187 -122 8 -3 236 238 474 501 83 91 157 166 166 166 24 1 28 -35 35
-263 3 -111 9 -250 14 -311 6 -60 10 -171 10 -246 0 -74 4 -182 10 -240 5 -57
12 -174 15 -259 3 -85 10 -226 15 -314 6 -103 5 -174 -1 -205 -6 -25 -12 -66
-15 -91 -2 -25 -7 -61 -10 -80 -3 -19 -10 -71 -15 -115 -17 -160 -28 -242 -44
-350 -9 -60 -21 -146 -26 -190 -10 -87 -21 -180 -38 -320 -6 -49 -14 -97 -17
-105 -6 -15 -16 -101 -34 -280 -9 -92 -9 -96 15 -131 36 -55 106 -189 122
-233 20 -58 9 -62 -100 -42 -52 10 -103 16 -113 14 -21 -4 -27 -47 -58 -428
-9 -107 -21 -235 -26 -285 -5 -49 -17 -178 -25 -285 -9 -107 -18 -211 -20
-230 -2 -19 -6 -69 -10 -110 -3 -41 -10 -118 -15 -170 -5 -52 -12 -129 -14
-170 -7 -108 -23 -309 -41 -500 -30 -316 -36 -386 -45 -505 -6 -66 -16 -192
-24 -280 -8 -88 -21 -243 -30 -345 -9 -102 -20 -230 -26 -285 -5 -55 -12 -127
-14 -160 -3 -33 -10 -107 -15 -165 -6 -58 -13 -139 -16 -180 -3 -41 -10 -124
-16 -185 -5 -60 -14 -164 -19 -230 -5 -66 -17 -194 -25 -285 -27 -287 -35
-382 -45 -500 -5 -63 -16 -191 -25 -285 -8 -93 -20 -222 -25 -285 -6 -63 -14
-164 -19 -225 -6 -60 -15 -164 -20 -230 -6 -66 -15 -167 -21 -225 -5 -58 -12
-136 -15 -175 -4 -38 -10 -115 -15 -170 -5 -55 -20 -233 -35 -395 -14 -162
-30 -344 -36 -405 -5 -60 -14 -162 -19 -225 -5 -63 -16 -191 -25 -285 -8 -93
-20 -222 -25 -285 -6 -63 -15 -164 -20 -225 -5 -60 -14 -164 -20 -230 -5 -66
-15 -165 -20 -220 -10 -95 -30 -334 -50 -585 -5 -63 -16 -189 -24 -280 -29
-318 -37 -406 -46 -520 -6 -63 -17 -189 -25 -280 -18 -190 -31 -347 -45 -510
-6 -63 -17 -185 -25 -270 -8 -85 -19 -211 -25 -280 -15 -176 -29 -329 -46
-520 -8 -91 -19 -219 -24 -285 -5 -66 -14 -169 -20 -230 -6 -60 -15 -164 -20
-230 -9 -122 -31 -359 -50 -560 -6 -60 -15 -162 -20 -225 -11 -146 -27 -328
-40 -450 -9 -93 -30 -330 -35 -400 -1 -19 -7 -98 -14 -175 -6 -77 -12 -153
-14 -170 l-2 -30 298 -3 c253 -2 297 -4 297 -17 0 -15 -13 -56 -225 -700 -67
-203 -171 -518 -230 -700 -59 -181 -110 -339 -115 -350 -5 -11 -20 -56 -34
-100 -14 -44 -57 -174 -95 -290 -38 -115 -130 -394 -204 -620 -256 -780 -600
-1827 -736 -2240 -38 -115 -138 -419 -221 -675 -84 -256 -203 -618 -265 -805
-101 -305 -197 -597 -488 -1485 -49 -151 -104 -318 -122 -370 -18 -52 -97
-291 -175 -530 -78 -239 -170 -520 -205 -625 -35 -104 -82 -249 -105 -322 -23
-73 -47 -137 -54 -142 -12 -10 -3353 -17 -3363 -7 -2 2 -4 796 -4 1763 l1
1759 -50 69 c-96 134 -206 285 -300 412 -85 116 -330 450 -484 662 -34 46 -78
105 -99 132 l-37 49 -244 0 -244 0 -44 -70 -43 -69 -1332 -1 -1333 0 0 -195 0
-195 1185 0 c1002 0 1186 -2 1191 -14 3 -8 -114 -192 -268 -421 l-273 -407 0
-226 0 -227 -917 -3 -918 -2 0 -1523 0 -1524 3368 -8 c1852 -4 11179 -9 20727
-11 9548 -1 17363 -3 17366 -3 3 -1 35 -38 71 -83 37 -46 74 -92 85 -103 10
-11 59 -67 108 -124 354 -410 650 -683 805 -742 102 -39 170 -12 170 68 0 57
-49 213 -109 348 -46 101 -61 138 -61 148 0 6 -9 20 -19 31 -11 12 -33 56 -50
98 -17 42 -40 98 -52 125 -53 118 -60 137 -75 179 -8 24 -12 49 -9 54 4 7
1579 10 4506 10 l4499 0 0 1325 c0 1169 -2 1326 -15 1331 -8 4 -15 17 -15 30
0 13 -4 33 -9 46 -5 13 -17 50 -26 83 -9 33 -21 68 -26 77 -5 10 -9 28 -9 41
0 12 -7 33 -16 45 l-15 22 -1838 0 -1839 0 -10 -27 c-14 -37 -50 -150 -97
-298 -21 -66 -41 -129 -45 -140 -4 -11 -15 -45 -24 -75 -10 -30 -21 -64 -26
-75 -4 -11 -13 -40 -20 -65 -7 -25 -23 -74 -36 -110 -13 -36 -24 -71 -24 -78
0 -7 -4 -20 -9 -30 -5 -9 -26 -71 -47 -137 -20 -66 -56 -178 -79 -250 -24 -71
-59 -184 -80 -250 -20 -66 -41 -128 -46 -137 -5 -10 -9 -25 -9 -35 0 -9 -6
-24 -13 -32 -7 -9 -25 -56 -41 -106 -15 -49 -32 -99 -36 -110 -4 -11 -13 -40
-21 -65 l-14 -45 -395 -6 c-250 -3 -406 -10 -425 -17 -16 -6 -50 -17 -75 -24
-126 -36 -278 -149 -364 -272 -45 -64 -96 -164 -96 -190 0 -8 -4 -17 -9 -20
-13 -8 -21 -73 -29 -226 l-7 -135 -1578 -3 -1577 -2 -10 27 c-6 16 -14 37 -19
48 -29 67 -51 131 -51 149 0 12 15 44 33 71 19 28 37 62 40 78 4 15 10 38 13
52 8 32 -19 75 -47 75 -12 0 -32 -9 -46 -20 -14 -11 -29 -20 -34 -20 -10 0
-23 59 -15 68 4 3 148 5 321 3 l315 -3 0 39 c0 71 -30 283 -49 346 -16 52 -42
184 -103 517 -5 30 -14 73 -18 95 -5 22 -21 103 -35 180 -14 77 -30 163 -35
190 -23 115 -39 204 -50 265 -6 36 -15 83 -20 105 -10 43 -41 208 -70 370 -10
55 -34 183 -54 285 -19 102 -49 259 -65 350 -17 91 -35 188 -41 215 -6 28 -21
109 -35 180 -33 177 -94 500 -105 555 -5 25 -18 97 -30 160 -12 63 -28 147
-35 185 -7 39 -23 122 -35 185 -12 63 -28 147 -35 185 -7 39 -23 122 -35 185
-12 63 -28 149 -36 190 -8 41 -19 102 -25 135 -6 33 -15 80 -20 105 -4 25 -25
131 -44 235 -20 105 -42 222 -49 260 -8 39 -19 99 -26 135 -6 36 -16 85 -21
110 -4 25 -25 131 -44 235 -20 105 -51 271 -70 370 -19 99 -46 243 -60 320
-36 191 -41 222 -69 365 -13 69 -34 177 -46 240 -11 63 -37 198 -56 300 -44
230 -78 412 -105 555 -11 61 -27 142 -34 180 -13 64 -34 175 -71 380 -8 44
-19 98 -24 120 -5 22 -13 67 -19 100 -14 77 -59 317 -71 375 -4 25 -13 72 -19
105 -6 33 -22 119 -36 190 -14 72 -30 157 -36 190 -13 71 -36 191 -48 255 -5
25 -14 72 -20 105 -6 33 -22 119 -36 190 -14 72 -29 155 -35 185 -5 30 -21
114 -35 185 -14 72 -30 157 -36 190 -19 107 -29 158 -53 285 -14 69 -34 177
-46 240 -25 132 -46 243 -60 315 -5 28 -21 113 -35 190 -14 77 -30 160 -35
185 -5 25 -18 97 -30 160 -28 149 -48 253 -60 315 -5 28 -21 111 -35 185 -14
74 -29 158 -34 185 -6 28 -14 75 -20 105 -6 30 -17 89 -25 130 -8 41 -19 104
-26 140 -6 36 -15 83 -20 105 -8 36 -26 129 -50 260 -9 50 -16 90 -45 237 -21
108 -20 128 7 128 l21 0 -6 382 c-6 343 -8 391 -27 463 -37 143 -102 261 -203
372 -56 62 -59 69 -92 248 -10 50 -23 101 -31 115 -16 32 -34 229 -35 397 0
140 -11 278 -21 288 -4 4 -31 1 -60 -5 -29 -7 -72 -16 -95 -21 -69 -14 -124
-27 -193 -44 -36 -8 -87 -20 -115 -26 -27 -5 -68 -14 -90 -18 -49 -10 -231
-47 -305 -62 -30 -6 -74 -15 -97 -20 -23 -5 -58 -9 -79 -9 -20 0 -53 -4 -73
-9 -20 -5 -65 -14 -101 -20 -134 -22 -246 -42 -280 -52 -19 -5 -91 -25 -160
-44 -69 -18 -150 -41 -180 -49 -86 -23 -202 -55 -240 -66 -124 -36 -260 -73
-290 -80 -19 -4 -60 -15 -90 -24 -132 -38 -374 -104 -445 -122 -131 -33 -225
-58 -279 -75 -16 -5 -35 -9 -42 -9 -8 0 -93 73 -190 163 -416 382 -479 441
-483 449 -1 5 15 37 38 71 76 115 465 668 477 678 8 6 149 16 331 24 388 17
492 24 518 35 11 4 36 15 55 23 19 8 46 18 60 22 14 4 50 17 80 30 30 13 80
33 110 45 30 12 71 29 90 37 19 8 44 19 55 23 34 13 198 82 242 101 24 11 46
19 49 19 3 0 21 7 40 15 19 8 49 22 68 30 19 8 37 15 40 15 3 0 28 10 54 21
62 28 96 42 162 69 30 12 70 29 87 37 18 7 51 20 74 28 23 9 64 29 91 45 26
17 53 30 58 30 6 0 18 4 28 10 15 8 60 27 117 50 11 4 36 15 55 23 19 8 60 25
90 37 30 12 74 31 97 41 24 11 46 19 49 19 3 0 21 7 40 15 59 26 97 42 154 65
30 12 69 28 85 35 17 7 55 23 85 35 30 12 73 30 95 40 22 9 61 25 87 36 l48
19 -5 155 c-3 85 -8 187 -11 225 -3 39 -9 149 -14 245 -5 96 -15 252 -21 345
-14 221 -10 380 11 380 8 0 16 -9 19 -20 2 -11 46 -147 97 -302 52 -155 94
-289 94 -297 0 -30 23 -27 77 11 82 56 275 182 294 191 14 6 156 95 824 517
132 83 247 154 256 157 9 3 52 29 96 58 l81 52 -64 105 c-35 58 -64 107 -64
108 0 2 -63 108 -140 235 -77 128 -140 234 -140 235 0 1 -35 61 -79 132 -43
71 -80 134 -82 139 -6 13 -228 387 -309 519 -66 107 -210 350 -220 370 -3 6
-39 66 -80 135 -41 69 -79 133 -85 142 -75 128 -98 157 -184 237 -88 80 -238
198 -336 263 -50 33 -245 148 -251 148 -17 0 -154 75 -154 84 0 18 -52 71 -95
98 -84 52 -130 60 -333 57 -103 -2 -227 1 -275 5 -61 6 -100 5 -127 -2 -80
-24 -210 -54 -300 -71 -150 -28 -235 -33 -460 -28 -239 5 -317 13 -450 42 -41
9 -93 20 -115 25 -90 19 -132 32 -162 50 -44 26 -153 39 -238 29 -78 -10 -100
-17 -195 -64 -36 -18 -95 -40 -130 -49 -158 -41 -234 -63 -265 -76 -11 -4 -51
-20 -90 -35 -226 -90 -434 -217 -625 -383 -167 -144 -242 -231 -492 -572 -88
-121 -319 -432 -347 -469 -14 -18 -39 -52 -56 -75 -16 -22 -99 -135 -185 -251
-297 -399 -361 -488 -358 -501 2 -6 24 -29 49 -51 25 -21 129 -113 230 -204
165 -149 360 -324 579 -519 41 -37 122 -109 180 -161 134 -120 216 -189 223
-189 2 0 17 24 32 53 15 28 50 95 78 147 28 52 62 118 76 145 32 64 53 86 70
76 10 -7 11 -34 2 -142 -6 -74 -13 -204 -16 -289 -4 -85 -8 -180 -10 -210 -2
-30 -8 -161 -13 -290 -11 -266 -19 -350 -36 -350 -6 0 -40 19 -76 43 -36 24
-120 81 -188 126 -235 156 -367 254 -641 472 -535 424 -942 846 -1258 1304
-98 143 -170 259 -289 469 -43 77 -90 158 -103 180 -13 23 -69 129 -123 236
-191 371 -310 570 -472 785 -89 119 -355 379 -454 445 -80 53 -85 58 -128 143
-25 48 -51 87 -59 87 -8 0 -40 -7 -72 -16 -94 -26 -104 -26 -183 -6 -109 29
-315 45 -425 33 -103 -11 -86 -19 -245 115 -114 96 -113 95 -101 141 5 21 15
65 20 98 19 104 76 401 92 472 17 77 15 81 -53 112 -67 30 -204 91 -278 123
-88 38 -202 89 -257 115 -18 8 -36 12 -42 9 -5 -4 -80 -112 -166 -241 -86
-129 -160 -237 -165 -240 -10 -6 -358 9 -503 21 l-79 7 -23 51 c-12 28 -38 85
-57 126 -20 41 -47 100 -61 130 -13 30 -46 99 -72 154 -25 54 -51 110 -56 123
-11 28 22 29 -304 -7 -99 -11 -227 -25 -285 -31 -58 -6 -106 -12 -108 -14 -2
-2 -5 -27 -8 -56 -9 -115 -25 -288 -34 -370 -6 -47 -10 -113 -10 -146 0 -112
10 -103 -278 -245 -141 -71 -263 -128 -270 -128 -6 0 -120 70 -252 155 -132
85 -247 155 -254 155 -7 0 -65 -57 -127 -127 -63 -71 -174 -195 -248 -277
-121 -134 -133 -150 -122 -168 7 -11 87 -112 179 -225 92 -112 173 -213 180
-223 14 -19 15 -16 -113 -285 -31 -66 -75 -158 -97 -205 -22 -47 -43 -87 -45
-90 -3 -3 -158 -7 -346 -10 l-342 -5 -7 -70 c-3 -38 -14 -135 -23 -215 -8 -80
-20 -188 -25 -240 -5 -52 -12 -111 -15 -131 -6 -35 -6 -36 42 -53 26 -10 57
-21 68 -26 11 -4 52 -20 90 -35 39 -15 79 -31 90 -35 11 -5 76 -30 145 -55 69
-26 130 -53 137 -59 6 -6 30 -108 52 -226 23 -118 46 -233 51 -255 5 -22 12
-61 15 -87 l6 -47 -54 -43 c-53 -42 -303 -252 -381 -320 l-40 -35 23 -49 c13
-27 36 -76 51 -109 15 -33 41 -90 59 -127 17 -38 45 -98 62 -135 18 -38 44
-96 60 -129 15 -34 32 -65 38 -68 11 -7 92 17 550 163 44 14 68 18 76 11 7 -5
107 -105 224 -220 140 -141 211 -218 211 -232 0 -11 -4 -37 -10 -57 -5 -20
-18 -74 -29 -121 -111 -473 -107 -448 -71 -467 131 -70 564 -274 576 -271 8 2
93 100 188 218 l172 215 334 3 c260 2 335 -1 342 -10 8 -13 25 -56 127 -318
34 -85 65 -163 71 -172 5 -10 10 -24 10 -32 0 -35 23 -35 290 -1 146 18 298
36 338 40 41 4 86 10 100 14 l27 7 5 305 5 304 55 33 c30 18 62 37 70 43 12 7
10 13 -15 34 -16 13 -27 27 -24 29 3 3 55 2 115 -4 488 -42 678 -47 967 -25
186 14 316 16 710 12 614 -6 812 -20 897 -60 45 -21 520 -328 722 -467 109
-74 248 -170 310 -212 62 -42 237 -162 388 -267 151 -104 322 -223 380 -263
427 -294 674 -474 758 -552 l32 -30 0 -158 c0 -87 -4 -224 -10 -305 -5 -82
-11 -253 -13 -380 -2 -165 -6 -236 -15 -245 -9 -9 -12 -83 -13 -267 -1 -318
-6 -363 -37 -371 l-23 -5 0 -260 0 -260 50 -5 c27 -3 52 -8 56 -11 3 -4 12
-157 20 -340 28 -628 55 -1224 70 -1549 8 -179 20 -437 25 -575 5 -137 14
-338 19 -445 6 -107 13 -251 16 -320 3 -69 7 -181 10 -250 3 -69 12 -269 20
-445 8 -176 19 -422 25 -548 5 -125 14 -327 20 -450 5 -122 17 -373 25 -557 8
-184 17 -359 20 -390 2 -30 7 -134 10 -230 3 -96 10 -263 15 -370 5 -107 16
-355 24 -550 9 -195 18 -364 20 -375 3 -11 6 -83 6 -160 1 -77 6 -210 11 -295
19 -337 29 -563 34 -735 3 -99 8 -193 10 -210 2 -16 7 -122 10 -235 3 -113 8
-227 10 -255 6 -57 23 -432 30 -675 3 -91 8 -190 11 -221 2 -31 11 -207 19
-390 21 -471 33 -749 45 -1014 6 -126 17 -372 25 -545 8 -173 16 -353 19 -400
3 -47 8 -159 11 -250 3 -91 10 -253 15 -360 40 -806 41 -844 20 -859 -19 -12
-20 -26 -20 -182 0 -129 3 -169 13 -169 91 1 347 -9 356 -14 6 -4 11 -29 11
-57 0 -43 -3 -49 -20 -49 -18 0 -20 -4 -15 -33 6 -28 0 -40 -35 -85 -23 -29
-46 -50 -51 -46 -5 3 -9 20 -9 39 0 29 -3 32 -21 28 -12 -3 -24 -2 -28 3 -19
28 -64 44 -120 44 -54 0 -62 -3 -77 -26 -16 -24 -16 -26 2 -43 28 -27 105 -54
117 -42 6 6 -2 12 -24 16 -47 9 -84 38 -75 60 5 15 16 17 71 13 57 -3 69 -8
100 -38 41 -40 45 -60 10 -60 -29 0 -33 -15 -7 -29 20 -11 10 -17 -48 -24 -19
-3 -60 -13 -90 -22 -30 -9 -70 -19 -88 -22 -18 -3 -35 -9 -38 -14 -3 -5 -15
-9 -27 -9 -12 0 -40 -7 -62 -14 -22 -8 -50 -12 -63 -9 -12 3 -28 1 -35 -5 -6
-5 -32 -17 -57 -25 -199 -69 -298 -119 -318 -160 l-13 -27 -3163 0 c-2874 0
-3165 1 -3177 16 -7 9 -122 343 -255 742 -225 674 -265 794 -284 847 -18 51
-53 155 -67 200 -9 28 -31 93 -49 146 -19 53 -34 103 -34 112 0 9 -4 18 -9 21
-5 3 -11 18 -14 33 -2 16 -18 66 -34 113 -54 151 -95 274 -103 305 -8 30 -66
203 -80 240 -5 11 -20 58 -35 105 -15 47 -31 94 -35 105 -13 37 -49 144 -334
995 -657 1966 -1370 4095 -1648 4925 -164 490 -638 1907 -1053 3150 -415 1243
-759 2274 -765 2290 -6 17 -40 118 -76 225 -90 272 -590 1766 -724 2165 -61
182 -114 339 -119 350 -5 11 -79 232 -165 490 -85 259 -205 619 -266 800 -61
182 -191 573 -290 870 -594 1782 -721 2162 -729 2180 -4 11 -13 36 -20 55 -39
115 -1610 4811 -1842 5505 -110 330 -205 612 -211 628 l-10 27 -487 0 -487 0
-18 -72 c-10 -40 -22 -86 -27 -103 -5 -16 -16 -59 -24 -95 -9 -36 -43 -171
-76 -300 -34 -129 -65 -253 -70 -275 -5 -22 -13 -56 -18 -75 -75 -290 -116
-446 -127 -495 -13 -53 -46 -182 -74 -285 -5 -19 -16 -64 -25 -100 -9 -36 -39
-153 -67 -260 -27 -107 -54 -213 -59 -235 -4 -22 -19 -80 -32 -130 -27 -105
-45 -117 -63 -40 -7 28 -65 257 -129 510 -65 253 -121 476 -125 495 -4 19 -24
100 -45 180 -20 80 -41 161 -45 180 -28 125 -272 1075 -280 1091 -10 18 -25
19 -409 19 -314 0 -401 -3 -409 -13 -10 -12 -143 -407 -362 -1077 -46 -140
-134 -408 -195 -595 -62 -187 -129 -392 -150 -455 -20 -63 -41 -119 -46 -125
-18 -18 -29 18 -29 90 0 95 -17 464 -30 655 -5 85 -10 214 -10 285 0 72 -5
173 -10 225 -5 52 -9 165 -10 250 -1 85 -5 178 -10 205 -6 28 -15 174 -21 325
-6 151 -13 320 -16 375 -4 71 0 120 11 170 21 97 40 163 49 171 4 4 7 18 7 30
0 13 5 26 10 29 6 3 10 16 10 29 0 12 4 26 9 32 12 13 74 202 101 305 11 44
10 192 -3 264 -3 17 -8 59 -12 95 -4 36 -11 72 -15 81 -5 8 -5 21 0 29 14 22
35 -3 78 -89 36 -71 121 -231 128 -240 6 -7 100 75 366 314 85 77 224 201 308
275 85 74 183 162 219 195 36 33 89 80 116 104 120 106 255 234 255 243 0 5
-59 89 -131 186 -144 194 -164 221 -245 332 -30 41 -70 95 -89 120 -40 53
-239 321 -348 470 -43 58 -91 123 -108 145 -110 144 -199 270 -199 281 0 7 5
16 10 19 19 12 69 123 91 201 15 55 23 121 26 218 15 373 -103 695 -341 932
-161 161 -346 257 -537 279 -114 13 -112 9 -80 128 39 144 46 194 46 327 0
142 -15 212 -67 314 -32 62 -134 156 -223 205 -106 59 -180 115 -206 158 -12
19 -25 31 -30 26 -4 -4 -4 -73 1 -153 13 -196 12 -523 -1 -596 -46 -261 -226
-457 -499 -544 -41 -13 -81 -28 -89 -34 -11 -8 -12 -34 -7 -121 3 -60 7 -191
8 -289 l1 -180 -29 -9 c-170 -50 -270 -67 -536 -93 -153 -15 -181 -15 -335 0
-241 23 -327 37 -474 76 l-87 23 -6 56 c-8 64 -33 397 -46 611 -5 80 -14 210
-19 289 l-11 144 48 76 c97 153 149 308 182 542 12 83 8 513 -6 646 -5 44 -3
52 13 57 35 11 96 81 124 141 42 90 59 190 66 398 3 103 9 190 13 192 4 2 25
8 48 13 l42 10 164 -132 c97 -77 194 -146 238 -168 81 -40 176 -68 233 -68 36
0 37 1 31 31 -7 34 -8 34 94 -3 159 -59 467 -118 611 -118 93 0 150 20 180 62
18 25 21 40 17 96 l-5 67 45 46 c52 56 70 88 79 143 3 22 15 57 25 77 12 24
19 58 19 101 1 153 -88 250 -313 342 -28 11 -38 21 -38 37 0 47 -78 266 -128
359 -139 257 -334 431 -587 522 -130 47 -222 64 -389 73 -55 3 -102 7 -105 10
-3 3 -17 27 -31 52 -42 77 -110 97 -250 72z m-292 -335 c20 -14 21 -17 8 -43
-8 -15 -69 -84 -135 -154 -182 -192 -259 -306 -323 -478 -52 -140 -77 -237
-107 -414 -9 -49 -25 -81 -47 -89 -23 -9 -67 42 -83 95 -7 24 -18 57 -23 72
-16 42 -12 252 6 337 45 210 164 404 324 532 93 74 151 107 232 135 77 27 118
29 148 7z m302 -1023 c0 -16 -24 -28 -120 -61 -341 -118 -629 -277 -926 -512
-56 -44 -84 -58 -84 -42 0 33 185 196 349 306 198 132 465 251 673 297 98 23
108 24 108 12z m1882 -5306 c8 -19 8 -28 -3 -41 -11 -14 -39 -16 -236 -12
-191 3 -225 5 -239 20 -9 9 -14 23 -11 32 7 17 54 21 320 24 l157 2 12 -25z
m-337 -444 l370 -6 0 -30 0 -30 -410 -8 c-225 -4 -568 -6 -761 -5 -374 3 -389
5 -382 52 3 19 11 22 93 27 123 7 643 8 1090 0z m-1645 -16 c6 -8 10 -22 8
-32 -3 -16 -19 -18 -173 -21 -94 -2 -194 0 -223 3 -47 6 -53 9 -50 28 4 31 31
35 239 36 152 1 189 -2 199 -14z m2440 -20 c0 -14 -4 -25 -9 -25 -12 0 -23 29
-15 41 10 18 24 9 24 -16z m1358 -4211 c1 -10 7 -35 12 -54 5 -19 25 -100 45
-180 20 -80 47 -185 60 -235 12 -49 137 -546 276 -1103 208 -832 251 -1017
243 -1040 l-9 -27 -366 -3 c-331 -2 -368 -1 -380 14 -8 10 -46 69 -86 133 -39
64 -153 244 -252 401 l-180 286 73 219 c40 121 176 531 301 910 125 380 230
694 232 698 8 14 28 1 31 -19z m2487 -329 c54 -165 173 -527 265 -805 92 -278
231 -699 310 -937 78 -237 139 -436 135 -442 -9 -16 -1442 -15 -1447 0 -3 10
21 119 52 239 5 19 30 121 55 225 52 214 71 294 85 345 5 19 25 100 44 180 73
303 127 526 136 560 5 19 26 103 45 185 20 83 47 193 60 245 13 52 40 163 60
245 19 83 40 164 45 181 6 17 10 42 10 55 0 33 20 54 36 37 6 -7 55 -148 109
-313z m9725 -2586 c58 -7 111 -18 119 -25 12 -11 12 -22 -3 -76 l-17 -63 -121
-65 c-135 -72 -129 -65 -172 -215 -40 -135 -40 -136 -121 -155 -121 -28 -247
-96 -342 -183 l-42 -38 -123 93 c-68 52 -174 129 -235 172 -62 44 -113 82
-113 86 0 8 136 142 185 183 87 72 256 164 380 209 116 42 176 57 300 73 122
17 181 17 305 4z m239 -45 c42 -9 39 -30 -9 -54 -53 -27 -60 -26 -60 13 0 49
7 53 69 41z m-8904 -591 c65 -197 133 -401 151 -454 19 -53 34 -101 34 -108 0
-6 4 -19 9 -29 5 -9 22 -55 37 -102 14 -47 30 -94 34 -105 5 -11 61 -182 126
-380 102 -314 444 -1347 474 -1430 5 -16 50 -151 99 -300 48 -148 109 -334
135 -413 26 -78 44 -147 41 -152 -10 -16 -1900 -13 -1912 3 -5 6 -27 82 -48
167 -20 85 -52 214 -71 285 -18 72 -76 301 -128 510 -128 513 -395 1573 -446
1770 -85 328 -270 1068 -270 1081 0 12 134 14 809 14 l809 0 117 -357z m-3093
235 c3 -7 1 -24 -4 -38 -4 -14 -14 -45 -21 -69 -14 -49 -33 -63 -44 -34 -4 10
-22 41 -40 70 -49 77 -46 83 36 83 46 0 71 -4 73 -12z m10713 -223 c81 -57
187 -130 236 -161 49 -30 89 -57 89 -59 0 -2 -16 -27 -36 -56 -59 -88 -93
-169 -118 -286 -21 -97 -20 -180 5 -288 11 -49 21 -103 22 -119 2 -33 8 -29
-201 -136 -132 -67 -230 -120 -300 -161 -18 -10 -38 -19 -43 -19 -13 0 -33 48
-64 157 -80 270 -73 563 17 828 51 152 197 405 233 405 7 0 79 -47 160 -105z
m832 -21 c122 -33 342 -89 413 -106 115 -26 138 -38 188 -96 84 -97 172 -258
172 -315 0 -12 4 -28 9 -35 19 -31 19 19 0 85 -10 37 -19 72 -19 78 0 6 15 16
33 24 17 8 75 34 127 58 l95 45 105 -27 c58 -14 121 -30 140 -35 134 -32 134
-33 147 -75 30 -102 37 -159 37 -315 0 -95 -5 -195 -13 -235 -19 -99 -76 -277
-118 -364 -62 -131 -180 -301 -207 -301 -7 0 -28 16 -47 36 -79 82 -417 354
-440 354 -15 0 -10 37 7 51 26 21 94 126 118 182 31 71 59 175 50 188 -9 15
-24 -9 -24 -41 0 -38 -93 -218 -143 -279 -112 -135 -261 -219 -448 -254 l-76
-14 -232 77 c-218 72 -235 80 -278 121 -341 331 -278 879 128 1120 56 33 182
86 211 88 4 1 33 -6 65 -15z m-14710 -54 c6 -8 71 -87 145 -175 73 -89 160
-194 192 -234 l60 -73 -63 -191 c-35 -106 -74 -221 -86 -257 -12 -36 -66 -198
-119 -360 -53 -162 -140 -430 -195 -595 -264 -805 -351 -1071 -351 -1079 0 -4
-8 -19 -19 -32 l-18 -24 4 48 c4 46 8 76 37 262 8 52 20 131 26 175 6 44 16
109 21 145 28 191 51 350 55 385 2 22 9 69 15 105 17 113 51 352 59 425 5 39
13 106 19 150 5 44 15 121 21 170 6 50 13 97 15 105 4 15 17 111 36 275 5 44
13 112 18 150 33 243 58 447 67 555 8 104 12 114 32 98 9 -7 22 -20 29 -28z
m15483 -144 c52 -15 110 -29 128 -33 17 -3 32 -11 32 -18 0 -14 -159 -107
-176 -103 -13 3 -124 165 -124 181 0 11 10 9 140 -27z m-1352 -850 c17 -29 53
-80 80 -112 l49 -59 -17 -55 c-9 -30 -25 -80 -34 -110 l-17 -54 52 -76 c79
-113 155 -214 240 -317 l76 -92 -22 -68 -22 -68 -39 2 c-107 7 -352 117 -504
226 -98 71 -261 245 -331 352 -36 55 -71 113 -79 129 -18 36 -32 26 220 168
107 60 220 127 250 148 30 21 58 38 62 39 3 1 20 -23 36 -53z m1187 -185 c3
-6 61 -58 128 -118 224 -197 327 -296 327 -314 0 -43 -30 -39 -240 32 -113 38
-294 99 -403 135 -109 37 -196 71 -194 77 2 6 25 16 53 24 93 27 244 110 283
157 15 18 37 21 46 7z m-13939 -491 c439 -534 434 -528 466 -595 44 -95 58
-164 58 -289 0 -136 -16 -191 -100 -351 -31 -60 -117 -227 -190 -370 -73 -143
-137 -266 -143 -272 -7 -10 -136 -13 -583 -13 -341 0 -575 4 -579 9 -3 5 48
171 114 368 65 197 232 700 370 1117 138 417 254 763 257 768 3 5 9 8 14 6 4
-2 146 -172 316 -378z m13277 -307 c45 -54 39 -67 -25 -58 -62 9 -71 17 -59
46 5 13 12 32 15 42 9 27 28 19 69 -30z m628 -548 c94 -62 255 -144 356 -180
37 -14 71 -29 76 -34 14 -14 -9 -90 -29 -98 -26 -10 -366 211 -450 292 -50 50
-66 75 -46 75 5 0 47 -25 93 -55z m-10938 -421 c7 -7 -25 -73 -35 -74 -12 0
-10 23 5 53 12 27 19 32 30 21z m84 -315 c34 -134 107 -424 162 -644 56 -220
105 -416 111 -435 17 -63 72 -284 80 -320 7 -33 60 -245 80 -320 16 -59 72
-283 80 -320 4 -19 22 -91 39 -160 73 -284 182 -718 191 -760 4 -19 21 -89 38
-155 44 -169 93 -364 102 -405 4 -19 23 -93 41 -165 17 -71 83 -335 145 -585
63 -250 118 -471 124 -490 5 -19 84 -334 176 -700 91 -366 248 -993 349 -1395
346 -1377 1067 -4250 1075 -4285 8 -37 64 -261 80 -320 5 -19 16 -62 24 -95 8
-33 22 -87 31 -120 9 -33 20 -80 25 -105 5 -25 21 -88 35 -140 14 -52 30 -113
34 -135 10 -44 66 -269 81 -325 16 -57 77 -303 82 -330 3 -14 20 -81 37 -150
18 -69 48 -188 67 -265 19 -77 39 -156 45 -175 14 -53 141 -560 149 -600 5
-19 21 -87 38 -150 16 -63 32 -126 35 -140 3 -14 157 -628 342 -1365 185 -737
340 -1356 345 -1375 4 -19 71 -289 149 -600 287 -1137 312 -1242 307 -1256 -5
-12 -712 -14 -5166 -14 -2838 0 -5160 4 -5160 8 0 8 32 145 51 217 18 70 36
144 134 550 20 83 40 166 45 185 5 19 17 64 25 100 9 36 20 81 25 100 5 19 25
103 45 185 20 83 40 166 45 185 8 29 48 198 92 380 5 25 17 70 25 100 18 67
25 95 57 230 36 152 132 545 168 685 16 66 34 138 39 160 15 72 126 532 149
615 5 19 30 121 55 225 47 196 69 284 85 345 5 19 16 64 24 100 20 86 124 515
136 563 17 65 28 108 65 262 20 83 47 193 60 245 13 52 40 163 60 245 19 83
40 166 45 185 9 36 72 294 135 555 20 83 47 193 60 245 13 52 40 163 60 245
19 83 40 168 46 190 19 72 28 108 64 260 19 83 46 193 60 245 13 52 40 163 60
245 19 83 40 166 45 185 5 19 25 103 45 185 19 83 40 166 45 185 5 19 26 103
45 185 20 83 47 193 60 245 13 52 40 163 60 245 19 83 39 166 44 185 6 19 31
121 56 225 25 105 55 226 67 270 11 44 24 96 28 115 5 19 13 55 18 80 6 25 19
81 30 125 12 44 41 166 67 270 25 105 50 206 55 225 5 19 25 100 44 180 69
287 157 646 166 680 9 34 64 258 136 560 19 80 39 161 44 180 5 19 37 148 70
285 33 138 65 266 70 285 5 19 25 100 44 180 78 324 107 447 116 480 5 19 16
64 25 100 16 66 25 102 44 175 5 22 26 105 45 185 84 351 107 447 116 480 5
19 21 85 36 145 14 61 30 124 35 140 5 17 41 161 79 320 151 620 134 564 230
766 49 102 129 268 178 370 203 417 268 551 339 699 42 85 112 232 158 325 45
94 122 251 170 350 48 99 120 248 160 330 40 83 116 240 170 350 53 110 111
232 130 270 19 39 50 104 70 145 20 41 53 102 75 135 56 87 138 220 179 292
20 34 41 61 46 59 6 -1 38 -113 72 -247z m3225 -901 c25 -72 505 -1528 616
-1868 17 -53 86 -259 117 -350 18 -52 38 -115 45 -140 7 -25 27 -88 45 -140
18 -52 101 -304 185 -560 84 -256 171 -518 192 -582 22 -65 37 -122 33 -128
-4 -7 -379 -10 -1131 -10 l-1124 0 -11 28 c-6 15 -40 142 -76 282 -35 140 -82
325 -105 410 -22 85 -43 171 -48 190 -7 32 -137 547 -196 780 -14 52 -28 113
-33 135 -5 22 -25 103 -45 180 -20 77 -41 158 -45 180 -14 64 -378 1503 -400
1580 -11 38 -17 73 -15 77 3 4 448 8 988 8 l983 0 25 -72z m-6537 -68 c4 -6
-7 -34 -23 -63 -16 -28 -94 -178 -172 -332 -79 -154 -177 -347 -220 -430 -116
-225 -264 -513 -395 -770 -65 -126 -158 -309 -208 -405 -49 -96 -140 -274
-202 -395 -62 -121 -122 -237 -134 -259 -12 -21 -20 -44 -18 -50 3 -6 56 -38
118 -70 181 -94 214 -114 217 -129 2 -8 -11 -38 -28 -66 -16 -29 -30 -55 -30
-58 0 -3 -11 -20 -24 -38 -24 -31 -34 -48 -108 -185 -66 -120 -90 -165 -110
-197 l-19 -32 58 -39 c51 -34 148 -93 527 -318 55 -32 100 -63 100 -69 1 -16
-1639 -19 -1652 -3 -7 9 40 163 167 548 256 771 731 2205 894 2700 152 461
203 613 217 648 l10 22 514 0 c337 0 517 -4 521 -10z m22636 -4450 c16 -91 25
-138 58 -300 17 -85 36 -180 42 -210 6 -30 15 -73 20 -95 7 -33 32 -158 62
-315 2 -14 17 -83 32 -155 15 -71 31 -150 35 -175 4 -25 21 -115 39 -200 17
-85 36 -180 42 -210 6 -30 15 -73 20 -95 7 -33 42 -208 62 -315 2 -14 18 -92
35 -175 16 -82 32 -161 35 -175 3 -14 17 -83 32 -155 15 -71 31 -150 35 -175
4 -25 26 -135 48 -245 22 -110 42 -211 45 -225 2 -14 17 -83 32 -155 15 -71
31 -150 35 -175 4 -25 20 -103 35 -175 15 -71 29 -141 32 -155 12 -65 55 -279
63 -315 4 -22 13 -65 19 -95 6 -30 25 -125 42 -210 17 -85 35 -175 39 -200 5
-25 20 -101 35 -170 14 -69 30 -145 34 -170 7 -38 30 -152 81 -405 5 -27 19
-95 31 -150 27 -132 38 -190 49 -250 5 -27 21 -106 35 -175 15 -69 30 -145 35
-170 7 -44 59 -305 80 -405 26 -122 72 -354 80 -400 5 -27 21 -106 35 -175 15
-69 30 -145 35 -170 4 -25 21 -112 38 -195 16 -82 32 -161 35 -175 2 -14 38
-194 80 -400 41 -206 77 -386 80 -400 2 -14 18 -92 35 -175 16 -82 32 -161 35
-175 2 -14 141 -702 307 -1530 166 -828 304 -1516 307 -1530 3 -14 20 -101 39
-195 19 -93 38 -192 44 -220 5 -27 19 -94 30 -148 11 -54 18 -103 15 -108 -4
-5 -15 -9 -25 -9 -10 0 -22 -5 -25 -11 -6 -9 14 -111 37 -186 l10 -33 353 0
c409 0 365 14 390 -122 44 -237 77 -358 105 -383 52 -47 133 -45 -1777 -47
-989 -2 -1822 -2 -1851 0 -70 4 -57 22 17 22 100 0 95 -15 83 298 -7 149 -9
278 -6 287 6 14 38 15 263 14 141 -1 266 -6 278 -10 39 -14 42 5 33 201 -5
102 -9 186 -10 187 0 0 -13 6 -29 11 -37 13 -38 22 -40 322 0 135 -4 268 -6
295 -5 45 -11 234 -45 1420 -6 187 -15 491 -20 675 -6 184 -17 560 -25 835 -8
275 -17 541 -20 590 -3 50 -7 209 -10 355 -3 146 -10 400 -15 565 -18 562 -40
1310 -45 1525 -5 223 -18 644 -34 1075 -6 138 -10 342 -11 455 0 113 -3 219
-6 235 -2 17 -11 264 -19 550 -35 1203 -74 2501 -95 3140 -5 160 -9 328 -9
375 0 85 0 85 15 50 9 -19 20 -60 25 -90z m-14604 -17 c17 -49 57 -171 91
-273 33 -102 74 -223 90 -270 16 -47 121 -362 232 -700 111 -338 247 -750 301
-915 55 -165 108 -327 120 -360 11 -33 28 -82 36 -110 9 -27 30 -93 48 -145
18 -52 80 -243 140 -425 59 -181 111 -340 116 -353 5 -13 9 -32 9 -42 0 -20
-17 -20 -1300 -20 -1227 0 -1300 1 -1309 18 -5 9 -52 188 -104 397 -53 209
-110 434 -127 500 -17 66 -35 138 -39 160 -5 22 -22 92 -39 155 -16 63 -32
126 -35 140 -3 14 -37 151 -76 305 -40 154 -76 298 -80 320 -5 22 -66 265
-136 540 -215 849 -285 1129 -285 1148 0 16 62 17 1159 17 l1158 0 30 -87z
m-8310 -116 c1 -2 -25 -111 -58 -243 -34 -131 -65 -255 -69 -274 -7 -32 -63
-249 -177 -690 -24 -96 -48 -191 -53 -210 -4 -19 -36 -143 -70 -275 -62 -237
-69 -266 -89 -355 -6 -25 -18 -70 -27 -100 -8 -30 -19 -73 -24 -95 -5 -22 -16
-67 -25 -100 -26 -97 -126 -486 -136 -530 -5 -22 -13 -56 -18 -75 -5 -19 -32
-125 -61 -235 -51 -193 -58 -224 -78 -310 -25 -108 -63 -240 -73 -252 -9 -11
-215 -13 -1165 -13 -704 0 -1155 4 -1159 9 -3 5 26 48 63 95 65 81 70 91 91
183 13 54 30 122 38 150 l14 53 206 2 206 3 8 25 c4 14 14 75 23 135 19 128
44 303 52 360 7 49 32 219 44 300 5 33 14 94 19 135 6 41 21 138 32 215 12 77
25 169 29 205 5 36 20 142 35 235 14 94 30 199 35 235 5 36 13 99 19 140 6 41
22 152 36 245 14 94 30 202 35 240 5 39 17 115 25 170 9 55 20 132 25 170 5
39 14 102 19 140 6 39 13 88 16 110 18 129 29 191 36 200 7 9 2167 11 2176 2z
m9779 -4327 c69 -208 419 -1269 616 -1870 88 -267 163 -494 168 -505 5 -11 52
-153 104 -315 53 -162 102 -305 107 -317 6 -11 8 -26 5 -32 -11 -17 -2900 -15
-2913 2 -6 6 -13 26 -17 42 -12 51 -21 88 -134 535 -318 1252 -385 1517 -389
1540 -3 14 -19 77 -36 140 -16 63 -33 131 -37 150 -5 19 -49 197 -99 395 -50
198 -91 368 -91 377 0 17 64 18 1332 16 l1332 -3 52 -155z m-10906 -100 c0 -8
-43 -178 -111 -440 -5 -19 -13 -53 -18 -75 -10 -42 -62 -246 -268 -1045 -25
-96 -48 -191 -53 -210 -9 -40 -42 -169 -95 -375 -35 -135 -45 -172 -64 -252
-10 -41 -106 -415 -122 -473 -5 -19 -13 -53 -18 -75 -5 -22 -21 -85 -36 -140
-15 -55 -30 -118 -35 -140 -5 -22 -16 -67 -25 -100 -9 -33 -29 -111 -46 -174
-16 -63 -35 -119 -42 -123 -6 -5 -21 -6 -32 -3 -11 2 -656 5 -1432 5 -1276 0
-1413 2 -1413 16 0 8 29 104 65 212 36 108 188 568 338 1022 151 454 389 1175
531 1602 141 427 261 778 266 780 27 9 2610 -3 2610 -12z m12206 -3840 c39
-118 160 -483 268 -810 280 -849 543 -1647 736 -2230 92 -278 231 -701 310
-940 78 -239 158 -478 176 -531 19 -53 34 -101 34 -108 0 -6 4 -19 10 -29 19
-36 101 -306 96 -318 -8 -20 -3348 -21 -3364 -1 -8 10 -103 366 -132 497 -4
19 -20 82 -35 140 -15 58 -30 121 -35 140 -4 19 -72 287 -150 595 -143 564
-154 605 -166 660 -3 17 -16 68 -29 115 -13 47 -26 99 -29 115 -10 44 -15 63
-129 515 -207 815 -409 1616 -418 1655 -5 22 -49 197 -98 390 -49 192 -87 353
-85 357 3 5 672 7 1487 6 l1481 -3 72 -215z m-13306 -459 c0 -11 -19 -91 -41
-178 -41 -158 -50 -193 -67 -268 -5 -22 -38 -148 -72 -280 -34 -132 -66 -256
-70 -275 -7 -32 -35 -139 -172 -670 -27 -107 -54 -211 -58 -230 -4 -19 -36
-143 -70 -275 -34 -132 -66 -256 -70 -275 -5 -19 -28 -114 -53 -210 -110 -425
-190 -738 -197 -770 -5 -19 -20 -80 -35 -135 -15 -55 -30 -118 -35 -140 -5
-22 -16 -67 -25 -100 -38 -141 -116 -445 -134 -522 -11 -50 -30 -120 -42 -160
l-11 -33 -1644 0 c-904 0 -1644 3 -1644 6 0 3 40 126 89 272 49 147 276 834
506 1527 229 693 477 1440 550 1660 73 220 176 533 229 695 53 162 104 314
113 338 l16 42 1468 0 c1445 0 1469 0 1469 -19z m34830 -1776 c0 -14 -18 -78
-39 -143 -48 -141 -152 -439 -176 -502 -24 -64 -66 -171 -75 -195 -5 -11 -20
-51 -35 -90 -15 -38 -42 -106 -60 -150 -18 -44 -40 -97 -49 -117 -17 -42 -36
-50 -36 -15 0 20 85 291 123 392 8 22 27 74 42 115 15 41 30 84 35 95 4 11 25
65 45 120 20 55 40 109 45 120 5 11 34 84 65 163 76 191 94 232 105 232 6 0
10 -11 10 -25z m-1196 -2069 c46 -12 75 -36 44 -36 -189 -1 -279 -9 -354 -32
-186 -59 -321 -161 -428 -323 -91 -138 -85 -130 -92 -112 -11 30 80 200 146
271 131 140 254 207 440 239 55 9 198 5 244 -7z m-4256 -208 c18 -18 14 -52
-12 -110 -27 -59 -60 -88 -70 -62 -3 9 -6 41 -6 72 0 47 4 62 25 85 28 29 44
34 63 15z m-5898 -30 c0 -7 3 -23 6 -35 5 -17 -1 -25 -25 -37 -40 -21 -51 -20
-51 4 0 11 4 20 9 20 6 0 18 14 28 30 18 31 33 39 33 18z"/>
<path d="M28943 25170 c-158 -34 -314 -154 -384 -295 -43 -88 -59 -158 -59
-260 0 -164 51 -287 164 -400 177 -175 421 -214 654 -105 128 60 253 211 293
355 18 64 18 235 0 300 -49 178 -201 335 -378 391 -57 18 -231 27 -290 14z"/>
<path d="M14595 38014 c-48 -18 -85 -51 -85 -77 0 -18 7 -18 173 -12 188 8
217 16 183 54 -42 47 -187 66 -271 35z"/>
<path d="M13810 38014 c-70 -8 -140 -28 -155 -44 -28 -31 -9 -48 60 -55 57 -6
258 9 277 21 18 11 6 44 -20 58 -32 16 -108 26 -162 20z"/>
<path d="M14686 37876 c-52 -20 -84 -52 -68 -68 7 -7 12 -27 12 -46 0 -24 8
-42 29 -63 69 -68 168 -3 141 92 -5 16 -5 31 -1 33 4 3 28 -3 54 -12 51 -18
64 -14 48 16 -25 47 -146 74 -215 48z"/>
<path d="M13810 37808 c-69 -20 -121 -78 -70 -78 18 0 20 -5 15 -32 -7 -45 13
-79 57 -96 30 -12 41 -12 64 0 44 21 61 58 47 108 -11 41 -10 42 13 36 13 -3
35 -9 49 -12 19 -5 25 -2 25 9 0 22 -49 54 -101 66 -52 12 -53 12 -99 -1z"/>
<path d="M14295 37750 c-8 -12 77 -265 169 -503 25 -66 46 -127 46 -138 0 -18
-3 -20 -110 -37 -60 -10 -57 -26 5 -30 130 -9 168 19 148 106 -25 107 -229
612 -248 612 -2 0 -7 -4 -10 -10z"/>
<path d="M14120 37014 c0 -52 193 -167 304 -180 63 -8 129 2 124 18 -3 7 -30
18 -63 25 -86 20 -134 37 -250 93 -106 51 -115 54 -115 44z"/>
<path d="M24955 34919 c-49 -4 -126 -10 -170 -13 -44 -4 -102 -11 -130 -17
-53 -10 -177 -23 -369 -39 -77 -6 -122 -14 -128 -22 -4 -7 -8 -37 -9 -65 -1
-29 -3 -65 -5 -80 -5 -36 -22 -298 -31 -490 -5 -83 -10 -153 -13 -155 -3 -3
-81 -43 -175 -90 -93 -47 -251 -127 -349 -177 -99 -50 -186 -91 -193 -91 -8 0
-50 26 -95 58 -44 31 -97 69 -117 83 -20 14 -99 70 -176 125 -77 55 -184 131
-238 169 -55 39 -104 74 -111 79 -8 5 -56 -24 -140 -85 -70 -52 -181 -132
-246 -179 -242 -173 -359 -260 -365 -269 -3 -6 17 -58 45 -116 27 -59 50 -108
50 -110 0 -1 23 -52 51 -111 78 -165 128 -273 156 -334 14 -30 36 -77 49 -103
13 -27 24 -59 24 -71 0 -12 -92 -160 -205 -329 -113 -169 -205 -309 -205 -310
0 -2 21 0 48 4 64 10 148 0 176 -22 13 -10 26 -30 29 -45 5 -30 -7 -156 -24
-229 -20 -93 -47 -196 -64 -250 -6 -22 -17 -58 -24 -80 -29 -96 -98 -231 -133
-260 -38 -32 -120 -56 -243 -71 -22 -2 -76 -9 -120 -16 -44 -6 -147 -14 -230
-19 -413 -23 -467 -29 -419 -45 10 -3 28 -9 39 -14 11 -4 52 -20 90 -35 39
-14 78 -31 87 -36 10 -5 26 -9 36 -9 10 0 22 -4 28 -8 5 -5 54 -25 109 -46 55
-21 129 -49 165 -63 181 -70 164 -56 171 -148 4 -44 10 -127 13 -185 4 -58 11
-148 16 -200 6 -52 12 -129 15 -170 3 -41 8 -107 11 -145 7 -79 5 -83 -76
-127 -25 -14 -94 -53 -155 -88 -60 -34 -130 -74 -154 -88 -25 -14 -67 -38 -93
-53 -27 -16 -51 -29 -54 -29 -2 0 -23 -11 -45 -26 -22 -14 -55 -33 -72 -43
-18 -10 -58 -33 -89 -50 -32 -18 -58 -38 -58 -45 0 -7 11 -36 25 -64 14 -29
25 -54 25 -57 0 -2 14 -35 31 -72 17 -38 38 -84 46 -103 8 -19 29 -64 45 -100
17 -36 39 -87 50 -114 10 -28 30 -73 43 -100 32 -70 79 -174 96 -214 12 -28
18 -32 39 -27 14 3 54 9 90 14 36 5 72 11 80 15 8 3 53 11 100 17 47 6 112 15
145 20 33 5 89 13 125 18 36 5 110 17 165 26 l100 18 38 -44 c22 -24 91 -103
153 -176 63 -72 119 -137 126 -145 8 -7 48 -53 90 -103 42 -49 94 -110 117
-135 40 -44 49 -67 33 -86 -4 -5 -14 -27 -21 -49 -11 -36 -29 -85 -52 -140 -4
-11 -20 -56 -35 -100 -15 -44 -31 -84 -35 -89 -5 -6 -9 -18 -9 -28 0 -10 -4
-26 -9 -36 -6 -9 -22 -51 -36 -92 -14 -41 -30 -83 -36 -92 -5 -10 -9 -26 -9
-36 0 -10 -4 -22 -9 -28 -5 -5 -12 -25 -15 -44 l-6 -35 301 -210 c285 -198
336 -235 401 -284 37 -29 49 -27 87 17 19 20 82 89 141 152 59 63 177 189 261
280 85 91 158 164 164 163 16 -4 96 -23 135 -33 19 -5 78 -21 130 -35 52 -15
111 -31 130 -35 19 -5 60 -16 90 -25 30 -9 72 -21 93 -26 149 -36 178 -44 220
-59 20 -8 37 -20 37 -27 0 -7 6 -27 14 -45 8 -18 20 -53 26 -78 20 -72 28
-100 54 -180 13 -41 29 -95 36 -120 7 -25 23 -76 35 -115 20 -65 32 -104 58
-195 5 -19 16 -50 24 -69 l14 -33 107 5 c59 3 127 8 152 11 84 10 354 29 495
35 l139 6 8 35 c5 19 13 64 18 100 5 36 16 108 25 160 9 52 21 122 25 155 35
252 45 314 51 318 13 10 131 77 136 77 3 0 17 8 31 19 15 10 47 29 72 43 76
42 122 69 190 108 36 21 83 48 105 60 22 12 87 50 145 83 58 33 113 60 122 59
10 0 78 -49 152 -109 74 -59 174 -139 223 -178 48 -38 90 -72 93 -75 3 -4 23
-19 45 -35 22 -16 59 -46 82 -67 24 -21 46 -38 50 -38 5 0 103 71 219 158 116
86 295 219 398 296 102 76 186 142 186 147 0 5 -11 27 -25 49 -14 22 -25 42
-25 44 0 3 -29 55 -65 116 -36 61 -76 130 -89 153 -59 106 -166 288 -180 309
-9 12 -16 30 -16 40 0 10 59 122 130 249 72 127 130 233 130 235 0 3 10 21 23
42 13 20 41 69 61 107 60 110 46 104 231 94 88 -5 243 -16 345 -25 330 -28
306 -28 315 -7 4 10 11 34 15 53 5 19 16 62 25 95 25 88 35 126 45 165 4 19
16 62 25 95 9 33 21 74 25 90 36 135 60 224 65 245 4 14 10 34 15 45 5 11 11
32 14 48 3 15 9 37 12 50 5 19 -2 26 -38 46 -24 13 -71 38 -105 57 -35 19 -93
50 -130 70 -205 110 -289 155 -373 202 -52 29 -55 33 -62 79 -13 87 -39 296
-48 388 -21 211 -31 303 -38 359 -7 52 -6 62 12 82 12 12 161 115 331 229 171
114 316 213 324 220 12 11 7 26 -31 92 -25 43 -55 95 -66 115 -12 20 -32 55
-46 77 -15 22 -26 42 -26 45 0 2 -30 55 -66 117 -37 63 -74 128 -83 144 -9 17
-38 66 -64 111 l-47 81 -53 -4 c-28 -3 -65 -9 -81 -14 -16 -5 -45 -9 -64 -9
-20 0 -61 -4 -91 -10 -31 -5 -101 -16 -156 -25 -55 -9 -124 -21 -154 -26 -112
-19 -109 -20 -197 93 -43 56 -95 120 -114 144 -19 23 -62 77 -95 119 -33 43
-72 92 -86 109 -15 17 -68 83 -118 146 -90 112 -102 139 -82 178 19 35 61 133
61 141 0 4 6 21 14 37 8 16 44 103 81 194 37 91 73 179 80 195 43 99 46 108
33 121 -12 11 -143 98 -564 377 -106 70 -196 127 -202 127 -6 0 -138 -130
-293 -290 -156 -159 -290 -292 -299 -295 -9 -3 -38 0 -66 6 -27 6 -74 14 -104
19 -30 5 -82 14 -115 19 -33 6 -89 15 -125 20 -36 5 -78 14 -93 20 -16 6 -41
11 -58 11 -16 0 -48 4 -71 10 -24 5 -64 12 -91 16 -53 6 -87 34 -87 70 0 13
-4 25 -9 28 -5 3 -11 18 -14 33 -3 16 -28 93 -57 173 -28 80 -60 170 -70 200
-10 30 -42 120 -70 200 -28 80 -54 156 -57 170 -8 34 -22 50 -42 48 -9 -1 -56
-5 -106 -9z m240 -2417 c102 -18 149 -29 175 -39 14 -6 45 -16 70 -23 62 -16
275 -106 330 -139 25 -14 57 -33 73 -40 37 -19 34 -42 -12 -109 -35 -51 -265
-413 -364 -572 l-38 -61 -32 21 c-50 34 -186 96 -257 119 -161 50 -336 58
-508 22 -57 -12 -111 -26 -120 -30 -9 -5 -52 -25 -95 -45 -108 -49 -214 -125
-296 -211 -132 -139 -200 -265 -257 -472 -4 -17 -21 -16 -204 6 -85 11 -209
24 -275 30 -248 23 -336 35 -345 46 -6 7 -6 22 0 41 5 16 17 56 26 89 38 137
91 272 155 393 182 345 482 635 834 806 142 69 217 97 231 85 7 -5 25 -49 39
-97 69 -224 198 -602 206 -602 5 0 9 7 9 15 0 18 -40 167 -82 310 -16 55 -34
114 -38 130 -4 17 -22 75 -39 130 -43 140 -43 141 27 160 31 9 71 21 88 26 17
5 48 9 70 10 21 0 48 4 59 9 27 12 494 5 570 -8z m800 -342 c131 -105 202
-170 269 -244 162 -183 197 -237 367 -578 5 -10 9 -26 9 -36 0 -10 3 -22 7
-26 7 -7 23 -52 44 -126 15 -50 29 -116 39 -180 4 -30 13 -84 19 -120 13 -79
13 -324 0 -400 -5 -30 -12 -78 -15 -107 -7 -60 -22 -70 -81 -54 -57 15 -221
52 -280 62 -29 5 -79 14 -110 19 -258 45 -421 61 -409 41 4 -5 25 -12 49 -16
142 -23 449 -85 662 -135 50 -11 100 -22 111 -25 27 -6 36 -28 25 -58 -5 -12
-17 -49 -27 -82 -10 -33 -22 -64 -26 -69 -4 -6 -8 -17 -8 -26 0 -10 -6 -30
-14 -46 -8 -16 -31 -65 -51 -109 -89 -189 -206 -357 -360 -511 -167 -168 -326
-282 -522 -374 -59 -28 -116 -56 -126 -61 -30 -16 -43 4 -66 104 -42 178 -50
210 -111 432 -9 32 -47 154 -77 248 -11 32 -23 57 -29 55 -12 -4 -13 -3 50
-253 30 -121 69 -278 86 -350 17 -71 38 -156 46 -189 17 -71 12 -79 -60 -102
-175 -55 -448 -82 -656 -66 -208 17 -289 33 -450 85 -139 46 -300 119 -372
168 -14 11 -29 19 -33 19 -14 0 -75 53 -75 65 0 8 23 51 52 97 86 139 327 555
366 631 7 15 18 27 23 27 5 0 31 -14 58 -30 149 -92 355 -150 531 -150 92 0
232 24 322 54 42 14 84 26 92 26 9 0 16 5 16 10 0 6 10 14 23 19 54 21 209
136 271 202 98 104 197 266 221 362 4 16 16 33 25 40 13 8 16 16 10 31 -4 12
-2 49 6 86 31 147 12 351 -47 505 -4 11 -10 29 -14 40 -5 14 -9 16 -12 7 -3
-8 -1 -24 5 -35 32 -69 52 -196 52 -325 -1 -208 -58 -393 -173 -561 -91 -133
-272 -277 -429 -342 -134 -55 -179 -63 -363 -63 -149 -1 -180 2 -250 22 -323
93 -571 330 -669 638 -43 136 -49 182 -43 325 5 161 28 253 93 389 56 114 106
183 193 270 127 125 285 212 468 256 103 24 324 22 430 -4 218 -55 403 -174
558 -357 14 -16 25 -26 25 -22 0 19 -69 107 -137 173 -40 40 -73 75 -73 78 0
3 26 40 58 83 49 66 150 212 374 546 21 31 44 57 51 57 7 0 35 -18 62 -40z
m-2740 -1235 c187 -19 349 -32 486 -41 l106 -6 0 -167 c1 -182 11 -245 65
-384 58 -152 155 -286 291 -405 39 -34 44 -46 26 -57 -17 -11 -240 -361 -393
-617 -32 -54 -65 -98 -73 -98 -20 0 -152 111 -233 196 -144 150 -252 307 -344
496 -31 63 -56 118 -56 122 0 5 -6 22 -13 39 -14 31 -18 44 -50 157 -51 178
-59 243 -58 504 0 203 2 242 16 263 14 21 22 24 48 19 18 -4 100 -13 182 -21z"/>
<path d="M24710 31455 c-110 -23 -122 -27 -210 -71 -303 -154 -470 -492 -406
-824 58 -300 268 -526 565 -607 77 -21 306 -22 382 -1 403 113 650 512 563
909 -21 94 -87 236 -148 317 -163 215 -478 332 -746 277z"/>
<path d="M25741 31114 c0 -11 3 -14 6 -6 3 7 2 16 -1 19 -3 4 -6 -2 -5 -13z"/>
<path d="M21005 32150 c8 -13 85 -13 105 0 11 7 -4 10 -48 10 -40 0 -61 -4
-57 -10z"/>
<path d="M37867 31385 c-52 -15 -104 -58 -112 -94 -3 -16 -12 -34 -18 -39 -7
-6 -68 -12 -137 -15 -230 -8 -438 -76 -619 -200 -59 -40 -200 -180 -243 -242
-38 -54 -116 -197 -138 -255 -7 -19 -18 -48 -25 -65 -7 -16 -17 -48 -23 -70
-28 -105 -40 -140 -53 -147 -8 -4 -53 -25 -101 -46 -157 -72 -228 -167 -228
-304 0 -55 5 -81 20 -106 11 -18 20 -41 20 -50 0 -82 82 -187 199 -255 88 -52
105 -52 111 -2 3 22 10 39 15 38 6 -1 43 -14 82 -27 40 -14 123 -33 185 -42
96 -14 129 -15 223 -5 116 13 211 34 310 71 306 113 461 150 634 150 161 0
154 7 245 -242 39 -107 130 -214 221 -260 22 -11 42 -22 44 -24 1 -1 4 -81 6
-176 3 -229 27 -328 96 -394 40 -38 49 -23 49 84 0 95 -4 91 102 101 91 8 93
12 103 172 l7 119 37 9 c20 6 50 13 66 17 17 4 37 12 45 18 8 7 41 25 73 41
66 32 112 81 133 140 17 49 17 75 3 129 -18 68 -30 87 -113 184 -67 80 -79 99
-78 128 1 19 6 43 12 53 5 11 10 33 10 50 0 16 5 42 11 58 14 36 14 405 -1
432 -5 11 -10 30 -10 42 0 34 -47 165 -88 247 -103 206 -340 404 -602 504 -14
6 -38 16 -53 24 -16 8 -35 14 -42 14 -10 0 -16 19 -21 61 -6 53 -12 67 -43 98
-29 29 -50 39 -111 53 -141 32 -164 34 -203 23z m293 -85 c28 -28 38 -59 41
-117 2 -47 -13 -93 -31 -93 -15 0 -19 14 -25 78 -3 34 -13 78 -21 97 -22 54
-2 73 36 35z m247 -254 c59 -16 191 -78 219 -104 11 -9 36 -30 57 -45 77 -58
185 -189 238 -291 114 -217 135 -538 46 -698 -22 -40 -40 -52 -66 -43 -23 7
-36 46 -66 200 -42 218 -114 407 -207 544 -48 70 -149 189 -218 256 -73 71
-120 131 -120 155 0 16 31 38 55 39 6 1 34 -6 62 -13z m-208 -1065 c94 -28
171 -56 241 -88 75 -33 236 -116 251 -129 8 -8 19 -14 23 -14 3 0 44 -26 89
-57 186 -128 369 -303 319 -303 -5 0 -55 37 -113 81 -192 150 -413 286 -604
372 -101 45 -301 122 -340 131 -16 4 -41 16 -55 27 l-25 21 59 -6 c32 -4 101
-19 155 -35z"/>
<path d="M30521 30620 c-160 -17 -158 -17 -165 -58 -3 -20 -6 -62 -7 -92 0
-30 -4 -75 -7 -99 l-7 -45 -110 -58 c-60 -31 -116 -58 -123 -58 -7 0 -67 38
-134 85 -66 47 -124 85 -129 85 -6 0 -231 -160 -252 -180 -5 -4 7 -40 26 -81
60 -127 97 -209 97 -214 0 -2 -33 -56 -74 -119 l-75 -114 -139 5 -140 5 -10
-33 c-6 -19 -23 -94 -38 -167 -23 -114 -25 -135 -13 -146 8 -7 65 -32 127 -56
88 -34 116 -49 123 -67 5 -13 10 -80 11 -150 l3 -126 -30 -17 c-16 -10 -59
-34 -95 -55 -36 -21 -77 -44 -91 -52 -58 -30 -60 -17 32 -221 16 -35 29 -67
29 -71 0 -4 8 -15 18 -23 14 -13 27 -14 72 -7 73 13 181 28 202 29 21 0 198
-197 198 -220 0 -9 -20 -72 -45 -140 -25 -68 -45 -125 -45 -127 0 -4 241 -174
254 -179 7 -3 57 43 111 101 l99 107 40 -7 c23 -3 86 -19 141 -34 107 -30 110
-33 133 -111 6 -19 23 -75 38 -123 l27 -88 136 7 c75 4 146 10 158 15 16 6 24
21 31 61 5 29 16 87 23 128 l14 75 125 72 c69 40 131 72 139 73 7 0 56 -35
110 -77 53 -42 101 -80 107 -85 10 -7 275 182 282 202 3 9 -3 21 -87 167 -22
40 -41 77 -41 83 0 6 21 47 47 93 79 140 92 158 111 153 9 -3 72 -8 138 -12
l122 -6 15 53 c57 195 70 260 56 273 -8 8 -59 37 -114 66 -55 29 -103 57 -106
62 -6 10 -24 131 -34 234 l-7 60 117 78 c89 60 115 82 110 94 -3 10 -36 70
-73 135 l-67 119 -65 -6 c-36 -3 -92 -9 -126 -12 l-61 -6 -97 120 c-53 66 -96
126 -96 133 0 8 20 63 45 123 25 59 45 113 45 120 -1 13 -243 176 -263 176 -7
0 -55 -43 -107 -96 l-95 -96 -50 6 c-98 11 -208 35 -221 48 -7 7 -21 42 -32
78 -27 86 -65 192 -75 208 -9 13 -50 14 -166 2z m229 -834 c61 -15 76 -20 138
-48 23 -10 42 -24 42 -31 0 -6 -27 -57 -60 -112 -33 -55 -61 -104 -63 -110 -2
-6 -25 -1 -53 12 -73 32 -140 45 -201 37 -50 -6 -53 -5 -53 15 0 12 -11 62
-25 111 -14 49 -25 96 -25 104 0 9 14 20 33 25 48 14 205 12 267 -3z m-318
-132 c16 -49 34 -93 39 -98 18 -20 8 -35 -44 -64 -67 -38 -131 -107 -162 -177
-21 -48 -27 -55 -47 -50 -50 11 -155 25 -190 25 -44 0 -47 10 -22 80 51 146
173 288 303 353 44 22 78 34 84 28 4 -4 22 -48 39 -97z m630 -41 c93 -96 156
-212 177 -327 15 -82 14 -211 -1 -223 -9 -7 -34 -6 -77 3 -36 7 -98 17 -138
20 l-74 7 2 46 c5 87 -17 178 -37 158 -3 -2 0 -25 7 -51 9 -36 9 -61 -1 -109
-15 -79 -41 -128 -93 -179 -157 -154 -409 -112 -507 84 -25 51 -30 73 -30 134
0 129 62 229 178 286 57 28 77 33 142 33 62 0 85 -5 132 -28 31 -15 74 -43 95
-62 53 -48 62 -43 19 10 l-37 44 44 58 c24 32 58 79 77 106 18 26 41 47 50 47
8 0 41 -26 72 -57z m-923 -379 l101 -7 0 -52 c0 -95 34 -178 103 -252 l29 -31
-77 -116 c-89 -133 -84 -132 -163 -37 -110 132 -162 270 -162 431 0 72 7 83
46 75 12 -3 67 -8 123 -11z m952 -200 c62 -14 119 -30 126 -35 9 -8 7 -23 -9
-67 -46 -124 -140 -238 -258 -313 -98 -62 -100 -61 -125 36 -9 39 -27 98 -40
133 l-23 63 46 34 c51 37 78 69 111 133 13 26 28 42 40 42 10 0 69 -12 132
-26z m-626 -193 c23 -12 58 -16 153 -15 116 0 123 -1 127 -20 2 -12 15 -70 29
-131 15 -60 26 -113 26 -116 0 -21 -74 -34 -190 -33 -116 0 -131 2 -213 33
-48 18 -97 41 -110 52 l-22 18 33 58 c18 32 47 86 64 120 35 68 38 69 103 34z"/>
<path d="M30522 29430 c-146 -34 -227 -225 -157 -366 49 -99 122 -144 233
-144 89 0 143 22 195 79 50 55 67 101 67 180 0 181 -154 295 -338 251z"/>
<path d="M36630 29024 c-43 -19 -70 -43 -70 -60 0 -17 35 -22 211 -29 113 -5
148 -3 157 7 15 18 -4 41 -58 70 -57 29 -186 36 -240 12z"/>
<path d="M37554 29028 c-17 -6 -44 -21 -60 -33 -26 -21 -27 -25 -14 -38 11
-11 57 -16 188 -21 148 -5 174 -4 178 9 9 22 -11 41 -71 70 -42 20 -68 25
-122 24 -37 -1 -82 -6 -99 -11z"/>
<path d="M36616 28885 c-22 -8 -51 -25 -64 -39 -22 -21 -23 -27 -12 -41 10
-12 10 -19 2 -27 -21 -21 -14 -70 15 -100 58 -61 153 -19 153 67 0 17 -11 38
-31 56 -27 25 -29 30 -14 35 16 7 91 -5 143 -21 16 -5 22 -3 22 7 0 20 -27 43
-74 62 -47 19 -88 20 -140 1z"/>
<path d="M37513 28816 c-18 -7 -45 -21 -60 -33 -25 -19 -27 -23 -15 -43 11
-17 11 -28 2 -50 -9 -22 -9 -34 0 -52 24 -46 42 -58 85 -58 56 0 85 30 85 88
0 34 -5 45 -30 63 -16 12 -27 26 -23 32 6 10 84 1 119 -15 12 -6 30 -8 40 -4
43 17 -79 88 -145 85 -14 -1 -41 -7 -58 -13z"/>
<path d="M37117 28739 c-8 -11 -41 -84 -72 -162 -32 -78 -63 -155 -70 -172 -6
-16 -18 -46 -25 -65 -6 -19 -16 -44 -20 -55 -28 -67 -50 -140 -50 -165 0 -48
39 -70 126 -70 111 0 91 22 -38 45 -29 4 -38 11 -38 25 0 17 25 91 50 145 29
65 170 468 170 487 0 15 -19 8 -33 -13z"/>
<path d="M49385 11490 c-55 -10 -86 -23 -123 -55 -40 -34 -52 -57 -87 -165
-15 -47 -31 -94 -35 -105 -4 -11 -24 -72 -44 -135 -78 -249 -109 -346 -116
-365 -4 -11 -15 -45 -24 -75 -10 -30 -21 -64 -26 -75 -4 -11 -18 -54 -30 -95
-12 -41 -27 -86 -32 -100 -5 -14 -16 -43 -22 -65 -7 -22 -30 -94 -51 -160 -21
-66 -41 -129 -45 -140 -4 -11 -25 -74 -45 -140 -21 -66 -41 -129 -45 -140 -4
-11 -20 -60 -35 -110 -15 -49 -31 -99 -35 -110 -13 -32 -56 -166 -70 -215 -7
-25 -16 -54 -20 -65 -5 -11 -16 -45 -25 -75 -10 -30 -21 -63 -26 -72 -26 -51
-82 -48 944 -48 525 0 956 3 960 6 3 4 0 23 -7 43 -8 20 -19 56 -26 81 -11 39
-36 118 -70 226 -6 17 -10 38 -10 47 0 10 -4 25 -9 35 -13 24 -37 97 -51 157
-6 28 -16 59 -20 70 -17 40 -60 191 -60 207 0 9 -4 20 -10 23 -5 3 -10 15 -10
26 0 12 -11 53 -24 92 -13 40 -29 92 -36 117 -7 25 -23 77 -35 115 -12 39 -27
88 -34 110 -12 44 -58 195 -71 235 -4 14 -13 45 -20 70 -7 25 -21 70 -31 100
-10 30 -26 89 -37 130 -11 41 -29 102 -39 135 -11 33 -26 80 -33 105 -14 52
-18 65 -56 185 -42 131 -93 177 -224 200 -8 1 -33 -1 -55 -5z m-35 -254 c0
-13 -20 -84 -44 -157 -24 -74 -85 -262 -136 -419 -50 -157 -102 -316 -115
-355 -24 -75 -113 -353 -245 -765 -44 -140 -85 -264 -90 -275 -4 -11 -11 -28
-14 -37 -3 -10 -10 -18 -17 -18 -14 0 -8 53 16 135 9 33 25 92 35 130 29 110
31 116 52 185 11 36 28 97 38 135 11 39 33 113 50 165 16 52 41 131 55 175
105 336 298 887 373 1065 6 14 13 33 16 43 8 25 26 21 26 -7z"/>
<path d="M36286 3694 c-22 -21 -39 -54 -32 -62 3 -3 7 -3 9 -1 1 2 18 21 36
42 25 27 30 37 19 37 -9 0 -24 -7 -32 -16z"/>
</g>
</svg>
